<?xml version="1.0" encoding="UTF-8" standalone="no"?>
<!DOCTYPE svg PUBLIC "-//W3C//DTD SVG 1.1//EN"
 "http://www.w3.org/Graphics/SVG/1.1/DTD/svg11.dtd">
<!-- Generated by graphviz version 2.36.0 (20140111.2315)
 -->
<!-- Title: Perl Pages: 1 -->
<svg width="3432pt" height="3222pt"
 viewBox="0.00 0.00 3431.78 3222.00" xmlns="http://www.w3.org/2000/svg" xmlns:xlink="http://www.w3.org/1999/xlink">
<g id="graph0" class="graph" transform="scale(1 1) rotate(0) translate(4 3218)">
<title>Perl</title>
<polygon fill="white" stroke="none" points="-4,4 -4,-3218 3427.78,-3218 3427.78,4 -4,4"/>
<text text-anchor="middle" x="1711.89" y="-22.8" font-family="Times,serif" font-size="14.00">fuzzy named entity ontology</text>
<text text-anchor="middle" x="1711.89" y="-7.8" font-family="Times,serif" font-size="14.00">Legenda: Verde &#45; Pessoas, Azul &#45; Cidades, Vermelho &#45; Datas, Castanho &#45; Paises, Amarelo &#45; Entidade Principal</text>
<!-- António Costa -->
<g id="node1" class="node"><title>António Costa</title>
<ellipse fill="yellow" stroke="yellow" cx="976.756" cy="-2148" rx="61.6163" ry="61.99"/>
<text text-anchor="middle" x="976.756" y="-2144.3" font-family="Times,serif" font-size="14.00">António Costa</text>
</g>
<!-- Henrique Neto -->
<g id="node2" class="node"><title>Henrique Neto</title>
<ellipse fill="green" stroke="green" cx="711.756" cy="-443" rx="63.0666" ry="63.0888"/>
<text text-anchor="middle" x="711.756" y="-439.3" font-family="Times,serif" font-size="14.00">Henrique Neto</text>
</g>
<!-- António Costa&#45;&#45;Henrique Neto -->
<g id="edge107" class="edge"><title>António Costa&#45;&#45;Henrique Neto</title>
<path fill="none" stroke="grey" stroke-width="1.07918" d="M929.122,-2108.51C916.594,-2099.97 902.674,-2091.75 888.756,-2086 804.875,-2051.36 747.608,-2118.22 687.756,-2050 617.35,-1969.75 642.487,-1196.63 647.756,-1090 658.394,-874.72 688.857,-620.557 703.586,-505.758"/>
</g>
<!-- Paulo Morais -->
<g id="node3" class="node"><title>Paulo Morais</title>
<ellipse fill="green" stroke="green" cx="2107.76" cy="-601" rx="58.2422" ry="58.4896"/>
<text text-anchor="middle" x="2107.76" y="-597.3" font-family="Times,serif" font-size="14.00">Paulo Morais</text>
</g>
<!-- António Costa&#45;&#45;Paulo Morais -->
<g id="edge113" class="edge"><title>António Costa&#45;&#45;Paulo Morais</title>
<path fill="none" stroke="grey" stroke-width="0.60206" d="M975.211,-2086.03C974.326,-1993.32 978.367,-1812.03 1016.76,-1664 1064.54,-1479.73 1237.41,-1027.44 1352.76,-876 1423.24,-783.464 1438.61,-747.81 1542.76,-696 1631.45,-651.876 1924.35,-619.494 2049.85,-607.305"/>
</g>
<!-- Cândido Ferreira -->
<g id="node4" class="node"><title>Cândido Ferreira</title>
<ellipse fill="green" stroke="green" cx="2235.76" cy="-1979" rx="70.2668" ry="70.6878"/>
<text text-anchor="middle" x="2235.76" y="-1975.3" font-family="Times,serif" font-size="14.00">Cândido Ferreira</text>
</g>
<!-- António Costa&#45;&#45;Cândido Ferreira -->
<g id="edge114" class="edge"><title>António Costa&#45;&#45;Cândido Ferreira</title>
<path fill="none" stroke="grey" stroke-width="0.60206" d="M1037.8,-2141.45C1179.07,-2128.33 1539.34,-2093.2 1838.76,-2050 1954.26,-2033.33 2087.73,-2008.68 2166.76,-1993.52"/>
</g>
<!-- Francisco Pinto Balsemão -->
<g id="node5" class="node"><title>Francisco Pinto Balsemão</title>
<ellipse fill="green" stroke="green" cx="1199.76" cy="-1768" rx="103.012" ry="103.182"/>
<text text-anchor="middle" x="1199.76" y="-1764.3" font-family="Times,serif" font-size="14.00">Francisco Pinto Balsemão</text>
</g>
<!-- António Costa&#45;&#45;Francisco Pinto Balsemão -->
<g id="edge108" class="edge"><title>António Costa&#45;&#45;Francisco Pinto Balsemão</title>
<path fill="none" stroke="grey" stroke-width="0.60206" d="M1010.96,-2096.57C1020.79,-2081.71 1031.39,-2065.32 1040.76,-2050 1079.23,-1987.13 1120.13,-1914.7 1150.81,-1859.13"/>
</g>
<!-- António Guterres -->
<g id="node7" class="node"><title>António Guterres</title>
<ellipse fill="green" stroke="green" cx="1518.76" cy="-272" rx="72.2155" ry="72.2875"/>
<text text-anchor="middle" x="1518.76" y="-268.3" font-family="Times,serif" font-size="14.00">António Guterres</text>
</g>
<!-- António Costa&#45;&#45;António Guterres -->
<g id="edge115" class="edge"><title>António Costa&#45;&#45;António Guterres</title>
<path fill="none" stroke="grey" stroke-width="0.60206" d="M945.98,-2094.54C938.936,-2080.48 932.217,-2065.01 927.756,-2050 823.587,-1699.45 796.185,-1590.13 859.756,-1230 934.028,-809.26 991.679,-666.357 1308.76,-380 1350.06,-342.702 1406.74,-314.835 1450.81,-296.905"/>
</g>
<!-- Marisa Matias -->
<g id="node8" class="node"><title>Marisa Matias</title>
<ellipse fill="green" stroke="green" cx="1423.76" cy="-101" rx="62.0922" ry="62.2891"/>
<text text-anchor="middle" x="1423.76" y="-97.3" font-family="Times,serif" font-size="14.00">Marisa Matias</text>
</g>
<!-- António Costa&#45;&#45;Marisa Matias -->
<g id="edge111" class="edge"><title>António Costa&#45;&#45;Marisa Matias</title>
<path fill="none" stroke="grey" stroke-width="0.90309" d="M915.415,-2143.38C844.146,-2136.16 726.657,-2114.56 650.756,-2050 492.077,-1915.02 506.519,-1827.56 446.756,-1628 355.715,-1323.99 234.612,-420.597 462.756,-200 527.409,-137.487 1158.4,-110.93 1361.28,-103.963"/>
</g>
<!-- Espanha -->
<g id="node9" class="node"><title>Espanha</title>
<ellipse fill="brown" stroke="brown" cx="696.756" cy="-1142" rx="39.9464" ry="40.0939"/>
<text text-anchor="middle" x="696.756" y="-1138.3" font-family="Times,serif" font-size="14.00">Espanha</text>
</g>
<!-- António Costa&#45;&#45;Espanha -->
<g id="edge110" class="edge"><title>António Costa&#45;&#45;Espanha</title>
<path fill="none" stroke="grey" stroke-width="0" d="M928.987,-2108.83C916.463,-2100.28 902.578,-2091.97 888.756,-2086 818.264,-2055.53 768.892,-2109.02 719.756,-2050 663.729,-1982.7 687.683,-1347.94 694.943,-1182.35"/>
</g>
<!-- Sampaio da Nóvoa -->
<g id="node10" class="node"><title>Sampaio da Nóvoa</title>
<ellipse fill="green" stroke="green" cx="1517.76" cy="-1549" rx="78.4642" ry="78.7863"/>
<text text-anchor="middle" x="1517.76" y="-1545.3" font-family="Times,serif" font-size="14.00">Sampaio da Nóvoa</text>
</g>
<!-- António Costa&#45;&#45;Sampaio da Nóvoa -->
<g id="edge109" class="edge"><title>António Costa&#45;&#45;Sampaio da Nóvoa</title>
<path fill="none" stroke="grey" stroke-width="0.30103" d="M1025.26,-2110.09C1113.53,-2042.51 1293.08,-1902.97 1311.76,-1872 1360.51,-1791.16 1298.09,-1739.5 1354.76,-1664 1375.28,-1636.65 1394.29,-1646.95 1422.76,-1628 1434.93,-1619.9 1447.38,-1610.55 1459.11,-1601.2"/>
</g>
<!-- Francisco Sá Carneiro -->
<g id="node17" class="node"><title>Francisco Sá Carneiro</title>
<ellipse fill="green" stroke="green" cx="2107.76" cy="-965" rx="89.0632" ry="89.0842"/>
<text text-anchor="middle" x="2107.76" y="-961.3" font-family="Times,serif" font-size="14.00">Francisco Sá Carneiro</text>
</g>
<!-- António Costa&#45;&#45;Francisco Sá Carneiro -->
<g id="edge117" class="edge"><title>António Costa&#45;&#45;Francisco Sá Carneiro</title>
<path fill="none" stroke="grey" stroke-width="0.60206" d="M1035.52,-2129.06C1083.88,-2112.73 1152.97,-2085.73 1206.76,-2050 1671.98,-1740.93 1692.87,-1544.33 2017.76,-1090 2029.98,-1072.91 2043.23,-1054.55 2055.71,-1037.35"/>
</g>
<!-- Edgar Silva -->
<g id="node18" class="node"><title>Edgar Silva</title>
<ellipse fill="green" stroke="green" cx="1636.76" cy="-1142" rx="51.4931" ry="51.9908"/>
<text text-anchor="middle" x="1636.76" y="-1138.3" font-family="Times,serif" font-size="14.00">Edgar Silva</text>
</g>
<!-- António Costa&#45;&#45;Edgar Silva -->
<g id="edge112" class="edge"><title>António Costa&#45;&#45;Edgar Silva</title>
<path fill="none" stroke="grey" stroke-width="0.60206" d="M981.829,-2086.09C991.624,-1991.5 1018.65,-1805.48 1087.76,-1664 1142.32,-1552.29 1342,-1305.52 1440.76,-1230 1485.41,-1195.85 1545.58,-1171.72 1587.42,-1157.67"/>
</g>
<!-- Marcelo Caetano -->
<g id="node19" class="node"><title>Marcelo Caetano</title>
<ellipse fill="green" stroke="green" cx="2447.76" cy="-768" rx="71.2405" ry="71.4873"/>
<text text-anchor="middle" x="2447.76" y="-764.3" font-family="Times,serif" font-size="14.00">Marcelo Caetano</text>
</g>
<!-- António Costa&#45;&#45;Marcelo Caetano -->
<g id="edge118" class="edge"><title>António Costa&#45;&#45;Marcelo Caetano</title>
<path fill="none" stroke="grey" stroke-width="0.60206" d="M1037.26,-2136.35C1106.6,-2122.63 1222.43,-2095.04 1313.76,-2050 1433.18,-1991.1 1450.63,-1955 1554.76,-1872 1938.58,-1566.05 2027.62,-1464.48 2296.76,-1054 2344.35,-981.418 2389.66,-892.249 2418.01,-833.188"/>
</g>
<!-- Marcelo Rebelo de Sousa -->
<g id="node20" class="node"><title>Marcelo Rebelo de Sousa</title>
<ellipse fill="green" stroke="green" cx="970.756" cy="-1332" rx="102.061" ry="102.082"/>
<text text-anchor="middle" x="970.756" y="-1328.3" font-family="Times,serif" font-size="14.00">Marcelo Rebelo de Sousa</text>
</g>
<!-- António Costa&#45;&#45;Marcelo Rebelo de Sousa -->
<g id="edge116" class="edge"><title>António Costa&#45;&#45;Marcelo Rebelo de Sousa</title>
<path fill="none" stroke="grey" stroke-width="1.14613" d="M949.843,-2092.26C944.432,-2078.76 939.553,-2064.12 936.756,-2050 924.493,-1988.09 936.239,-1971.11 936.756,-1908 937.645,-1799.54 934.969,-1772.3 940.756,-1664 944.898,-1586.5 952.969,-1499.07 959.697,-1433.53"/>
</g>
<!-- Portugal -->
<g id="node21" class="node"><title>Portugal</title>
<ellipse fill="brown" stroke="brown" cx="768.756" cy="-1979" rx="39.9464" ry="40.0939"/>
<text text-anchor="middle" x="768.756" y="-1975.3" font-family="Times,serif" font-size="14.00">Portugal</text>
</g>
<!-- António Costa&#45;&#45;Portugal -->
<g id="edge119" class="edge"><title>António Costa&#45;&#45;Portugal</title>
<path fill="none" stroke="grey" stroke-width="1.47712" d="M929.037,-2108.69C889.337,-2076.81 833.98,-2032.37 799.802,-2004.93"/>
</g>
<!-- Henrique Neto&#45;&#45;António Guterres -->
<g id="edge177" class="edge"><title>Henrique Neto&#45;&#45;António Guterres</title>
<path fill="none" stroke="grey" stroke-width="0.778151" d="M757.197,-398.986C767,-391.622 777.746,-384.808 788.756,-380 818.855,-366.857 1269.4,-306.079 1447.29,-282.441"/>
</g>
<!-- Henrique Neto&#45;&#45;Marisa Matias -->
<g id="edge178" class="edge"><title>Henrique Neto&#45;&#45;Marisa Matias</title>
<path fill="none" stroke="grey" stroke-width="1.07918" d="M758.783,-400.916C768.371,-393.477 778.631,-386.142 788.756,-380 988.111,-259.066 1249.44,-161.948 1364.74,-121.867"/>
</g>
<!-- Paulo Morais&#45;&#45;Henrique Neto -->
<g id="edge175" class="edge"><title>Paulo Morais&#45;&#45;Henrique Neto</title>
<path fill="none" stroke="grey" stroke-width="0.90309" d="M2049.55,-593.495C1823.92,-568.282 1007.98,-477.103 774.547,-451.017"/>
</g>
<!-- Paulo Morais&#45;&#45;António Guterres -->
<g id="edge174" class="edge"><title>Paulo Morais&#45;&#45;António Guterres</title>
<path fill="none" stroke="grey" stroke-width="0.30103" d="M2072.28,-554.598C2031.09,-504.841 1958.64,-425.99 1879.76,-380 1787.43,-326.168 1665.78,-297.453 1589.93,-283.729"/>
</g>
<!-- Paulo Morais&#45;&#45;Marisa Matias -->
<g id="edge176" class="edge"><title>Paulo Morais&#45;&#45;Marisa Matias</title>
<path fill="none" stroke="grey" stroke-width="0.60206" d="M2084.53,-547.261C2061.05,-498.802 2020.83,-427.497 1968.76,-380 1819.26,-243.638 1590.47,-156.28 1483.17,-120.504"/>
</g>
<!-- Cândido Ferreira&#45;&#45;Henrique Neto -->
<g id="edge130" class="edge"><title>Cândido Ferreira&#45;&#45;Henrique Neto</title>
<path fill="none" stroke="grey" stroke-width="0.778151" d="M2204.49,-1915.34C2169.89,-1849.2 2110.04,-1743.7 2042.76,-1664 1700.24,-1258.29 1433.5,-1305.31 1177.76,-840 1136.93,-765.722 1142.36,-740.137 1114.76,-660 1096.72,-607.644 1115.13,-579.901 1074.76,-542 992.185,-464.484 854.802,-447.025 774.83,-443.822"/>
</g>
<!-- Cândido Ferreira&#45;&#45;Paulo Morais -->
<g id="edge133" class="edge"><title>Cândido Ferreira&#45;&#45;Paulo Morais</title>
<path fill="none" stroke="grey" stroke-width="0.30103" d="M2249.09,-1909.16C2251.2,-1896.82 2253.19,-1884.05 2254.76,-1872 2273.22,-1729.62 2280.76,-1693.58 2280.76,-1550 2280.76,-1550 2280.76,-1550 2280.76,-1331 2280.76,-1126.05 2257.14,-1074.4 2205.76,-876 2185.43,-797.504 2152.07,-709.734 2130.01,-655.172"/>
</g>
<!-- Cândido Ferreira&#45;&#45;Francisco Pinto Balsemão -->
<g id="edge125" class="edge"><title>Cândido Ferreira&#45;&#45;Francisco Pinto Balsemão</title>
<path fill="none" stroke="grey" stroke-width="0.30103" d="M2166.37,-1964.59C2063.69,-1944.69 1865.26,-1906.03 1696.76,-1872 1559.42,-1844.27 1400.96,-1811.25 1300.59,-1790.21"/>
</g>
<!-- Cândido Ferreira&#45;&#45;António Guterres -->
<g id="edge127" class="edge"><title>Cândido Ferreira&#45;&#45;António Guterres</title>
<path fill="none" stroke="grey" stroke-width="0.30103" d="M2288.97,-1932.09C2306.49,-1914.73 2324.79,-1893.85 2337.76,-1872 2472.88,-1644.36 2648.84,-931.408 2527.76,-696 2472.53,-588.628 2196.8,-427.419 2085.76,-380 1917.86,-308.3 1701.65,-284.458 1591.01,-276.672"/>
</g>
<!-- Cândido Ferreira&#45;&#45;Marisa Matias -->
<g id="edge132" class="edge"><title>Cândido Ferreira&#45;&#45;Marisa Matias</title>
<path fill="none" stroke="grey" stroke-width="0.60206" d="M2299.83,-1948.74C2332.87,-1930.77 2371.43,-1904.87 2396.76,-1872 2466.57,-1781.37 2445.18,-1737.37 2478.76,-1628 2665.04,-1021.15 2939.41,-603.992 2449.76,-200 2375.27,-138.542 1696.83,-111.048 1485.98,-103.938"/>
</g>
<!-- Cândido Ferreira&#45;&#45;Sampaio da Nóvoa -->
<g id="edge126" class="edge"><title>Cândido Ferreira&#45;&#45;Sampaio da Nóvoa</title>
<path fill="none" stroke="grey" stroke-width="0" d="M2175.47,-1942.06C2042.3,-1862.68 1723.87,-1672.87 1584.74,-1589.93"/>
</g>
<!-- Cândido Ferreira&#45;&#45;Francisco Sá Carneiro -->
<g id="edge124" class="edge"><title>Cândido Ferreira&#45;&#45;Francisco Sá Carneiro</title>
<path fill="none" stroke="grey" stroke-width="0.30103" d="M2237.6,-1907.95C2239.68,-1823.19 2242.76,-1676.15 2242.76,-1550 2242.76,-1550 2242.76,-1550 2242.76,-1331 2242.76,-1225.77 2192.79,-1113.48 2153.65,-1041.67"/>
</g>
<!-- Cândido Ferreira&#45;&#45;Edgar Silva -->
<g id="edge128" class="edge"><title>Cândido Ferreira&#45;&#45;Edgar Silva</title>
<path fill="none" stroke="grey" stroke-width="0.30103" d="M2226.24,-1908.61C2201.4,-1732.18 2133.15,-1277.04 2083.76,-1230 2027.43,-1176.36 1793.65,-1153.78 1688.46,-1146.2"/>
</g>
<!-- Cândido Ferreira&#45;&#45;Marcelo Caetano -->
<g id="edge129" class="edge"><title>Cândido Ferreira&#45;&#45;Marcelo Caetano</title>
<path fill="none" stroke="grey" stroke-width="0.30103" d="M2273.64,-1918.96C2281.74,-1904.12 2289.44,-1887.88 2294.76,-1872 2420.12,-1497.3 2442.83,-1017.88 2446.89,-839.762"/>
</g>
<!-- Cândido Ferreira&#45;&#45;Marcelo Rebelo de Sousa -->
<g id="edge131" class="edge"><title>Cândido Ferreira&#45;&#45;Marcelo Rebelo de Sousa</title>
<path fill="none" stroke="grey" stroke-width="0.778151" d="M2189.78,-1925.24C2093.43,-1818.62 1858.17,-1578.47 1604.76,-1470 1426.3,-1393.62 1200.72,-1357.99 1072.39,-1342.85"/>
</g>
<!-- Francisco Pinto Balsemão&#45;&#45;Henrique Neto -->
<g id="edge142" class="edge"><title>Francisco Pinto Balsemão&#45;&#45;Henrique Neto</title>
<path fill="none" stroke="grey" stroke-width="0.778151" d="M1180.63,-1666.11C1143.01,-1474.33 1052.66,-1045.11 934.756,-696 911.149,-626.096 920.479,-598.272 872.756,-542 845.137,-509.432 803.838,-484.602 769.985,-468.084"/>
</g>
<!-- Francisco Pinto Balsemão&#45;&#45;Paulo Morais -->
<g id="edge139" class="edge"><title>Francisco Pinto Balsemão&#45;&#45;Paulo Morais</title>
<path fill="none" stroke="grey" stroke-width="0.30103" d="M1231.76,-1669.52C1267.99,-1561.18 1330.03,-1381.52 1391.76,-1230 1463.71,-1053.37 1493.77,-1014.49 1570.76,-840 1598.81,-776.408 1577.82,-739.842 1631.76,-696 1695.32,-644.329 1937.07,-616.913 2049.55,-606.722"/>
</g>
<!-- Francisco Pinto Balsemão&#45;&#45;António Guterres -->
<g id="edge135" class="edge"><title>Francisco Pinto Balsemão&#45;&#45;António Guterres</title>
<path fill="none" stroke="grey" stroke-width="0.30103" d="M1213.91,-1665.49C1222.15,-1608.04 1232.99,-1534.92 1243.76,-1470 1324.85,-980.818 1338.22,-854.628 1481.76,-380 1485.68,-367.018 1490.18,-353.261 1494.66,-340.09"/>
</g>
<!-- Francisco Pinto Balsemão&#45;&#45;Marisa Matias -->
<g id="edge138" class="edge"><title>Francisco Pinto Balsemão&#45;&#45;Marisa Matias</title>
<path fill="none" stroke="grey" stroke-width="0.60206" d="M1117.35,-1705.49C1040.75,-1644.36 928.43,-1544.05 859.756,-1434 838.439,-1399.84 773.909,-1118.79 745.756,-1090 712.439,-1055.93 680.134,-1085.93 644.756,-1054 504.075,-927.032 522.806,-845.006 481.756,-660 454.751,-538.286 450.498,-503.856 464.756,-380 474.151,-298.39 445.214,-254.415 506.756,-200 570.777,-143.393 1165.81,-113.043 1361.62,-104.526"/>
</g>
<!-- Francisco Pinto Balsemão&#45;&#45;Sampaio da Nóvoa -->
<g id="edge134" class="edge"><title>Francisco Pinto Balsemão&#45;&#45;Sampaio da Nóvoa</title>
<path fill="none" stroke="grey" stroke-width="0" d="M1272.81,-1694.93C1286.69,-1683.55 1301.62,-1672.7 1316.76,-1664 1360.62,-1638.78 1380.59,-1652.69 1424.76,-1628 1437.17,-1621.06 1449.51,-1612.35 1460.94,-1603.3"/>
</g>
<!-- Francisco Pinto Balsemão&#45;&#45;Francisco Sá Carneiro -->
<g id="edge136" class="edge"><title>Francisco Pinto Balsemão&#45;&#45;Francisco Sá Carneiro</title>
<path fill="none" stroke="grey" stroke-width="0.60206" d="M1273.74,-1695.67C1285.06,-1684.98 1296.67,-1674.15 1307.76,-1664 1325.65,-1647.63 1336.32,-1648.82 1348.76,-1628 1360.4,-1608.52 1429.93,-1249.95 1440.76,-1230 1481.98,-1154.03 1500.58,-1132.67 1575.76,-1090 1717.41,-1009.59 1908.45,-981.263 2018.85,-971.324"/>
</g>
<!-- Francisco Pinto Balsemão&#45;&#45;Edgar Silva -->
<g id="edge140" class="edge"><title>Francisco Pinto Balsemão&#45;&#45;Edgar Silva</title>
<path fill="none" stroke="grey" stroke-width="0.30103" d="M1274.33,-1696.56C1287.98,-1685.07 1302.45,-1673.76 1316.76,-1664 1345.66,-1644.29 1364.74,-1655.19 1386.76,-1628 1432.56,-1571.45 1404.03,-1538.08 1429.76,-1470 1471.78,-1358.81 1478.03,-1326.26 1547.76,-1230 1561.95,-1210.4 1580.76,-1191.3 1597.43,-1176.01"/>
</g>
<!-- Francisco Pinto Balsemão&#45;&#45;Marcelo Caetano -->
<g id="edge141" class="edge"><title>Francisco Pinto Balsemão&#45;&#45;Marcelo Caetano</title>
<path fill="none" stroke="grey" stroke-width="0.30103" d="M1300.71,-1745.26C1386,-1723.97 1509.17,-1686.15 1604.76,-1628 1920.32,-1436.04 1952.32,-1322.7 2205.76,-1054 2278.24,-977.15 2356.37,-882.825 2403.67,-824.305"/>
</g>
<!-- Francisco Pinto Balsemão&#45;&#45;Marcelo Rebelo de Sousa -->
<g id="edge137" class="edge"><title>Francisco Pinto Balsemão&#45;&#45;Marcelo Rebelo de Sousa</title>
<path fill="none" stroke="grey" stroke-width="0.90309" d="M1169.69,-1668.86C1149.37,-1609.22 1119.55,-1532.75 1082.76,-1470 1070.33,-1448.8 1054.73,-1427.47 1039.15,-1408.16"/>
</g>
<!-- Madeira -->
<g id="node6" class="node"><title>Madeira</title>
<ellipse fill="blue" stroke="blue" cx="1967.76" cy="-2449" rx="39.9464" ry="40.0939"/>
<text text-anchor="middle" x="1967.76" y="-2445.3" font-family="Times,serif" font-size="14.00">Madeira</text>
</g>
<!-- Madeira&#45;&#45;António Costa -->
<g id="edge86" class="edge"><title>Madeira&#45;&#45;António Costa</title>
<path fill="none" stroke="grey" stroke-width="0.60206" d="M1929.07,-2437.5C1876.4,-2423.13 1779.24,-2396.34 1696.76,-2372 1450.13,-2299.24 1157.91,-2206.79 1035.39,-2167.75"/>
</g>
<!-- Madeira&#45;&#45;Henrique Neto -->
<g id="edge83" class="edge"><title>Madeira&#45;&#45;Henrique Neto</title>
<path fill="none" stroke="grey" stroke-width="0.778151" d="M1927.45,-2448.8C1687.79,-2451.33 460.756,-2431.88 460.756,-1769 460.756,-1769 460.756,-1769 460.756,-1141 460.756,-886.987 610.149,-610.062 678.426,-496.763"/>
</g>
<!-- Madeira&#45;&#45;Paulo Morais -->
<g id="edge89" class="edge"><title>Madeira&#45;&#45;Paulo Morais</title>
<path fill="none" stroke="grey" stroke-width="0.30103" d="M2007.97,-2448.75C2072.07,-2447.82 2198.15,-2437.1 2276.76,-2372 2420.37,-2253.05 2448.6,-1905.47 2478.76,-1628 2504.59,-1390.26 2540.93,-1318.61 2470.76,-1090 2410.11,-892.423 2367.19,-844.799 2223.76,-696 2203.99,-675.499 2193.07,-677.691 2170.76,-660 2163.77,-654.458 2156.59,-648.328 2149.7,-642.19"/>
</g>
<!-- Madeira&#45;&#45;Cândido Ferreira -->
<g id="edge88" class="edge"><title>Madeira&#45;&#45;Cândido Ferreira</title>
<path fill="none" stroke="grey" stroke-width="0.30103" d="M1997.44,-2421.64C2020.72,-2400.89 2049.55,-2374.98 2051.76,-2372 2128.34,-2268.51 2184.8,-2128.06 2213.79,-2046.41"/>
</g>
<!-- Madeira&#45;&#45;Francisco Pinto Balsemão -->
<g id="edge82" class="edge"><title>Madeira&#45;&#45;Francisco Pinto Balsemão</title>
<path fill="none" stroke="grey" stroke-width="0.30103" d="M1940.33,-2419.51C1897.73,-2376.68 1811.51,-2295.43 1724.76,-2246 1683.35,-2222.41 1664.23,-2235.16 1623.76,-2210 1537,-2156.07 1510.5,-2138.08 1458.76,-2050 1425.67,-1993.67 1459.53,-1960.58 1420.76,-1908 1388.81,-1864.68 1338.95,-1831.64 1294.67,-1808.67"/>
</g>
<!-- Madeira&#45;&#45;António Guterres -->
<g id="edge90" class="edge"><title>Madeira&#45;&#45;António Guterres</title>
<path fill="none" stroke="grey" stroke-width="0.30103" d="M2007.21,-2439.82C2050.58,-2431.03 2122.4,-2417.11 2184.76,-2408 2331.62,-2386.53 2382.4,-2435.07 2516.76,-2372 2589.59,-2337.81 2587.94,-2300.91 2646.76,-2246 2742,-2157.09 2780.42,-2149.31 2864.76,-2050 2925.57,-1978.39 2945.48,-1959.85 2978.76,-1872 3072.09,-1625.58 3276.12,-915.786 3130.76,-696 3106.01,-658.587 2431.08,-391.632 2387.76,-380 2099.28,-302.542 1741.67,-280.952 1591.01,-275.101"/>
</g>
<!-- Madeira&#45;&#45;Marisa Matias -->
<g id="edge84" class="edge"><title>Madeira&#45;&#45;Marisa Matias</title>
<path fill="none" stroke="grey" stroke-width="0.778151" d="M2008.08,-2446.31C2129.55,-2440.73 2490.04,-2420.41 2595.76,-2372 2782.94,-2286.29 2806.05,-2215.31 2928.76,-2050 3327.85,-1512.35 3344.76,-1271.59 3344.76,-602 3344.76,-602 3344.76,-602 3344.76,-442 3344.76,-141.223 3006.23,-265.869 2712.76,-200 2474.48,-146.519 1709.8,-113.145 1485.9,-104.341"/>
</g>
<!-- Madeira&#45;&#45;Sampaio da Nóvoa -->
<g id="edge85" class="edge"><title>Madeira&#45;&#45;Sampaio da Nóvoa</title>
<path fill="none" stroke="grey" stroke-width="0" d="M1953.62,-2411.18C1917.68,-2320.25 1816.4,-2079.93 1686.76,-1908 1672.75,-1889.42 1659.84,-1892.45 1648.76,-1872 1603.99,-1789.38 1650.14,-1749.32 1610.76,-1664 1601.17,-1643.24 1586.93,-1623.07 1572.44,-1605.6"/>
</g>
<!-- Jorge Sequeira -->
<g id="node13" class="node"><title>Jorge Sequeira</title>
<ellipse fill="green" stroke="green" cx="2204.76" cy="-2309" rx="63.0666" ry="63.0888"/>
<text text-anchor="middle" x="2204.76" y="-2305.3" font-family="Times,serif" font-size="14.00">Jorge Sequeira</text>
</g>
<!-- Madeira&#45;&#45;Jorge Sequeira -->
<g id="edge91" class="edge"><title>Madeira&#45;&#45;Jorge Sequeira</title>
<path fill="none" stroke="grey" stroke-width="0.30103" d="M2002.22,-2427.93C2041.12,-2405.28 2104.91,-2368.14 2150.51,-2341.59"/>
</g>
<!-- Madeira&#45;&#45;Francisco Sá Carneiro -->
<g id="edge92" class="edge"><title>Madeira&#45;&#45;Francisco Sá Carneiro</title>
<path fill="none" stroke="grey" stroke-width="0.30103" d="M1971.47,-2408.74C1990,-2212.5 2072.79,-1336.17 2099.45,-1053.91"/>
</g>
<!-- Madeira&#45;&#45;Edgar Silva -->
<g id="edge87" class="edge"><title>Madeira&#45;&#45;Edgar Silva</title>
<path fill="none" stroke="grey" stroke-width="0.60206" d="M1965.66,-2408.59C1954.57,-2200.86 1902.93,-1242.01 1893.76,-1230 1845.28,-1166.56 1748.33,-1148.99 1688.35,-1144.36"/>
</g>
<!-- Madeira&#45;&#45;Marcelo Caetano -->
<g id="edge93" class="edge"><title>Madeira&#45;&#45;Marcelo Caetano</title>
<path fill="none" stroke="grey" stroke-width="0.30103" d="M2008.11,-2446.68C2110.96,-2442.54 2379.54,-2426.63 2446.76,-2372 2631.23,-2222.06 2590.73,-2105.23 2636.76,-1872 2704.07,-1530.93 2704.35,-1434.09 2654.76,-1090 2640.61,-991.867 2652.12,-954.651 2591.76,-876 2573.05,-851.632 2557.72,-857.895 2532.76,-840 2522.29,-832.495 2511.47,-824.055 2501.22,-815.684"/>
</g>
<!-- Madeira&#45;&#45;Marcelo Rebelo de Sousa -->
<g id="edge94" class="edge"><title>Madeira&#45;&#45;Marcelo Rebelo de Sousa</title>
<path fill="none" stroke="grey" stroke-width="0.778151" d="M1928.64,-2439.32C1879.55,-2427.64 1793.48,-2404.51 1724.76,-2372 1562.08,-2295.06 1179.54,-2026.79 1087.76,-1872 1006.38,-1734.76 981.369,-1547.83 973.824,-1434.03"/>
</g>
<!-- António Guterres&#45;&#45;Marisa Matias -->
<g id="edge179" class="edge"><title>António Guterres&#45;&#45;Marisa Matias</title>
<path fill="none" stroke="grey" stroke-width="0.60206" d="M1483.65,-208.551C1473.93,-191.25 1463.46,-172.623 1454.03,-155.857"/>
</g>
<!-- Sampaio da Nóvoa&#45;&#45;Henrique Neto -->
<g id="edge147" class="edge"><title>Sampaio da Nóvoa&#45;&#45;Henrique Neto</title>
<path fill="none" stroke="grey" stroke-width="0.477121" d="M1457.44,-1498.51C1436.68,-1479.66 1414.27,-1457.12 1396.76,-1434 1216.99,-1196.59 1180.53,-1122.64 1086.76,-840 1044.51,-712.673 1127.18,-642.886 1038.76,-542 972.251,-466.121 849.578,-447.824 774.859,-444.08"/>
</g>
<!-- Sampaio da Nóvoa&#45;&#45;Paulo Morais -->
<g id="edge149" class="edge"><title>Sampaio da Nóvoa&#45;&#45;Paulo Morais</title>
<path fill="none" stroke="grey" stroke-width="0" d="M1524.06,-1470.27C1541.17,-1280.04 1595.17,-799.102 1710.76,-696 1760.57,-651.563 1952.27,-621.602 2049.9,-608.891"/>
</g>
<!-- Sampaio da Nóvoa&#45;&#45;António Guterres -->
<g id="edge144" class="edge"><title>Sampaio da Nóvoa&#45;&#45;António Guterres</title>
<path fill="none" stroke="grey" stroke-width="0.30103" d="M1509.68,-1470.43C1498.8,-1358.97 1480.76,-1146.98 1480.76,-966 1480.76,-966 1480.76,-966 1480.76,-600 1480.76,-510.984 1494.82,-409.244 1505.84,-343.211"/>
</g>
<!-- Sampaio da Nóvoa&#45;&#45;Marisa Matias -->
<g id="edge150" class="edge"><title>Sampaio da Nóvoa&#45;&#45;Marisa Matias</title>
<path fill="none" stroke="grey" stroke-width="0.30103" d="M1478.23,-1481.06C1404.35,-1349.43 1252.76,-1045.6 1252.76,-769 1252.76,-769 1252.76,-769 1252.76,-442 1252.76,-326.703 1332.21,-210.613 1382.8,-148.381"/>
</g>
<!-- Sampaio da Nóvoa&#45;&#45;Francisco Sá Carneiro -->
<g id="edge143" class="edge"><title>Sampaio da Nóvoa&#45;&#45;Francisco Sá Carneiro</title>
<path fill="none" stroke="grey" stroke-width="0" d="M1590.63,-1519.65C1629.67,-1500.92 1675.42,-1472.63 1703.76,-1434 1796.98,-1306.93 1685.61,-1208.27 1789.76,-1090 1848.5,-1023.29 1947.58,-992.185 2019.56,-977.862"/>
</g>
<!-- Sampaio da Nóvoa&#45;&#45;Edgar Silva -->
<g id="edge146" class="edge"><title>Sampaio da Nóvoa&#45;&#45;Edgar Silva</title>
<path fill="none" stroke="grey" stroke-width="0" d="M1540.61,-1473.67C1544.47,-1460.49 1548.33,-1446.87 1551.76,-1434 1575.74,-1344 1570.76,-1318.51 1599.76,-1230 1604.15,-1216.59 1609.77,-1202.37 1615.29,-1189.4"/>
</g>
<!-- Sampaio da Nóvoa&#45;&#45;Marcelo Caetano -->
<g id="edge145" class="edge"><title>Sampaio da Nóvoa&#45;&#45;Marcelo Caetano</title>
<path fill="none" stroke="grey" stroke-width="0" d="M1560.91,-1483.25C1570.83,-1467.4 1581.03,-1450.3 1589.76,-1434 1644.86,-1331.03 1650.66,-1301.31 1696.76,-1194 1716.5,-1148.04 1709.63,-1129.93 1739.76,-1090 1831.97,-967.763 1872.21,-943.278 2009.76,-876 2130.88,-816.757 2287.3,-788.796 2376.69,-776.841"/>
</g>
<!-- Sampaio da Nóvoa&#45;&#45;Marcelo Rebelo de Sousa -->
<g id="edge148" class="edge"><title>Sampaio da Nóvoa&#45;&#45;Marcelo Rebelo de Sousa</title>
<path fill="none" stroke="grey" stroke-width="0.477121" d="M1445.12,-1519.45C1347.47,-1481.07 1173.7,-1412.77 1065.76,-1370.34"/>
</g>
<!-- Vitorino Silva -->
<g id="node11" class="node"><title>Vitorino Silva</title>
<ellipse fill="green" stroke="green" cx="1619.76" cy="-3153" rx="61.1419" ry="61.1893"/>
<text text-anchor="middle" x="1619.76" y="-3149.3" font-family="Times,serif" font-size="14.00">Vitorino Silva</text>
</g>
<!-- Vitorino Silva&#45;&#45;António Costa -->
<g id="edge9" class="edge"><title>Vitorino Silva&#45;&#45;António Costa</title>
<path fill="none" stroke="grey" stroke-width="0.30103" d="M1558.43,-3152C1319.92,-3151.36 463.268,-3143 382.756,-3056 304.875,-2971.84 355.371,-2909.35 382.756,-2798 415.824,-2663.55 565.695,-2335.01 671.756,-2246 742.091,-2186.97 848.71,-2163.73 915.463,-2154.67"/>
</g>
<!-- Vitorino Silva&#45;&#45;Henrique Neto -->
<g id="edge10" class="edge"><title>Vitorino Silva&#45;&#45;Henrique Neto</title>
<path fill="none" stroke="grey" stroke-width="0.477121" d="M1558.73,-3150.12C1310.72,-3142.13 385.808,-3109.03 266.756,-3056 140.42,-2999.73 42.7564,-2978.3 42.7564,-2840 42.7564,-2840 42.7564,-2840 42.7564,-1767 42.7564,-1401.12 232.756,-1331.88 232.756,-966 232.756,-966 232.756,-966 232.756,-767 232.756,-665.106 205.739,-615.068 276.756,-542 289.841,-528.538 532.906,-479.2 649.873,-456.091"/>
</g>
<!-- Vitorino Silva&#45;&#45;Paulo Morais -->
<g id="edge11" class="edge"><title>Vitorino Silva&#45;&#45;Paulo Morais</title>
<path fill="none" stroke="grey" stroke-width="0" d="M1680.89,-3150.11C1942.99,-3141.75 2964.45,-3106.17 3098.76,-3056 3247.31,-3000.5 3382.76,-2998.58 3382.76,-2840 3382.76,-2840 3382.76,-2840 3382.76,-2448 3382.76,-2087.31 3185.03,-1171.88 2978.76,-876 2913.87,-782.932 2899.46,-746.266 2797.76,-696 2686.73,-641.129 2311.49,-613.88 2166.04,-605.184"/>
</g>
<!-- Vitorino Silva&#45;&#45;Cândido Ferreira -->
<g id="edge16" class="edge"><title>Vitorino Silva&#45;&#45;Cândido Ferreira</title>
<path fill="none" stroke="grey" stroke-width="0.30103" d="M1680.84,-3151.13C1869.56,-3147.65 2440.62,-3131.04 2607.76,-3056 2712.76,-3008.85 2749.02,-2984.28 2797.76,-2880 2965.58,-2520.94 2675.64,-2362.59 2391.76,-2086 2363.5,-2058.47 2327.28,-2033.37 2296.85,-2014.51"/>
</g>
<!-- Vitorino Silva&#45;&#45;Francisco Pinto Balsemão -->
<g id="edge15" class="edge"><title>Vitorino Silva&#45;&#45;Francisco Pinto Balsemão</title>
<path fill="none" stroke="grey" stroke-width="0" d="M1558.71,-3151.73C1321.23,-3150.08 467.956,-3138.42 382.756,-3056 313.332,-2988.84 358.756,-2936.59 358.756,-2840 358.756,-2840 358.756,-2840 358.756,-2730 358.756,-2495.34 403.068,-2411.17 569.756,-2246 617.202,-2198.99 957.059,-1947.45 1116.97,-1829.78"/>
</g>
<!-- Vitorino Silva&#45;&#45;Madeira -->
<g id="edge17" class="edge"><title>Vitorino Silva&#45;&#45;Madeira</title>
<path fill="none" stroke="grey" stroke-width="0" d="M1680.5,-3145.6C1883.66,-3122.85 2533.45,-3038.56 2655.76,-2880 2848.14,-2630.59 2179.43,-2488.8 2007.21,-2456.93"/>
</g>
<!-- Vitorino Silva&#45;&#45;António Guterres -->
<g id="edge7" class="edge"><title>Vitorino Silva&#45;&#45;António Guterres</title>
<path fill="none" stroke="grey" stroke-width="0" d="M1681.19,-3151.25C1960.83,-3147.43 3105.86,-3127.53 3247.76,-3056 3357.59,-3000.63 3420.76,-2963 3420.76,-2840 3420.76,-2840 3420.76,-2840 3420.76,-1548 3420.76,-1085.86 3469.2,-883.427 3157.76,-542 3070.03,-445.83 3036.85,-422.344 2913.76,-380 2913.76,-380 1876.48,-300.438 1590.82,-278.527"/>
</g>
<!-- Vitorino Silva&#45;&#45;Marisa Matias -->
<g id="edge6" class="edge"><title>Vitorino Silva&#45;&#45;Marisa Matias</title>
<path fill="none" stroke="grey" stroke-width="0.30103" d="M1558.43,-3152.49C1283.29,-3154.12 171.187,-3154.53 54.7564,-3056 -20.4642,-2992.35 4.75644,-2938.54 4.75644,-2840 4.75644,-2840 4.75644,-2840 4.75644,-442 4.75644,-330.279 -13.7879,-270.652 72.7564,-200 173.519,-117.741 1109.23,-104.468 1361.4,-102.38"/>
</g>
<!-- Vitorino Silva&#45;&#45;Sampaio da Nóvoa -->
<g id="edge4" class="edge"><title>Vitorino Silva&#45;&#45;Sampaio da Nóvoa</title>
<path fill="none" stroke="grey" stroke-width="0" d="M1558.62,-3150.1C1365.32,-3143.49 776.797,-3118.34 720.756,-3056 351.85,-2645.6 1203.01,-2176.07 1347.76,-1872 1388.67,-1786.06 1351.16,-1746.43 1398.76,-1664 1413.21,-1638.98 1434.78,-1615.95 1455.6,-1597.25"/>
</g>
<!-- Marcelo -->
<g id="node12" class="node"><title>Marcelo</title>
<ellipse fill="green" stroke="green" cx="1939.76" cy="-2839" rx="39.9464" ry="40.0939"/>
<text text-anchor="middle" x="1939.76" y="-2835.3" font-family="Times,serif" font-size="14.00">Marcelo</text>
</g>
<!-- Vitorino Silva&#45;&#45;Marcelo -->
<g id="edge8" class="edge"><title>Vitorino Silva&#45;&#45;Marcelo</title>
<path fill="none" stroke="grey" stroke-width="0.477121" d="M1678.16,-3134.26C1720.82,-3118.97 1777.94,-3093.4 1817.76,-3056 1872.07,-3004.99 1908.69,-2924.28 1926.73,-2877.31"/>
</g>
<!-- Vitorino Silva&#45;&#45;Jorge Sequeira -->
<g id="edge18" class="edge"><title>Vitorino Silva&#45;&#45;Jorge Sequeira</title>
<path fill="none" stroke="grey" stroke-width="0" d="M1680.93,-3152.59C1819.67,-3152.28 2167.44,-3142.17 2441.76,-3056 2599.59,-3006.42 2684.82,-3021.97 2769.76,-2880 2921.15,-2626.96 2436.14,-2402.76 2263.45,-2332.63"/>
</g>
<!-- 04/25 -->
<g id="node14" class="node"><title>04/25</title>
<ellipse fill="red" stroke="red" cx="1623.76" cy="-2731" rx="30.3206" ry="30.5947"/>
<text text-anchor="middle" x="1623.76" y="-2727.3" font-family="Times,serif" font-size="14.00">04/25</text>
</g>
<!-- Vitorino Silva&#45;&#45;04/25 -->
<g id="edge12" class="edge"><title>Vitorino Silva&#45;&#45;04/25</title>
<path fill="none" stroke="grey" stroke-width="0.30103" d="M1620.33,-3091.82C1621.2,-3000.41 1622.82,-2829.98 1623.47,-2761.55"/>
</g>
<!-- Maria de Belém -->
<g id="node15" class="node"><title>Maria de Belém</title>
<ellipse fill="green" stroke="green" cx="1423.76" cy="-2595" rx="68.3417" ry="68.7879"/>
<text text-anchor="middle" x="1423.76" y="-2591.3" font-family="Times,serif" font-size="14.00">Maria de Belém</text>
</g>
<!-- Vitorino Silva&#45;&#45;Maria de Belém -->
<g id="edge13" class="edge"><title>Vitorino Silva&#45;&#45;Maria de Belém</title>
<path fill="none" stroke="grey" stroke-width="0.30103" d="M1587.25,-3101.09C1554.28,-3047.7 1503.57,-2960.53 1470.76,-2880 1450.21,-2829.57 1447.42,-2815.59 1437.76,-2762 1432.01,-2730.12 1428.61,-2694.36 1426.61,-2664.22"/>
</g>
<!-- Paulo de Morais -->
<g id="node16" class="node"><title>Paulo de Morais</title>
<ellipse fill="green" stroke="green" cx="1739.76" cy="-2986" rx="69.3156" ry="69.5877"/>
<text text-anchor="middle" x="1739.76" y="-2982.3" font-family="Times,serif" font-size="14.00">Paulo de Morais</text>
</g>
<!-- Vitorino Silva&#45;&#45;Paulo de Morais -->
<g id="edge14" class="edge"><title>Vitorino Silva&#45;&#45;Paulo de Morais</title>
<path fill="none" stroke="grey" stroke-width="0" d="M1655.44,-3102.94C1669.25,-3083.94 1685.14,-3062.09 1699.38,-3042.52"/>
</g>
<!-- Vitorino Silva&#45;&#45;Francisco Sá Carneiro -->
<g id="edge1" class="edge"><title>Vitorino Silva&#45;&#45;Francisco Sá Carneiro</title>
<path fill="none" stroke="grey" stroke-width="0" d="M1681.05,-3152.2C1957.97,-3151.47 3078.76,-3130.59 3078.76,-2840 3078.76,-2840 3078.76,-2840 3078.76,-2730 3078.76,-2004.49 2761.3,-1877.87 2434.76,-1230 2402.5,-1166 2406.78,-1139.29 2354.76,-1090 2308.43,-1046.11 2243.57,-1014.35 2191.94,-993.971"/>
</g>
<!-- Vitorino Silva&#45;&#45;Edgar Silva -->
<g id="edge2" class="edge"><title>Vitorino Silva&#45;&#45;Edgar Silva</title>
<path fill="none" stroke="grey" stroke-width="0" d="M1558.9,-3146.42C1388.34,-3127.56 922.397,-3052.38 989.756,-2798 1140.13,-2230.11 1463.13,-2198.13 1604.76,-1628 1615,-1586.75 1628.95,-1309.96 1634.42,-1193.98"/>
</g>
<!-- Vitorino Silva&#45;&#45;Marcelo Caetano -->
<g id="edge3" class="edge"><title>Vitorino Silva&#45;&#45;Marcelo Caetano</title>
<path fill="none" stroke="grey" stroke-width="0" d="M1680.95,-3150.82C1904.95,-3146 2679.45,-3124.61 2915.76,-3056 3092.39,-3004.71 3268.76,-3023.93 3268.76,-2840 3268.76,-2840 3268.76,-2840 3268.76,-2147 3268.76,-1842.09 3251.27,-1760.21 3157.76,-1470 3067.35,-1189.44 3091.75,-1061.6 2862.76,-876 2762.9,-795.069 2608.84,-774.64 2519.19,-769.911"/>
</g>
<!-- Vitorino Silva&#45;&#45;Marcelo Rebelo de Sousa -->
<g id="edge5" class="edge"><title>Vitorino Silva&#45;&#45;Marcelo Rebelo de Sousa</title>
<path fill="none" stroke="grey" stroke-width="0.477121" d="M1558.6,-3151.4C1316.55,-3148.49 434.066,-3132.68 337.756,-3056 259.122,-2993.4 270.756,-2940.51 270.756,-2840 270.756,-2840 270.756,-2840 270.756,-2308 270.756,-1901.94 314.731,-1719.94 634.756,-1470 705.133,-1415.04 800.589,-1378.94 871.774,-1357.66"/>
</g>
<!-- Marcelo&#45;&#45;António Costa -->
<g id="edge51" class="edge"><title>Marcelo&#45;&#45;António Costa</title>
<path fill="none" stroke="grey" stroke-width="1.07918" d="M1899.5,-2837.31C1709.62,-2832.99 912.756,-2802.54 912.756,-2596 912.756,-2596 912.756,-2596 912.756,-2448 912.756,-2362.53 938.07,-2266.31 956.857,-2206.66"/>
</g>
<!-- Marcelo&#45;&#45;Henrique Neto -->
<g id="edge36" class="edge"><title>Marcelo&#45;&#45;Henrique Neto</title>
<path fill="none" stroke="grey" stroke-width="1.25527" d="M1899.4,-2836.92C1722.49,-2831.95 1014.55,-2809.43 797.756,-2762 678.336,-2735.87 627.665,-2749.97 540.756,-2664 387.577,-2512.48 421.573,-2419.38 370.756,-2210 211.737,-1554.78 310.434,-1351.87 466.756,-696 483.318,-626.514 466.644,-596.555 512.756,-542 548.431,-499.794 606.639,-474.112 650.91,-459.691"/>
</g>
<!-- Marcelo&#45;&#45;Paulo Morais -->
<g id="edge37" class="edge"><title>Marcelo&#45;&#45;Paulo Morais</title>
<path fill="none" stroke="grey" stroke-width="0.778151" d="M1979.35,-2830.85C2110.13,-2805.53 2535.28,-2709.64 2803.76,-2490 2854.81,-2448.24 2868.58,-2432.96 2893.76,-2372 3034.45,-2031.38 3002.76,-1918.53 3002.76,-1550 3002.76,-1550 3002.76,-1550 3002.76,-1331 3002.76,-987.9 2861.4,-866.669 2563.76,-696 2435.26,-622.319 2257.07,-605.957 2166.17,-602.608"/>
</g>
<!-- Marcelo&#45;&#45;Cândido Ferreira -->
<g id="edge41" class="edge"><title>Marcelo&#45;&#45;Cândido Ferreira</title>
<path fill="none" stroke="grey" stroke-width="0.778151" d="M1979.77,-2833.41C2027.84,-2826.01 2108.53,-2807.36 2160.76,-2762 2197.67,-2729.94 2192.16,-2709.22 2210.76,-2664 2309.64,-2423.48 2374.8,-2335.58 2301.76,-2086 2296.64,-2068.52 2287.78,-2051.1 2278.18,-2035.58"/>
</g>
<!-- Marcelo&#45;&#45;Francisco Pinto Balsemão -->
<g id="edge40" class="edge"><title>Marcelo&#45;&#45;Francisco Pinto Balsemão</title>
<path fill="none" stroke="grey" stroke-width="0.778151" d="M1906.81,-2815.67C1863.5,-2785.15 1786.82,-2726.95 1734.76,-2664 1488.81,-2366.64 1521.37,-2229.38 1307.76,-1908 1294.56,-1888.15 1279.38,-1867.49 1264.65,-1848.36"/>
</g>
<!-- Marcelo&#45;&#45;Madeira -->
<g id="edge38" class="edge"><title>Marcelo&#45;&#45;Madeira</title>
<path fill="none" stroke="grey" stroke-width="0.778151" d="M1942.6,-2798.66C1947.96,-2724.3 1959.54,-2563.89 1964.91,-2489.44"/>
</g>
<!-- Marcelo&#45;&#45;António Guterres -->
<g id="edge45" class="edge"><title>Marcelo&#45;&#45;António Guterres</title>
<path fill="none" stroke="grey" stroke-width="0.778151" d="M1979.95,-2836C2109.35,-2829.21 2513.8,-2804.97 2636.76,-2762 2836.25,-2692.28 2881.36,-2643.36 3026.76,-2490 3302.37,-2199.3 3372.2,-1058.98 3202.76,-696 3096.91,-469.249 2977.47,-448.403 2736.76,-380 2681.34,-364.252 1843.76,-298.247 1590.65,-278.563"/>
</g>
<!-- Marcelo&#45;&#45;Marisa Matias -->
<g id="edge44" class="edge"><title>Marcelo&#45;&#45;Marisa Matias</title>
<path fill="none" stroke="grey" stroke-width="1.07918" d="M1979.85,-2835.94C2119.21,-2828.49 2581.85,-2801.31 2724.76,-2762 2823.29,-2734.9 2852.79,-2727.62 2932.76,-2664 3058.87,-2563.66 3072.59,-2514.56 3147.76,-2372 3219.82,-2235.33 3241.88,-2200.04 3278.76,-2050 3307.64,-1932.5 3382.76,-1087 3382.76,-966 3382.76,-966 3382.76,-966 3382.76,-442 3382.76,-253.606 3086.49,-215.351 3033.76,-200 2735.48,-113.165 1744.86,-103.235 1486.05,-102.131"/>
</g>
<!-- Marcelo&#45;&#45;Sampaio da Nóvoa -->
<g id="edge46" class="edge"><title>Marcelo&#45;&#45;Sampaio da Nóvoa</title>
<path fill="none" stroke="grey" stroke-width="0.477121" d="M1926.36,-2800.93C1880.22,-2672.86 1724.57,-2236.9 1610.76,-1872 1582.15,-1780.27 1578.6,-1756.27 1551.76,-1664 1548.04,-1651.21 1544.03,-1637.63 1540.12,-1624.46"/>
</g>
<!-- Marcelo&#45;&#45;Jorge Sequeira -->
<g id="edge39" class="edge"><title>Marcelo&#45;&#45;Jorge Sequeira</title>
<path fill="none" stroke="grey" stroke-width="0.778151" d="M1979.54,-2833.31C2022.94,-2825.97 2091.12,-2807.53 2127.76,-2762 2218.97,-2648.67 2219.19,-2466.8 2211.85,-2372.01"/>
</g>
<!-- Marcelo&#45;&#45;04/25 -->
<g id="edge42" class="edge"><title>Marcelo&#45;&#45;04/25</title>
<path fill="none" stroke="grey" stroke-width="1.07918" d="M1900.26,-2830.98C1846.25,-2820.49 1747.12,-2798.01 1668.76,-2762 1661.59,-2758.71 1654.28,-2754.35 1647.7,-2749.97"/>
</g>
<!-- Marcelo&#45;&#45;Maria de Belém -->
<g id="edge43" class="edge"><title>Marcelo&#45;&#45;Maria de Belém</title>
<path fill="none" stroke="grey" stroke-width="1.07918" d="M1899.46,-2836.96C1830.55,-2833.6 1687.48,-2819.62 1583.76,-2762 1535.29,-2735.08 1492.44,-2688.7 1463.31,-2651.8"/>
</g>
<!-- Marcelo&#45;&#45;Francisco Sá Carneiro -->
<g id="edge49" class="edge"><title>Marcelo&#45;&#45;Francisco Sá Carneiro</title>
<path fill="none" stroke="grey" stroke-width="0.778151" d="M1979.81,-2834.78C2033.47,-2828.66 2129.38,-2811.18 2193.76,-2762 2459.57,-2558.92 2412.88,-2383.58 2437.76,-2050 2465.08,-1683.6 2439.78,-1581.49 2332.76,-1230 2313.38,-1166.35 2320.23,-1142.8 2279.76,-1090 2272.17,-1080.1 2224.43,-1045.94 2181.16,-1015.98"/>
</g>
<!-- Marcelo&#45;&#45;Edgar Silva -->
<g id="edge48" class="edge"><title>Marcelo&#45;&#45;Edgar Silva</title>
<path fill="none" stroke="grey" stroke-width="0.778151" d="M1972.08,-2814.89C2022.4,-2775.93 2113.76,-2691.99 2113.76,-2596 2113.76,-2596 2113.76,-2596 2113.76,-2448 2113.76,-2379.45 1961.69,-1281.76 1916.76,-1230 1859.19,-1163.69 1752.07,-1147.24 1688.32,-1143.57"/>
</g>
<!-- Marcelo&#45;&#45;Marcelo Caetano -->
<g id="edge50" class="edge"><title>Marcelo&#45;&#45;Marcelo Caetano</title>
<path fill="none" stroke="grey" stroke-width="0.90309" d="M1980.18,-2835.85C2102.86,-2828.92 2469.24,-2805.05 2579.76,-2762 2623.66,-2744.9 2623.42,-2720.69 2665.76,-2700 2716.93,-2674.98 2744.75,-2700.16 2788.76,-2664 3174.23,-2347.29 2926.76,-2048.9 2926.76,-1550 2926.76,-1550 2926.76,-1550 2926.76,-1331 2926.76,-1219.45 2800.8,-946.994 2714.76,-876 2663.87,-834.014 2631.92,-864.729 2570.76,-840 2549.16,-831.266 2526.74,-819.305 2507.06,-807.69"/>
</g>
<!-- Marcelo&#45;&#45;Marcelo Rebelo de Sousa -->
<g id="edge47" class="edge"><title>Marcelo&#45;&#45;Marcelo Rebelo de Sousa</title>
<path fill="none" stroke="grey" stroke-width="1.25527" d="M1899.46,-2836.49C1742.5,-2830.36 1172.11,-2805.5 996.756,-2762 889.704,-2735.44 833.044,-2753.62 768.756,-2664 509.667,-2302.8 661.216,-2090.42 786.756,-1664 812.283,-1577.3 802.994,-1548.52 847.756,-1470 861.212,-1446.4 879.293,-1423.36 897.443,-1403.12"/>
</g>
<!-- Jorge Sequeira&#45;&#45;António Costa -->
<g id="edge102" class="edge"><title>Jorge Sequeira&#45;&#45;António Costa</title>
<path fill="none" stroke="grey" stroke-width="0.60206" d="M2142.17,-2299.9C1931.03,-2272.56 1246.51,-2183.93 1037.76,-2156.9"/>
</g>
<!-- Jorge Sequeira&#45;&#45;Henrique Neto -->
<g id="edge103" class="edge"><title>Jorge Sequeira&#45;&#45;Henrique Neto</title>
<path fill="none" stroke="grey" stroke-width="0.778151" d="M2141.72,-2305.58C1897.37,-2295.89 1020.49,-2258.05 905.756,-2210 828.472,-2177.64 836.753,-2127.13 763.756,-2086 717.835,-2060.12 683.506,-2091.3 650.756,-2050 326.559,-1641.16 613.842,-1396.81 645.756,-876 654.889,-726.975 650.646,-688.027 681.756,-542 684.482,-529.209 688.115,-515.685 691.91,-502.902"/>
</g>
<!-- Jorge Sequeira&#45;&#45;Paulo Morais -->
<g id="edge98" class="edge"><title>Jorge Sequeira&#45;&#45;Paulo Morais</title>
<path fill="none" stroke="grey" stroke-width="0.30103" d="M2239.2,-2256.01C2247.75,-2241.54 2256.31,-2225.52 2262.76,-2210 2284.58,-2157.43 2262.63,-2132.99 2294.76,-2086 2310.21,-2063.39 2330.85,-2073.59 2344.76,-2050 2399.23,-1957.6 2513.17,-1174.24 2446.76,-1090 2404.31,-1036.16 2346.64,-1101.03 2296.76,-1054 2236.6,-997.292 2267.24,-954.964 2242.76,-876 2217.91,-795.848 2225.96,-769.656 2185.76,-696 2175.6,-677.386 2161.47,-658.971 2148.03,-643.44"/>
</g>
<!-- Jorge Sequeira&#45;&#45;Cândido Ferreira -->
<g id="edge99" class="edge"><title>Jorge Sequeira&#45;&#45;Cândido Ferreira</title>
<path fill="none" stroke="grey" stroke-width="0.30103" d="M2210.62,-2245.92C2215.91,-2190.02 2223.66,-2107.94 2229.16,-2049.78"/>
</g>
<!-- Jorge Sequeira&#45;&#45;Francisco Pinto Balsemão -->
<g id="edge104" class="edge"><title>Jorge Sequeira&#45;&#45;Francisco Pinto Balsemão</title>
<path fill="none" stroke="grey" stroke-width="0.30103" d="M2143.01,-2294.91C2027.56,-2270.3 1789.13,-2218.83 1772.76,-2210 1602.32,-2118.11 1615.3,-2021.96 1458.76,-1908 1407.29,-1870.53 1344.48,-1836.57 1293.6,-1811.6"/>
</g>
<!-- Jorge Sequeira&#45;&#45;António Guterres -->
<g id="edge100" class="edge"><title>Jorge Sequeira&#45;&#45;António Guterres</title>
<path fill="none" stroke="grey" stroke-width="0.30103" d="M2259.45,-2277.66C2288.4,-2260.09 2323.51,-2236.28 2350.76,-2210 2413.98,-2149.02 2418.61,-2123.46 2466.76,-2050 2619.3,-1817.23 3028.36,-1124.34 2902.76,-876 2732.3,-538.978 2563.87,-519.131 2212.76,-380 1997.7,-294.784 1720.17,-277.109 1590.93,-273.668"/>
</g>
<!-- Jorge Sequeira&#45;&#45;Marisa Matias -->
<g id="edge106" class="edge"><title>Jorge Sequeira&#45;&#45;Marisa Matias</title>
<path fill="none" stroke="grey" stroke-width="0.60206" d="M2264.7,-2288.95C2308.73,-2272.87 2368.22,-2246.57 2411.76,-2210 2552.62,-2091.65 2546.85,-2023.83 2650.76,-1872 2973.21,-1400.83 3417.88,-1209.24 3167.76,-696 3011.03,-374.394 2866.53,-331.361 2533.76,-200 2340.65,-123.773 1691.14,-106.478 1486.24,-102.879"/>
</g>
<!-- Jorge Sequeira&#45;&#45;Sampaio da Nóvoa -->
<g id="edge105" class="edge"><title>Jorge Sequeira&#45;&#45;Sampaio da Nóvoa</title>
<path fill="none" stroke="grey" stroke-width="0" d="M2160.13,-2264.16C2144.79,-2247.91 2128.13,-2228.83 2114.76,-2210 2026.55,-2085.82 2077.44,-1995.49 1952.76,-1908 1862.31,-1844.53 1789.68,-1945.03 1706.76,-1872 1634.74,-1808.57 1700,-1745.14 1648.76,-1664 1631.69,-1636.98 1606.3,-1612.79 1582.4,-1593.72"/>
</g>
<!-- Jorge Sequeira&#45;&#45;Francisco Sá Carneiro -->
<g id="edge96" class="edge"><title>Jorge Sequeira&#45;&#45;Francisco Sá Carneiro</title>
<path fill="none" stroke="grey" stroke-width="0.30103" d="M2219.5,-2247.56C2234.72,-2186.58 2257.51,-2099.52 2266.76,-2086 2281.81,-2063.99 2302.83,-2073.85 2314.76,-2050 2396.45,-1886.61 2298.54,-1407.83 2256.76,-1230 2241.84,-1166.51 2244.23,-1147.13 2212.76,-1090 2201.05,-1068.75 2185.36,-1047.79 2169.68,-1029.31"/>
</g>
<!-- Jorge Sequeira&#45;&#45;Edgar Silva -->
<g id="edge101" class="edge"><title>Jorge Sequeira&#45;&#45;Edgar Silva</title>
<path fill="none" stroke="grey" stroke-width="0.30103" d="M2193.22,-2246.67C2151.07,-2023.77 2005.92,-1267.68 1969.76,-1230 1931.07,-1189.69 1771.22,-1161.85 1687.86,-1149.77"/>
</g>
<!-- Jorge Sequeira&#45;&#45;Marcelo Caetano -->
<g id="edge95" class="edge"><title>Jorge Sequeira&#45;&#45;Marcelo Caetano</title>
<path fill="none" stroke="grey" stroke-width="0.30103" d="M2248.34,-2263.38C2263.58,-2247.05 2280.45,-2228.13 2294.76,-2210 2301.77,-2201.11 2518.56,-1882.52 2522.76,-1872 2636.1,-1588.24 2611.33,-1498.5 2636.76,-1194 2640.6,-1147.94 2648.91,-1134.6 2636.76,-1090 2608.87,-987.671 2539.15,-884.712 2492.64,-823.927"/>
</g>
<!-- Jorge Sequeira&#45;&#45;Marcelo Rebelo de Sousa -->
<g id="edge97" class="edge"><title>Jorge Sequeira&#45;&#45;Marcelo Rebelo de Sousa</title>
<path fill="none" stroke="grey" stroke-width="0.778151" d="M2151.8,-2274.33C2123.09,-2255.79 2087.15,-2232.1 2055.76,-2210 1626.15,-1907.47 1535.06,-1809.18 1133.76,-1470 1106.09,-1446.62 1075.72,-1421.06 1048.77,-1398.42"/>
</g>
<!-- 04/25&#45;&#45;António Costa -->
<g id="edge66" class="edge"><title>04/25&#45;&#45;António Costa</title>
<path fill="none" stroke="grey" stroke-width="0.90309" d="M1593.63,-2726.91C1541.15,-2720.66 1430.46,-2703.6 1345.76,-2664 1228.67,-2609.27 1205.56,-2579.95 1112.76,-2490 1064.61,-2443.33 1046.67,-2432.96 1018.76,-2372 995.137,-2320.42 984.801,-2256.31 980.277,-2210.08"/>
</g>
<!-- 04/25&#45;&#45;Henrique Neto -->
<g id="edge65" class="edge"><title>04/25&#45;&#45;Henrique Neto</title>
<path fill="none" stroke="grey" stroke-width="1.07918" d="M1593.35,-2730.15C1459.5,-2730.41 922.563,-2727.43 768.756,-2664 583.674,-2587.67 538.208,-2537.64 425.756,-2372 398.321,-2331.59 282.42,-2028.39 256.756,-1872 232.671,-1725.22 312.917,-655.746 408.756,-542 468.159,-471.498 578.733,-451.262 648.612,-445.721"/>
</g>
<!-- 04/25&#45;&#45;Paulo Morais -->
<g id="edge54" class="edge"><title>04/25&#45;&#45;Paulo Morais</title>
<path fill="none" stroke="grey" stroke-width="0.60206" d="M1654.11,-2728.35C1755.56,-2722.53 2082.01,-2701.3 2179.76,-2664 2541.2,-2526.08 2707.83,-2426.51 2796.76,-2050 2857.08,-1794.59 2838.95,-1075.77 2668.76,-876 2638.66,-840.679 2602.54,-873.81 2570.76,-840 2525.01,-791.333 2576.61,-741.548 2527.76,-696 2475.7,-647.466 2268.55,-619.112 2165.95,-607.78"/>
</g>
<!-- 04/25&#45;&#45;Cândido Ferreira -->
<g id="edge53" class="edge"><title>04/25&#45;&#45;Cândido Ferreira</title>
<path fill="none" stroke="grey" stroke-width="0.60206" d="M1654.04,-2728.67C1712.15,-2725.05 1842.1,-2711.83 1938.76,-2664 2116.68,-2575.95 2194.16,-2552.52 2276.76,-2372 2325.59,-2265.29 2290.59,-2125.63 2262.17,-2045.05"/>
</g>
<!-- 04/25&#45;&#45;Francisco Pinto Balsemão -->
<g id="edge64" class="edge"><title>04/25&#45;&#45;Francisco Pinto Balsemão</title>
<path fill="none" stroke="grey" d="M1611.75,-2702.79C1557.57,-2580 1334.49,-2074.37 1241.13,-1862.78"/>
</g>
<!-- 04/25&#45;&#45;Madeira -->
<g id="edge63" class="edge"><title>04/25&#45;&#45;Madeira</title>
<path fill="none" stroke="grey" stroke-width="0.60206" d="M1649.95,-2715.45C1671.14,-2703.09 1701.22,-2684.18 1724.76,-2664 1787.35,-2610.33 1785.88,-2579.34 1848.76,-2526 1874.93,-2503.8 1908.06,-2483.15 1932.72,-2469"/>
</g>
<!-- 04/25&#45;&#45;António Guterres -->
<g id="edge52" class="edge"><title>04/25&#45;&#45;António Guterres</title>
<path fill="none" stroke="grey" stroke-width="0.60206" d="M1654.24,-2730.33C1801.75,-2731.57 2441.97,-2732.85 2626.76,-2664 2922.81,-2553.69 3116.76,-2464.94 3116.76,-2149 3116.76,-2149 3116.76,-2149 3116.76,-1767 3116.76,-1528.73 3292.1,-899.25 3167.76,-696 3105.47,-594.189 3052.21,-599.741 2947.76,-542 2785.64,-452.387 2743.2,-425.94 2563.76,-380 2378.47,-332.564 1795.29,-291.03 1590.61,-277.571"/>
</g>
<!-- 04/25&#45;&#45;Marisa Matias -->
<g id="edge62" class="edge"><title>04/25&#45;&#45;Marisa Matias</title>
<path fill="none" stroke="grey" stroke-width="0.90309" d="M1593.28,-2729.74C1427.1,-2728.11 634.354,-2717.57 540.756,-2664 222.795,-2482.03 80.7564,-2346.35 80.7564,-1980 80.7564,-1980 80.7564,-1980 80.7564,-442 80.7564,-331.602 53.0132,-271.936 136.756,-200 230.406,-119.555 1116.55,-104.988 1361.36,-102.492"/>
</g>
<!-- 04/25&#45;&#45;Sampaio da Nóvoa -->
<g id="edge61" class="edge"><title>04/25&#45;&#45;Sampaio da Nóvoa</title>
<path fill="none" stroke="grey" stroke-width="0.30103" d="M1621.11,-2700.54C1607.55,-2549.62 1545.71,-1861.19 1524.74,-1627.71"/>
</g>
<!-- 04/25&#45;&#45;Jorge Sequeira -->
<g id="edge60" class="edge"><title>04/25&#45;&#45;Jorge Sequeira</title>
<path fill="none" stroke="grey" stroke-width="0.60206" d="M1652.6,-2721.4C1730.77,-2696.87 1949.85,-2619.83 2084.76,-2490 2122.51,-2453.67 2154.75,-2403.48 2176.27,-2365.33"/>
</g>
<!-- 04/25&#45;&#45;Maria de Belém -->
<g id="edge59" class="edge"><title>04/25&#45;&#45;Maria de Belém</title>
<path fill="none" stroke="grey" stroke-width="0.90309" d="M1598.83,-2713.3C1569.41,-2693.59 1519.55,-2660.18 1480.54,-2634.05"/>
</g>
<!-- 04/25&#45;&#45;Francisco Sá Carneiro -->
<g id="edge57" class="edge"><title>04/25&#45;&#45;Francisco Sá Carneiro</title>
<path fill="none" stroke="grey" stroke-width="0.778151" d="M1654.09,-2727.97C1742.25,-2721.7 1996.84,-2700.78 2070.76,-2664 2227.39,-2586.06 2276.8,-2537.08 2334.76,-2372 2503.01,-1892.78 2415.71,-1722.79 2292.76,-1230 2276.87,-1166.32 2281.8,-1144.85 2245.76,-1090 2228.07,-1063.08 2203.14,-1038.27 2179.33,-1018.03"/>
</g>
<!-- 04/25&#45;&#45;Edgar Silva -->
<g id="edge67" class="edge"><title>04/25&#45;&#45;Edgar Silva</title>
<path fill="none" stroke="grey" stroke-width="0.60206" d="M1625.22,-2700.44C1625.76,-2689.05 1626.33,-2675.92 1626.76,-2664 1643.21,-2203.69 1647.76,-2088.56 1653.76,-1628 1654.67,-1557.78 1653.9,-1540.22 1653.76,-1470 1653.53,-1363.33 1662.66,-1336.21 1652.76,-1230 1651.63,-1217.92 1649.67,-1205.01 1647.51,-1192.93"/>
</g>
<!-- 04/25&#45;&#45;Marcelo Caetano -->
<g id="edge58" class="edge"><title>04/25&#45;&#45;Marcelo Caetano</title>
<path fill="none" stroke="grey" stroke-width="0.60206" d="M1654.32,-2730.28C1792.67,-2731.19 2360.46,-2730.71 2522.76,-2664 2568.97,-2645 2841.43,-2416.19 2864.76,-2372 2911.29,-2283.84 2888.76,-2248.68 2888.76,-2149 2888.76,-2149 2888.76,-2149 2888.76,-1767 2888.76,-1577.93 2703.99,-914.638 2668.76,-876 2637.49,-841.714 2612.78,-859.671 2570.76,-840 2549.77,-830.175 2527.61,-817.992 2507.97,-806.508"/>
</g>
<!-- 04/25&#45;&#45;Marcelo Rebelo de Sousa -->
<g id="edge56" class="edge"><title>04/25&#45;&#45;Marcelo Rebelo de Sousa</title>
<path fill="none" stroke="grey" stroke-width="1.20412" d="M1593.31,-2730.56C1516.01,-2730.97 1307,-2725.81 1147.76,-2664 991.341,-2603.29 836.756,-2617.78 836.756,-2450 836.756,-2450 836.756,-2450 836.756,-2147 836.756,-1885.26 905.044,-1582.4 944.122,-1430.51"/>
</g>
<!-- 04/25&#45;&#45;Portugal -->
<g id="edge55" class="edge"><title>04/25&#45;&#45;Portugal</title>
<path fill="none" stroke="grey" stroke-width="2.04139" d="M1593.34,-2729.77C1453.65,-2728.43 878.099,-2719.53 822.756,-2664 732.259,-2573.19 755.769,-2151.52 765.547,-2019.57"/>
</g>
<!-- Maria de Belém&#45;&#45;António Costa -->
<g id="edge73" class="edge"><title>Maria de Belém&#45;&#45;António Costa</title>
<path fill="none" stroke="grey" stroke-width="0.90309" d="M1356.75,-2579.98C1300.32,-2565.38 1220.17,-2537.78 1164.76,-2490 1132.77,-2462.42 1140.44,-2442.96 1116.76,-2408 1105.39,-2391.22 1099.58,-2389.14 1088.76,-2372 1054.41,-2317.6 1022.22,-2251.28 1001.25,-2205.17"/>
</g>
<!-- Maria de Belém&#45;&#45;Henrique Neto -->
<g id="edge70" class="edge"><title>Maria de Belém&#45;&#45;Henrique Neto</title>
<path fill="none" stroke="grey" stroke-width="1.07918" d="M1357.52,-2577.4C1276.25,-2557 1134.3,-2521.24 1012.76,-2490 912.214,-2464.16 649.993,-2425.04 560.756,-2372 475.887,-2321.55 455.515,-2296.96 408.756,-2210 374.142,-2145.63 379.259,-2122.59 370.756,-2050 340.77,-1793.97 287.098,-1713.83 370.756,-1470 377.335,-1450.83 391.095,-1452.77 398.756,-1434 445.934,-1318.45 438.24,-998.381 462.756,-876 493.983,-720.125 491.51,-666.186 590.756,-542 610.08,-517.821 636.324,-495.666 659.432,-478.562"/>
</g>
<!-- Maria de Belém&#45;&#45;Paulo Morais -->
<g id="edge76" class="edge"><title>Maria de Belém&#45;&#45;Paulo Morais</title>
<path fill="none" stroke="grey" stroke-width="0.60206" d="M1359.38,-2570.8C1320.82,-2553.87 1273.65,-2527.32 1243.76,-2490 1126.97,-2344.21 1046.14,-1846.11 1087.76,-1664 1101.15,-1605.41 1521.57,-730.537 1570.76,-696 1647.44,-642.156 1926.74,-615.37 2049.36,-605.997"/>
</g>
<!-- Maria de Belém&#45;&#45;Cândido Ferreira -->
<g id="edge75" class="edge"><title>Maria de Belém&#45;&#45;Cândido Ferreira</title>
<path fill="none" stroke="grey" stroke-width="0.60206" d="M1484.5,-2563.24C1521.77,-2543.63 1570,-2516.93 1610.76,-2490 1838.32,-2339.65 2081.35,-2122.91 2184.62,-2027.79"/>
</g>
<!-- Maria de Belém&#45;&#45;Francisco Pinto Balsemão -->
<g id="edge68" class="edge"><title>Maria de Belém&#45;&#45;Francisco Pinto Balsemão</title>
<path fill="none" stroke="grey" stroke-width="0.60206" d="M1368.56,-2553.84C1307.24,-2504.12 1216.76,-2413.26 1216.76,-2310 1216.76,-2310 1216.76,-2310 1216.76,-2147 1216.76,-2053.55 1211.51,-1947.24 1206.84,-1871.22"/>
</g>
<!-- Maria de Belém&#45;&#45;Madeira -->
<g id="edge69" class="edge"><title>Maria de Belém&#45;&#45;Madeira</title>
<path fill="none" stroke="grey" stroke-width="0.60206" d="M1491.24,-2582.62C1580.71,-2566.61 1742.9,-2534.34 1876.76,-2490 1895.43,-2483.81 1915.52,-2475.2 1932.06,-2467.56"/>
</g>
<!-- Maria de Belém&#45;&#45;António Guterres -->
<g id="edge77" class="edge"><title>Maria de Belém&#45;&#45;António Guterres</title>
<path fill="none" stroke="grey" stroke-width="0.778151" d="M1356.63,-2581.29C1278.77,-2565.3 1147.45,-2534.45 1040.76,-2490 930.641,-2444.12 656.56,-2303.72 582.756,-2210 377.875,-1949.83 471.47,-1800.26 495.756,-1470 513.675,-1226.33 466.111,-551.88 639.756,-380 696.844,-323.493 1246.59,-287.934 1446.52,-276.782"/>
</g>
<!-- Maria de Belém&#45;&#45;Marisa Matias -->
<g id="edge72" class="edge"><title>Maria de Belém&#45;&#45;Marisa Matias</title>
<path fill="none" stroke="grey" d="M1355.11,-2592.9C1217.7,-2588.94 900.428,-2570.99 648.756,-2490 574.942,-2466.25 563.353,-2444.16 494.756,-2408 464.157,-2391.87 448.66,-2397.92 425.756,-2372 167.534,-2079.76 118.756,-1939.98 118.756,-1550 118.756,-1550 118.756,-1550 118.756,-442 118.756,-284.46 234.066,-264.59 377.756,-200 555.344,-120.172 1164.25,-105.333 1361.53,-102.606"/>
</g>
<!-- Maria de Belém&#45;&#45;Sampaio da Nóvoa -->
<g id="edge71" class="edge"><title>Maria de Belém&#45;&#45;Sampaio da Nóvoa</title>
<path fill="none" stroke="grey" stroke-width="0.477121" d="M1414.85,-2526.69C1413.56,-2514.5 1412.44,-2501.89 1411.76,-2490 1409.66,-2453.62 1411.29,-2444.44 1411.76,-2408 1413.87,-2242.63 1375.8,-1819.99 1430.76,-1664 1438.04,-1643.34 1450.59,-1623.41 1463.93,-1606.15"/>
</g>
<!-- Maria de Belém&#45;&#45;Jorge Sequeira -->
<g id="edge78" class="edge"><title>Maria de Belém&#45;&#45;Jorge Sequeira</title>
<path fill="none" stroke="grey" stroke-width="0.60206" d="M1492.23,-2594.64C1606.97,-2593.04 1842.61,-2578.16 2016.76,-2490 2077.83,-2459.08 2132.46,-2401.72 2166.88,-2360.04"/>
</g>
<!-- Maria de Belém&#45;&#45;Francisco Sá Carneiro -->
<g id="edge79" class="edge"><title>Maria de Belém&#45;&#45;Francisco Sá Carneiro</title>
<path fill="none" stroke="grey" stroke-width="0.60206" d="M1457.7,-2535.04C1465.81,-2520.44 1474.28,-2504.75 1481.76,-2490 1672.31,-2114.12 1719.38,-2018.93 1876.76,-1628 1959.15,-1423.33 2040.67,-1176.63 2081.25,-1050.01"/>
</g>
<!-- Maria de Belém&#45;&#45;Edgar Silva -->
<g id="edge74" class="edge"><title>Maria de Belém&#45;&#45;Edgar Silva</title>
<path fill="none" stroke="grey" stroke-width="0.60206" d="M1443.81,-2529.1C1467.02,-2453.01 1505.76,-2322.92 1534.76,-2210 1600.11,-1955.49 1623.75,-1890.34 1638.76,-1628 1642.77,-1557.89 1638.97,-1540.22 1638.76,-1470 1638.46,-1372.49 1637.66,-1258.64 1637.17,-1194.26"/>
</g>
<!-- Maria de Belém&#45;&#45;Marcelo Caetano -->
<g id="edge80" class="edge"><title>Maria de Belém&#45;&#45;Marcelo Caetano</title>
<path fill="none" stroke="grey" stroke-width="0.60206" d="M1492.23,-2588.15C1705.79,-2568.7 2355.11,-2500.04 2516.76,-2372 2966.81,-2015.5 2771.1,-1656.17 2675.76,-1090 2659.69,-994.585 2698.8,-949.399 2635.76,-876 2604.16,-839.214 2574.93,-863.93 2532.76,-840 2521.38,-833.548 2510.06,-825.514 2499.55,-817.194"/>
</g>
<!-- Maria de Belém&#45;&#45;Marcelo Rebelo de Sousa -->
<g id="edge81" class="edge"><title>Maria de Belém&#45;&#45;Marcelo Rebelo de Sousa</title>
<path fill="none" stroke="grey" stroke-width="1.07918" d="M1356.65,-2581.34C1291.46,-2566.81 1191.61,-2538.51 1116.76,-2490 1075.06,-2462.98 1075.09,-2443.92 1040.76,-2408 886.346,-2246.48 772.541,-2256.74 687.756,-2050 609.813,-1859.94 826.788,-1504.91 847.756,-1470 861.664,-1446.85 879.792,-1424.05 897.838,-1403.9"/>
</g>
<!-- Paulo de Morais&#45;&#45;António Costa -->
<g id="edge19" class="edge"><title>Paulo de Morais&#45;&#45;António Costa</title>
<path fill="none" stroke="grey" stroke-width="0.60206" d="M1670.33,-2981.73C1499.86,-2972.77 1065.22,-2944.14 936.756,-2880 778.727,-2801.1 658.756,-2772.63 658.756,-2596 658.756,-2596 658.756,-2596 658.756,-2448 658.756,-2306.29 828.436,-2212.07 919.904,-2171.57"/>
</g>
<!-- Paulo de Morais&#45;&#45;Henrique Neto -->
<g id="edge35" class="edge"><title>Paulo de Morais&#45;&#45;Henrique Neto</title>
<path fill="none" stroke="grey" stroke-width="0.778151" d="M1670.49,-2982.65C1419.24,-2973.69 565.04,-2939.1 458.756,-2880 -288.265,-2464.58 270.756,-1820.76 270.756,-966 270.756,-966 270.756,-966 270.756,-767 270.756,-659.131 281.356,-613.913 361.756,-542 442.299,-469.959 571.705,-450.447 648.559,-445.424"/>
</g>
<!-- Paulo de Morais&#45;&#45;Paulo Morais -->
<g id="edge34" class="edge"><title>Paulo de Morais&#45;&#45;Paulo Morais</title>
<path fill="none" stroke="grey" stroke-width="0.30103" d="M1809.03,-2981.03C1998.94,-2969.55 2524.62,-2933.71 2688.76,-2880 2855,-2825.6 2916.18,-2806.41 3017.76,-2664 3096.39,-2553.76 3079.85,-2505.11 3104.76,-2372 3118.16,-2300.39 3123.96,-2282.62 3129.76,-2210 3135.42,-2139.11 3130.53,-2121.11 3130.76,-2050 3132.42,-1518.81 3223.33,-1302.55 2906.76,-876 2831.67,-774.829 2802.57,-747.87 2687.76,-696 2509.97,-615.681 2274.11,-602.907 2166.18,-601.584"/>
</g>
<!-- Paulo de Morais&#45;&#45;Cândido Ferreira -->
<g id="edge28" class="edge"><title>Paulo de Morais&#45;&#45;Cândido Ferreira</title>
<path fill="none" stroke="grey" stroke-width="0.30103" d="M1809.13,-2984.92C1930.6,-2982.39 2187.45,-2966.24 2382.76,-2880 2460.03,-2845.88 2494.98,-2838.05 2531.76,-2762 2660.54,-2495.74 2396.82,-2157.95 2283.81,-2031.16"/>
</g>
<!-- Paulo de Morais&#45;&#45;Francisco Pinto Balsemão -->
<g id="edge29" class="edge"><title>Paulo de Morais&#45;&#45;Francisco Pinto Balsemão</title>
<path fill="none" stroke="grey" stroke-width="0.30103" d="M1670.77,-2977.87C1478.53,-2956.09 950.756,-2882.59 950.756,-2732 950.756,-2732 950.756,-2732 950.756,-2594 950.756,-2520.04 1099.33,-2068.07 1166.95,-1866.21"/>
</g>
<!-- Paulo de Morais&#45;&#45;Madeira -->
<g id="edge30" class="edge"><title>Paulo de Morais&#45;&#45;Madeira</title>
<path fill="none" stroke="grey" stroke-width="0.30103" d="M1791.54,-2939.46C1808.56,-2922.26 1826.29,-2901.59 1838.76,-2880 1858.88,-2845.16 1930.47,-2586.74 1957.41,-2488.1"/>
</g>
<!-- Paulo de Morais&#45;&#45;António Guterres -->
<g id="edge21" class="edge"><title>Paulo de Morais&#45;&#45;António Guterres</title>
<path fill="none" stroke="grey" stroke-width="0.30103" d="M1670.35,-2985.1C1463.64,-2984.34 855.892,-2973.95 685.756,-2880 134.159,-2575.41 194.756,-2180.11 194.756,-1550 194.756,-1550 194.756,-1550 194.756,-600 194.756,-339.851 1170.34,-285.376 1446.63,-275.164"/>
</g>
<!-- Paulo de Morais&#45;&#45;Marisa Matias -->
<g id="edge22" class="edge"><title>Paulo de Morais&#45;&#45;Marisa Matias</title>
<path fill="none" stroke="grey" stroke-width="0.60206" d="M1809.3,-2984.3C2016.49,-2981.24 2626.19,-2965.07 2802.76,-2880 3231.46,-2673.46 3382.76,-2455.87 3382.76,-1980 3382.76,-1980 3382.76,-1980 3382.76,-1548 3382.76,-1288.78 3420.76,-1225.22 3420.76,-966 3420.76,-966 3420.76,-966 3420.76,-442 3420.76,-317.221 3219.92,-206.888 3203.76,-200 3043.15,-131.571 1782.99,-107.638 1486.21,-102.922"/>
</g>
<!-- Paulo de Morais&#45;&#45;Sampaio da Nóvoa -->
<g id="edge26" class="edge"><title>Paulo de Morais&#45;&#45;Sampaio da Nóvoa</title>
<path fill="none" stroke="grey" stroke-width="0" d="M1693.8,-2933.82C1679.67,-2917.14 1664.5,-2898.23 1651.76,-2880 1537.28,-2716.27 1520.76,-2649.78 1520.76,-2450 1520.76,-2450 1520.76,-2450 1520.76,-2147 1520.76,-1960.69 1519.28,-1741.69 1518.4,-1627.75"/>
</g>
<!-- Paulo de Morais&#45;&#45;Marcelo -->
<g id="edge20" class="edge"><title>Paulo de Morais&#45;&#45;Marcelo</title>
<path fill="none" stroke="grey" stroke-width="0.778151" d="M1795.47,-2944.61C1831.53,-2918.46 1877.22,-2885.34 1907.41,-2863.45"/>
</g>
<!-- Paulo de Morais&#45;&#45;Jorge Sequeira -->
<g id="edge31" class="edge"><title>Paulo de Morais&#45;&#45;Jorge Sequeira</title>
<path fill="none" stroke="grey" stroke-width="0.30103" d="M1808.52,-2975.47C1979.99,-2950.15 2418.79,-2875.31 2503.76,-2762 2616.65,-2611.45 2370.65,-2420.25 2257.63,-2343.81"/>
</g>
<!-- Paulo de Morais&#45;&#45;04/25 -->
<g id="edge32" class="edge"><title>Paulo de Morais&#45;&#45;04/25</title>
<path fill="none" stroke="grey" stroke-width="0.60206" d="M1711.08,-2922.46C1687.06,-2870.07 1653.94,-2797.83 1636.19,-2759.11"/>
</g>
<!-- Paulo de Morais&#45;&#45;Maria de Belém -->
<g id="edge33" class="edge"><title>Paulo de Morais&#45;&#45;Maria de Belém</title>
<path fill="none" stroke="grey" stroke-width="0.60206" d="M1672.85,-2967.36C1625.32,-2951.66 1563.17,-2924.18 1523.76,-2880 1469.21,-2818.86 1443.97,-2726.11 1432.6,-2663.39"/>
</g>
<!-- Paulo de Morais&#45;&#45;Francisco Sá Carneiro -->
<g id="edge24" class="edge"><title>Paulo de Morais&#45;&#45;Francisco Sá Carneiro</title>
<path fill="none" stroke="grey" stroke-width="0.30103" d="M1809.19,-2984.85C1940.86,-2982.42 2234.06,-2966.77 2461.76,-2880 2624.52,-2817.98 2706.24,-2817.39 2788.76,-2664 2945.83,-2372.01 2496.1,-1539.34 2376.76,-1230 2352.33,-1166.68 2360.62,-1140.93 2315.76,-1090 2281.44,-1051.04 2231.83,-1020.81 2189.66,-999.955"/>
</g>
<!-- Paulo de Morais&#45;&#45;Edgar Silva -->
<g id="edge23" class="edge"><title>Paulo de Morais&#45;&#45;Edgar Silva</title>
<path fill="none" stroke="grey" stroke-width="0.30103" d="M1772.38,-2924.52C1796.35,-2874.42 1824.76,-2800.58 1824.76,-2732 1824.76,-2732 1824.76,-2732 1824.76,-2448 1824.76,-1902.3 1801.89,-1759.46 1669.76,-1230 1666.47,-1216.83 1661.79,-1202.94 1656.98,-1190.22"/>
</g>
<!-- Paulo de Morais&#45;&#45;Marcelo Caetano -->
<g id="edge25" class="edge"><title>Paulo de Morais&#45;&#45;Marcelo Caetano</title>
<path fill="none" stroke="grey" stroke-width="0.30103" d="M1809.13,-2980.49C1984.06,-2968.44 2439.3,-2932.83 2580.76,-2880 2895.9,-2762.31 3078.76,-2646.4 3078.76,-2310 3078.76,-2310 3078.76,-2310 3078.76,-1978 3078.76,-1724.77 2991.43,-1027.81 2788.76,-876 2706.3,-814.235 2656.16,-876.339 2559.76,-840 2540.8,-832.854 2521.64,-822.232 2504.66,-811.367"/>
</g>
<!-- Paulo de Morais&#45;&#45;Marcelo Rebelo de Sousa -->
<g id="edge27" class="edge"><title>Paulo de Morais&#45;&#45;Marcelo Rebelo de Sousa</title>
<path fill="none" stroke="grey" stroke-width="0.778151" d="M1670.25,-2984.23C1475.24,-2981 927.139,-2964.47 771.756,-2880 685.007,-2832.84 518.228,-2536.74 504.756,-2490 375.311,-2040.89 458.636,-1826.62 760.756,-1470 793.045,-1431.89 838.581,-1400.42 879,-1377.29"/>
</g>
<!-- Francisco Sá Carneiro&#45;&#45;Henrique Neto -->
<g id="edge168" class="edge"><title>Francisco Sá Carneiro&#45;&#45;Henrique Neto</title>
<path fill="none" stroke="grey" stroke-width="0.778151" d="M2027.3,-925.981C1830.55,-833.415 1328.41,-599.7 1152.76,-542 1020.87,-498.677 860.54,-468.414 774.147,-453.861"/>
</g>
<!-- Francisco Sá Carneiro&#45;&#45;Paulo Morais -->
<g id="edge165" class="edge"><title>Francisco Sá Carneiro&#45;&#45;Paulo Morais</title>
<path fill="none" stroke="grey" stroke-width="0.30103" d="M2107.76,-875.908C2107.76,-808.623 2107.76,-717.838 2107.76,-659.596"/>
</g>
<!-- Francisco Sá Carneiro&#45;&#45;António Guterres -->
<g id="edge169" class="edge"><title>Francisco Sá Carneiro&#45;&#45;António Guterres</title>
<path fill="none" stroke="grey" stroke-width="0.30103" d="M2050.48,-896.801C1934.12,-760.294 1672.1,-452.9 1565.35,-327.661"/>
</g>
<!-- Francisco Sá Carneiro&#45;&#45;Marisa Matias -->
<g id="edge166" class="edge"><title>Francisco Sá Carneiro&#45;&#45;Marisa Matias</title>
<path fill="none" stroke="grey" stroke-width="0.60206" d="M2144.32,-883.699C2178.48,-796.869 2218.19,-655.642 2174.76,-542 2096.77,-337.949 2015.78,-300.368 1821.76,-200 1711.46,-142.945 1566.61,-118.138 1485.55,-108.126"/>
</g>
<!-- Francisco Sá Carneiro&#45;&#45;Marcelo Caetano -->
<g id="edge167" class="edge"><title>Francisco Sá Carneiro&#45;&#45;Marcelo Caetano</title>
<path fill="none" stroke="grey" stroke-width="0.30103" d="M2184.88,-920.036C2226.36,-896.365 2278.38,-866.634 2324.76,-840 2344.75,-828.518 2366.54,-815.953 2386.16,-804.626"/>
</g>
<!-- Edgar Silva&#45;&#45;Henrique Neto -->
<g id="edge162" class="edge"><title>Edgar Silva&#45;&#45;Henrique Neto</title>
<path fill="none" stroke="grey" stroke-width="0.778151" d="M1598.14,-1107.03C1495.08,-1015.71 1217,-764.78 1152.76,-660 1123.96,-613.029 1155.11,-579.512 1114.76,-542 1065.64,-496.348 874.681,-465.25 774.267,-451.694"/>
</g>
<!-- Edgar Silva&#45;&#45;Paulo Morais -->
<g id="edge160" class="edge"><title>Edgar Silva&#45;&#45;Paulo Morais</title>
<path fill="none" stroke="grey" stroke-width="0.30103" d="M1643.72,-1090.33C1653.94,-1018.44 1673.04,-893.584 1684.76,-876 1775.7,-739.458 1960.34,-655.943 2052.64,-621.026"/>
</g>
<!-- Edgar Silva&#45;&#45;António Guterres -->
<g id="edge163" class="edge"><title>Edgar Silva&#45;&#45;António Guterres</title>
<path fill="none" stroke="grey" stroke-width="0.30103" d="M1632.03,-1090.12C1626.92,-1036.72 1618.23,-950.345 1608.76,-876 1584.14,-682.803 1548.42,-455.816 1530.27,-343.418"/>
</g>
<!-- Edgar Silva&#45;&#45;Marisa Matias -->
<g id="edge159" class="edge"><title>Edgar Silva&#45;&#45;Marisa Matias</title>
<path fill="none" stroke="grey" stroke-width="0.778151" d="M1619.99,-1092.38C1578.5,-969.122 1471.94,-633.64 1437.76,-344 1430.54,-282.876 1427,-212.609 1425.29,-163.595"/>
</g>
<!-- Edgar Silva&#45;&#45;Francisco Sá Carneiro -->
<g id="edge164" class="edge"><title>Edgar Silva&#45;&#45;Francisco Sá Carneiro</title>
<path fill="none" stroke="grey" stroke-width="0.30103" d="M1682.24,-1117.1C1700.23,-1108.07 1721.23,-1098.04 1740.76,-1090 1835.43,-1050.99 1947.3,-1014.52 2022.43,-991.369"/>
</g>
<!-- Edgar Silva&#45;&#45;Marcelo Caetano -->
<g id="edge161" class="edge"><title>Edgar Silva&#45;&#45;Marcelo Caetano</title>
<path fill="none" stroke="grey" stroke-width="0.30103" d="M1663.55,-1097.3C1671.11,-1083.76 1678.88,-1068.56 1684.76,-1054 1715.44,-978.023 1671.59,-930.517 1732.76,-876 1826.98,-792.018 2214.48,-773.952 2376.27,-770.065"/>
</g>
<!-- Marcelo Caetano&#45;&#45;Henrique Neto -->
<g id="edge173" class="edge"><title>Marcelo Caetano&#45;&#45;Henrique Neto</title>
<path fill="none" stroke="grey" stroke-width="0.778151" d="M2396.43,-717.941C2385.88,-709.7 2374.42,-701.917 2362.76,-696 2303.54,-665.95 2267.13,-704.397 2217.76,-660 2176.25,-622.679 2219.39,-575.518 2174.76,-542 2061.59,-457.018 1041.11,-445.729 774.989,-444.23"/>
</g>
<!-- Marcelo Caetano&#45;&#45;Paulo Morais -->
<g id="edge171" class="edge"><title>Marcelo Caetano&#45;&#45;Paulo Morais</title>
<path fill="none" stroke="grey" stroke-width="0.30103" d="M2396.66,-717.475C2386.09,-709.277 2374.56,-701.629 2362.76,-696 2287.94,-660.313 2254.89,-695.02 2179.76,-660 2169.43,-655.185 2159.29,-648.58 2150.03,-641.547"/>
</g>
<!-- Marcelo Caetano&#45;&#45;António Guterres -->
<g id="edge170" class="edge"><title>Marcelo Caetano&#45;&#45;António Guterres</title>
<path fill="none" stroke="grey" stroke-width="0.30103" d="M2400.78,-713.866C2321.28,-627.809 2150.99,-459.57 1968.76,-380 1841.62,-324.49 1681.16,-295.173 1590.24,-281.976"/>
</g>
<!-- Marcelo Caetano&#45;&#45;Marisa Matias -->
<g id="edge172" class="edge"><title>Marcelo Caetano&#45;&#45;Marisa Matias</title>
<path fill="none" stroke="grey" stroke-width="0.60206" d="M2466.14,-698.595C2493.62,-579.251 2529.18,-333.052 2397.76,-200 2333.6,-135.048 1690.94,-110.089 1486.12,-103.746"/>
</g>
<!-- Marcelo Rebelo de Sousa&#45;&#45;Henrique Neto -->
<g id="edge153" class="edge"><title>Marcelo Rebelo de Sousa&#45;&#45;Henrique Neto</title>
<path fill="none" stroke="grey" stroke-width="0.477121" d="M949.769,-1231.97C936.086,-1158.83 920.756,-1056.66 920.756,-966 920.756,-966 920.756,-966 920.756,-767 920.756,-649.113 821.409,-540.244 759.705,-483.996"/>
</g>
<!-- Marcelo Rebelo de Sousa&#45;&#45;Paulo Morais -->
<g id="edge155" class="edge"><title>Marcelo Rebelo de Sousa&#45;&#45;Paulo Morais</title>
<path fill="none" stroke="grey" stroke-width="0" d="M1016.11,-1240.53C1023.74,-1225.05 1031.53,-1209.09 1038.76,-1194 1060.74,-1148.08 1063.32,-1135.19 1086.76,-1090 1133.33,-1000.2 1230.26,-751.614 1314.76,-696 1435.7,-616.398 1887.2,-604.116 2049.33,-602.291"/>
</g>
<!-- Marcelo Rebelo de Sousa&#45;&#45;António Guterres -->
<g id="edge158" class="edge"><title>Marcelo Rebelo de Sousa&#45;&#45;António Guterres</title>
<path fill="none" stroke="grey" stroke-width="1.20412" d="M997.873,-1233.57C1010.19,-1189.66 1025.05,-1137.17 1038.76,-1090 1066.46,-994.67 1064.59,-967.645 1102.76,-876 1127.25,-817.169 1349.32,-428.414 1390.76,-380 1411.19,-356.126 1437.3,-333.268 1460.6,-314.854"/>
</g>
<!-- Marcelo Rebelo de Sousa&#45;&#45;Marisa Matias -->
<g id="edge154" class="edge"><title>Marcelo Rebelo de Sousa&#45;&#45;Marisa Matias</title>
<path fill="none" stroke="grey" stroke-width="1.34242" d="M908.059,-1251.29C755.476,-1052.86 384.433,-541.14 484.756,-380 580.565,-226.113 678.302,-255.857 850.756,-200 1031.02,-141.614 1255.08,-116.157 1361.73,-106.733"/>
</g>
<!-- Marcelo Rebelo de Sousa&#45;&#45;Espanha -->
<g id="edge157" class="edge"><title>Marcelo Rebelo de Sousa&#45;&#45;Espanha</title>
<path fill="none" stroke="grey" stroke-width="0.69897" d="M887.059,-1273.57C834.022,-1237.18 768.358,-1192.13 729.667,-1165.58"/>
</g>
<!-- Marcelo Rebelo de Sousa&#45;&#45;Francisco Sá Carneiro -->
<g id="edge156" class="edge"><title>Marcelo Rebelo de Sousa&#45;&#45;Francisco Sá Carneiro</title>
<path fill="none" stroke="grey" stroke-width="0.30103" d="M1067.72,-1300.19C1136.48,-1276.23 1229.53,-1239.46 1304.76,-1194 1366.32,-1156.8 1363.66,-1120.59 1428.76,-1090 1625.6,-997.505 1884.63,-973.835 2018.72,-967.892"/>
</g>
<!-- Marcelo Rebelo de Sousa&#45;&#45;Edgar Silva -->
<g id="edge151" class="edge"><title>Marcelo Rebelo de Sousa&#45;&#45;Edgar Silva</title>
<path fill="none" stroke="grey" stroke-width="0.477121" d="M1067.18,-1297.8C1128.55,-1277.16 1209.92,-1250.71 1282.76,-1230 1390.2,-1199.45 1517.76,-1169.67 1586.63,-1154.12"/>
</g>
<!-- Marcelo Rebelo de Sousa&#45;&#45;Marcelo Caetano -->
<g id="edge152" class="edge"><title>Marcelo Rebelo de Sousa&#45;&#45;Marcelo Caetano</title>
<path fill="none" stroke="grey" stroke-width="0.60206" d="M1051.4,-1269.06C1118.01,-1218.83 1215.73,-1147.22 1304.76,-1090 1466.51,-986.039 1498.73,-937.947 1680.76,-876 1926.73,-792.293 2238.41,-773.99 2376.43,-770.047"/>
</g>
<!-- Portugal&#45;&#45;Francisco Pinto Balsemão -->
<g id="edge122" class="edge"><title>Portugal&#45;&#45;Francisco Pinto Balsemão</title>
<path fill="none" stroke="grey" stroke-width="1.73239" d="M804.762,-1960.54C870.616,-1928.61 1012.38,-1859.86 1106.92,-1814.02"/>
</g>
<!-- Portugal&#45;&#45;António Guterres -->
<g id="edge120" class="edge"><title>Portugal&#45;&#45;António Guterres</title>
<path fill="none" stroke="grey" stroke-width="0.30103" d="M771.51,-1938.47C779.604,-1818.74 802.756,-1449.49 802.756,-1143 802.756,-1143 802.756,-1143 802.756,-600 802.756,-319.002 1264.7,-278.442 1446.49,-273.361"/>
</g>
<!-- Portugal&#45;&#45;Espanha -->
<g id="edge121" class="edge"><title>Portugal&#45;&#45;Espanha</title>
<path fill="none" stroke="grey" stroke-width="1.92942" d="M761.295,-1939.36C757.655,-1919.33 753.484,-1894.42 750.756,-1872 746.563,-1837.53 710.067,-1329.11 699.569,-1182.37"/>
</g>
<!-- Portugal&#45;&#45;Marcelo Rebelo de Sousa -->
<g id="edge123" class="edge"><title>Portugal&#45;&#45;Marcelo Rebelo de Sousa</title>
<path fill="none" stroke="grey" stroke-width="1.98227" d="M776.171,-1939.26C793.249,-1853.17 838.851,-1640.13 902.756,-1470 908.639,-1454.34 915.744,-1438.09 923.114,-1422.49"/>
</g>
</g>
</svg>
