<?xml version="1.0" encoding="UTF-8" standalone="no"?>
<!DOCTYPE svg PUBLIC "-//W3C//DTD SVG 1.1//EN"
 "http://www.w3.org/Graphics/SVG/1.1/DTD/svg11.dtd">
<!-- Generated by graphviz version 2.36.0 (20140111.2315)
 -->
<!-- Title: Perl Pages: 1 -->
<svg width="684pt" height="1022pt"
 viewBox="0.00 0.00 684.00 1022.00" xmlns="http://www.w3.org/2000/svg" xmlns:xlink="http://www.w3.org/1999/xlink">
<g id="graph0" class="graph" transform="scale(1 1) rotate(0) translate(4 1018)">
<title>Perl</title>
<polygon fill="white" stroke="none" points="-4,4 -4,-1018 680,-1018 680,4 -4,4"/>
<text text-anchor="middle" x="338" y="-22.8" font-family="Times,serif" font-size="14.00">fuzzy named entity ontology</text>
<text text-anchor="middle" x="338" y="-7.8" font-family="Times,serif" font-size="14.00">Legenda: Verde &#45; Pessoas, Azul &#45; Cidades, Vermelho &#45; Datas, Castanho &#45; Paises, Amarelo &#45; Entidade Principal</text>
<!-- Bach -->
<g id="node1" class="node"><title>Bach</title>
<ellipse fill="yellow" stroke="yellow" cx="302" cy="-67" rx="28.3955" ry="28.6953"/>
<text text-anchor="middle" x="302" y="-63.3" font-family="Times,serif" font-size="14.00">Bach</text>
</g>
<!-- Atenas -->
<g id="node2" class="node"><title>Atenas</title>
<ellipse fill="blue" stroke="blue" cx="271" cy="-167" rx="35.1455" ry="35.194"/>
<text text-anchor="middle" x="271" y="-163.3" font-family="Times,serif" font-size="14.00">Atenas</text>
</g>
<!-- Atenas&#45;&#45;Bach -->
<g id="edge36" class="edge"><title>Atenas&#45;&#45;Bach</title>
<path fill="none" stroke="grey" stroke-width="0.477121" d="M281.323,-133.367C285.303,-120.784 289.798,-106.573 293.578,-94.6232"/>
</g>
<!-- 08/5 -->
<g id="node3" class="node"><title>08/5</title>
<ellipse fill="red" stroke="red" cx="503" cy="-265" rx="26.4705" ry="26.7961"/>
<text text-anchor="middle" x="503" y="-261.3" font-family="Times,serif" font-size="14.00">08/5</text>
</g>
<!-- 08/5&#45;&#45;Bach -->
<g id="edge35" class="edge"><title>08/5&#45;&#45;Bach</title>
<path fill="none" stroke="grey" stroke-width="0.30103" d="M484.451,-245.912C446.645,-209.047 360.968,-125.501 321.984,-87.4872"/>
</g>
<!-- 08/5&#45;&#45;Atenas -->
<g id="edge34" class="edge"><title>08/5&#45;&#45;Atenas</title>
<path fill="none" stroke="grey" stroke-width="0" d="M481.373,-249.073C475.261,-245.193 468.501,-241.206 462,-238 408.947,-211.833 343.551,-189.94 304.676,-177.931"/>
</g>
<!-- Bélgica -->
<g id="node4" class="node"><title>Bélgica</title>
<ellipse fill="brown" stroke="brown" cx="230" cy="-366" rx="37.5442" ry="37.8943"/>
<text text-anchor="middle" x="230" y="-362.3" font-family="Times,serif" font-size="14.00">Bélgica</text>
</g>
<!-- Bélgica&#45;&#45;Bach -->
<g id="edge31" class="edge"><title>Bélgica&#45;&#45;Bach</title>
<path fill="none" stroke="grey" stroke-width="0.30103" d="M220.475,-329.496C209.708,-282.05 197.262,-196.47 227,-132 237.324,-109.618 259.764,-92.1654 277.423,-81.1789"/>
</g>
<!-- Bélgica&#45;&#45;Atenas -->
<g id="edge32" class="edge"><title>Bélgica&#45;&#45;Atenas</title>
<path fill="none" stroke="grey" d="M237.52,-328.867C245.08,-292.544 256.64,-237 264.006,-201.603"/>
</g>
<!-- Bélgica&#45;&#45;08/5 -->
<g id="edge33" class="edge"><title>Bélgica&#45;&#45;08/5</title>
<path fill="none" stroke="grey" stroke-width="0" d="M264.853,-352.361C320.913,-332.031 429.746,-292.565 478.428,-274.911"/>
</g>
<!-- 2015/12 -->
<g id="node5" class="node"><title>2015/12</title>
<ellipse fill="red" stroke="red" cx="304" cy="-480" rx="39.4691" ry="39.7935"/>
<text text-anchor="middle" x="304" y="-476.3" font-family="Times,serif" font-size="14.00">2015/12</text>
</g>
<!-- 2015/12&#45;&#45;Bach -->
<g id="edge30" class="edge"><title>2015/12&#45;&#45;Bach</title>
<path fill="none" stroke="grey" stroke-width="0.30103" d="M308.533,-440.375C315.326,-376.181 326.214,-243.546 315,-132 313.764,-119.704 311.223,-106.276 308.714,-94.9092"/>
</g>
<!-- 2015/12&#45;&#45;Atenas -->
<g id="edge29" class="edge"><title>2015/12&#45;&#45;Atenas</title>
<path fill="none" stroke="grey" stroke-width="0" d="M299.92,-440.553C293.419,-379.285 280.812,-260.471 274.616,-202.075"/>
</g>
<!-- 2015/12&#45;&#45;08/5 -->
<g id="edge27" class="edge"><title>2015/12&#45;&#45;08/5</title>
<path fill="none" stroke="grey" stroke-width="0" d="M330.838,-450.274C372.213,-405.988 450.447,-322.25 485.381,-284.859"/>
</g>
<!-- 2015/12&#45;&#45;Bélgica -->
<g id="edge28" class="edge"><title>2015/12&#45;&#45;Bélgica</title>
<path fill="none" stroke="grey" stroke-width="0.30103" d="M282.596,-446.605C272.437,-431.229 260.358,-412.947 250.339,-397.783"/>
</g>
<!-- Thomas Bach -->
<g id="node6" class="node"><title>Thomas Bach</title>
<ellipse fill="green" stroke="green" cx="468" cy="-616" rx="59.1941" ry="59.5901"/>
<text text-anchor="middle" x="468" y="-612.3" font-family="Times,serif" font-size="14.00">Thomas Bach</text>
</g>
<!-- Thomas Bach&#45;&#45;Bach -->
<g id="edge26" class="edge"><title>Thomas Bach&#45;&#45;Bach</title>
<path fill="none" stroke="grey" stroke-width="0.30103" d="M499.301,-564.853C526.645,-516.188 562,-439.29 562,-367 562,-367 562,-367 562,-264 562,-148.4 396.087,-92.4164 329.333,-74.57"/>
</g>
<!-- Thomas Bach&#45;&#45;Atenas -->
<g id="edge25" class="edge"><title>Thomas Bach&#45;&#45;Atenas</title>
<path fill="none" stroke="grey" stroke-width="0" d="M469.03,-556.027C467.551,-476.601 454.507,-334.145 386,-238 365.791,-209.638 330.149,-190.577 303.885,-179.599"/>
</g>
<!-- Thomas Bach&#45;&#45;08/5 -->
<g id="edge22" class="edge"><title>Thomas Bach&#45;&#45;08/5</title>
<path fill="none" stroke="grey" stroke-width="0.30103" d="M473.898,-556.192C481.632,-479.069 494.869,-347.075 500.426,-291.671"/>
</g>
<!-- Thomas Bach&#45;&#45;Bélgica -->
<g id="edge24" class="edge"><title>Thomas Bach&#45;&#45;Bélgica</title>
<path fill="none" stroke="grey" stroke-width="0" d="M441.308,-562.272C420.585,-524.977 389.171,-475.494 352,-440 326.026,-415.198 290.167,-395.008 264.05,-382.198"/>
</g>
<!-- Thomas Bach&#45;&#45;2015/12 -->
<g id="edge23" class="edge"><title>Thomas Bach&#45;&#45;2015/12</title>
<path fill="none" stroke="grey" stroke-width="0" d="M422.317,-577.674C394.263,-554.751 359.101,-526.022 334.427,-505.861"/>
</g>
<!-- Alemanha -->
<g id="node7" class="node"><title>Alemanha</title>
<ellipse fill="brown" stroke="brown" cx="379" cy="-760" rx="47.169" ry="47.3916"/>
<text text-anchor="middle" x="379" y="-756.3" font-family="Times,serif" font-size="14.00">Alemanha</text>
</g>
<!-- Alemanha&#45;&#45;Bach -->
<g id="edge21" class="edge"><title>Alemanha&#45;&#45;Bach</title>
<path fill="none" stroke="grey" stroke-width="0.30103" d="M421.729,-739.185C440.21,-730.697 462.118,-720.744 482,-712 519.555,-695.483 541.558,-708.185 567,-676 621.509,-607.043 600,-568.899 600,-481 600,-481 600,-481 600,-264 600,-195.856 575.829,-173.785 522,-132 464.027,-86.998 375.346,-73.6197 330.331,-69.6572"/>
</g>
<!-- Alemanha&#45;&#45;Atenas -->
<g id="edge20" class="edge"><title>Alemanha&#45;&#45;Atenas</title>
<path fill="none" stroke="grey" stroke-width="1.11394" d="M377.767,-712.423C375.499,-649.978 369.193,-535.875 352,-440 335.556,-348.299 324.13,-326.816 296,-238 292.065,-225.575 287.343,-212.058 283.068,-200.245"/>
</g>
<!-- Alemanha&#45;&#45;08/5 -->
<g id="edge16" class="edge"><title>Alemanha&#45;&#45;08/5</title>
<path fill="none" stroke="grey" stroke-width="0" d="M425.186,-748.469C462.334,-737.301 512.134,-715.613 536,-676 613.021,-548.161 542.286,-355.786 513.717,-289.458"/>
</g>
<!-- Alemanha&#45;&#45;Bélgica -->
<g id="edge18" class="edge"><title>Alemanha&#45;&#45;Bélgica</title>
<path fill="none" stroke="grey" stroke-width="1.39794" d="M351.282,-721.073C341.744,-707.233 331.369,-691.236 323,-676 286.586,-609.709 276.375,-592.551 255,-520 243.552,-481.145 236.924,-435.095 233.405,-403.74"/>
</g>
<!-- Alemanha&#45;&#45;2015/12 -->
<g id="edge17" class="edge"><title>Alemanha&#45;&#45;2015/12</title>
<path fill="none" stroke="grey" stroke-width="0.30103" d="M366.867,-714.026C352.19,-659.626 327.756,-569.054 314.073,-518.336"/>
</g>
<!-- Alemanha&#45;&#45;Thomas Bach -->
<g id="edge19" class="edge"><title>Alemanha&#45;&#45;Thomas Bach</title>
<path fill="none" stroke="grey" stroke-width="0" d="M403.791,-719.445C413.975,-703.196 425.885,-684.194 436.663,-666.998"/>
</g>
<!-- Brasil -->
<g id="node8" class="node"><title>Brasil</title>
<ellipse fill="brown" stroke="brown" cx="266" cy="-876" rx="31.2735" ry="31.6951"/>
<text text-anchor="middle" x="266" y="-872.3" font-family="Times,serif" font-size="14.00">Brasil</text>
</g>
<!-- Brasil&#45;&#45;Bach -->
<g id="edge12" class="edge"><title>Brasil&#45;&#45;Bach</title>
<path fill="none" stroke="grey" stroke-width="0.30103" d="M242.376,-854.497C229.583,-842.204 214.496,-825.577 205,-808 176.204,-754.7 179.961,-735.915 171,-676 148.12,-523.025 149.774,-481.715 167,-328 176.891,-239.734 156.614,-205.823 206,-132 222.929,-106.694 253.599,-88.8762 275.724,-78.5759"/>
</g>
<!-- Brasil&#45;&#45;Atenas -->
<g id="edge10" class="edge"><title>Brasil&#45;&#45;Atenas</title>
<path fill="none" stroke="grey" stroke-width="0.477121" d="M253.704,-846.413C220.191,-764.559 132.998,-522.67 183,-328 195.974,-277.49 228.61,-225.828 250.282,-195.351"/>
</g>
<!-- Brasil&#45;&#45;08/5 -->
<g id="edge13" class="edge"><title>Brasil&#45;&#45;08/5</title>
<path fill="none" stroke="grey" stroke-width="0" d="M296.759,-869.193C385.885,-850.41 638,-782.641 638,-617 638,-617 638,-617 638,-479 638,-394.065 560.472,-315.538 522.92,-282.483"/>
</g>
<!-- Brasil&#45;&#45;Bélgica -->
<g id="edge15" class="edge"><title>Brasil&#45;&#45;Bélgica</title>
<path fill="none" stroke="grey" stroke-width="0.477121" d="M262.739,-844.176C256.355,-782.633 242.202,-640.115 235,-520 232.622,-480.339 231.316,-434.822 230.641,-403.815"/>
</g>
<!-- Brasil&#45;&#45;2015/12 -->
<g id="edge14" class="edge"><title>Brasil&#45;&#45;2015/12</title>
<path fill="none" stroke="grey" stroke-width="0.30103" d="M268.982,-844.083C275.84,-772.971 292.724,-597.917 300.261,-519.766"/>
</g>
<!-- Brasil&#45;&#45;Thomas Bach -->
<g id="edge11" class="edge"><title>Brasil&#45;&#45;Thomas Bach</title>
<path fill="none" stroke="grey" stroke-width="0" d="M297.254,-871.753C335.873,-865.988 400.672,-850.258 435,-808 464.917,-771.172 471.889,-716.971 472.116,-675.706"/>
</g>
<!-- Brasil&#45;&#45;Alemanha -->
<g id="edge9" class="edge"><title>Brasil&#45;&#45;Alemanha</title>
<path fill="none" stroke="grey" stroke-width="1.32222" d="M287.788,-853.02C304.334,-836.327 327.366,-813.091 346.145,-794.146"/>
</g>
<!-- Grécia -->
<g id="node9" class="node"><title>Grécia</title>
<ellipse fill="brown" stroke="brown" cx="228" cy="-979" rx="34.1708" ry="34.394"/>
<text text-anchor="middle" x="228" y="-975.3" font-family="Times,serif" font-size="14.00">Grécia</text>
</g>
<!-- Grécia&#45;&#45;Bach -->
<g id="edge8" class="edge"><title>Grécia&#45;&#45;Bach</title>
<path fill="none" stroke="grey" stroke-width="0.69897" d="M194.199,-973.53C154.189,-966.497 88.0749,-949.121 49,-908 1.56153,-858.077 0,-829.867 0,-761 0,-761 0,-761 0,-264 0,-133.99 199.367,-85.8556 274.13,-72.3759"/>
</g>
<!-- Grécia&#45;&#45;Atenas -->
<g id="edge7" class="edge"><title>Grécia&#45;&#45;Atenas</title>
<path fill="none" stroke="grey" stroke-width="2.16137" d="M195.664,-967.708C166.615,-956.977 124.561,-937.549 98,-908 50.8267,-855.519 38,-831.566 38,-761 38,-761 38,-761 38,-615 38,-434.004 83.8179,-383.107 192,-238 206.239,-218.901 226.388,-201.149 242.774,-188.3"/>
</g>
<!-- Grécia&#45;&#45;08/5 -->
<g id="edge1" class="edge"><title>Grécia&#45;&#45;08/5</title>
<path fill="none" stroke="grey" stroke-width="0.477121" d="M262.41,-977.24C367.315,-972.93 676,-944.646 676,-761 676,-761 676,-761 676,-479 676,-405.579 657.939,-382.732 609,-328 586.405,-302.731 550.987,-284.933 527.391,-275.075"/>
</g>
<!-- Grécia&#45;&#45;Bélgica -->
<g id="edge4" class="edge"><title>Grécia&#45;&#45;Bélgica</title>
<path fill="none" stroke="grey" stroke-width="1.30103" d="M200.825,-957.951C157.105,-923.154 76,-847.013 76,-761 76,-761 76,-761 76,-615 76,-520.733 157.296,-432.53 201.754,-391.342"/>
</g>
<!-- Grécia&#45;&#45;2015/12 -->
<g id="edge3" class="edge"><title>Grécia&#45;&#45;2015/12</title>
<path fill="none" stroke="grey" stroke-width="0.30103" d="M225.036,-944.6C223.158,-917.44 221.652,-878.159 225,-844 237.727,-714.139 250.938,-682.732 282,-556 285.036,-543.611 288.809,-530.209 292.368,-518.207"/>
</g>
<!-- Grécia&#45;&#45;Thomas Bach -->
<g id="edge6" class="edge"><title>Grécia&#45;&#45;Thomas Bach</title>
<path fill="none" stroke="grey" stroke-width="0.30103" d="M260.263,-966.746C315.111,-945.605 424.697,-894.157 467,-808 487.241,-766.774 485.874,-714.251 480.354,-674.721"/>
</g>
<!-- Grécia&#45;&#45;Alemanha -->
<g id="edge5" class="edge"><title>Grécia&#45;&#45;Alemanha</title>
<path fill="none" stroke="grey" stroke-width="1.79239" d="M255.309,-957.801C271.485,-944.858 291.572,-926.973 306,-908 330.147,-876.246 349.716,-835.26 362.492,-804.635"/>
</g>
<!-- Grécia&#45;&#45;Brasil -->
<g id="edge2" class="edge"><title>Grécia&#45;&#45;Brasil</title>
<path fill="none" stroke="grey" stroke-width="1.11394" d="M239.815,-946.597C244.695,-933.625 250.317,-918.683 255.098,-905.976"/>
</g>
</g>
</svg>
