<?xml version="1.0" encoding="UTF-8" standalone="no"?>
<!DOCTYPE svg PUBLIC "-//W3C//DTD SVG 1.1//EN"
 "http://www.w3.org/Graphics/SVG/1.1/DTD/svg11.dtd">
<!-- Generated by graphviz version 2.36.0 (20140111.2315)
 -->
<!-- Title: Perl Pages: 1 -->
<svg width="664pt" height="1022pt"
 viewBox="0.00 0.00 664.00 1022.00" xmlns="http://www.w3.org/2000/svg" xmlns:xlink="http://www.w3.org/1999/xlink">
<g id="graph0" class="graph" transform="scale(1 1) rotate(0) translate(4 1018)">
<title>Perl</title>
<polygon fill="white" stroke="none" points="-4,4 -4,-1018 660,-1018 660,4 -4,4"/>
<text text-anchor="middle" x="328" y="-22.8" font-family="Times,serif" font-size="14.00">fuzzy named entity ontology</text>
<text text-anchor="middle" x="328" y="-7.8" font-family="Times,serif" font-size="14.00">Legenda: Verde &#45; Pessoas, Azul &#45; Cidades, Vermelho &#45; Datas, Castanho &#45; Paises, Amarelo &#45; Entidade Principal</text>
<!-- Bach -->
<g id="node1" class="node"><title>Bach</title>
<ellipse fill="yellow" stroke="yellow" cx="323" cy="-427" rx="28.3955" ry="28.6953"/>
<text text-anchor="middle" x="323" y="-423.3" font-family="Times,serif" font-size="14.00">Bach</text>
</g>
<!-- 2015/12 -->
<g id="node2" class="node"><title>2015/12</title>
<ellipse fill="red" stroke="red" cx="436" cy="-322" rx="39.4691" ry="39.7935"/>
<text text-anchor="middle" x="436" y="-318.3" font-family="Times,serif" font-size="14.00">2015/12</text>
</g>
<!-- Bach&#45;&#45;2015/12 -->
<g id="edge31" class="edge"><title>Bach&#45;&#45;2015/12</title>
<path fill="none" stroke="grey" stroke-width="0.2" d="M343.726,-407.108C361.566,-390.847 387.49,-367.217 407.321,-349.141"/>
</g>
<!-- Bélgica -->
<g id="node3" class="node"><title>Bélgica</title>
<ellipse fill="brown" stroke="brown" cx="240" cy="-208" rx="37.5442" ry="37.8943"/>
<text text-anchor="middle" x="240" y="-204.3" font-family="Times,serif" font-size="14.00">Bélgica</text>
</g>
<!-- Bach&#45;&#45;Bélgica -->
<g id="edge33" class="edge"><title>Bach&#45;&#45;Bélgica</title>
<path fill="none" stroke="grey" stroke-width="0.2" d="M312.988,-399.825C298.027,-360.709 269.82,-286.963 253.194,-243.494"/>
</g>
<!-- Alemanha -->
<g id="node6" class="node"><title>Alemanha</title>
<ellipse fill="brown" stroke="brown" cx="285" cy="-86" rx="47.169" ry="47.3916"/>
<text text-anchor="middle" x="285" y="-82.3" font-family="Times,serif" font-size="14.00">Alemanha</text>
</g>
<!-- Bach&#45;&#45;Alemanha -->
<g id="edge32" class="edge"><title>Bach&#45;&#45;Alemanha</title>
<path fill="none" stroke="grey" stroke-width="0.2" d="M319.922,-398.545C313.42,-340.539 298.224,-204.972 290.19,-133.304"/>
</g>
<!-- 2015/12&#45;&#45;Bélgica -->
<g id="edge35" class="edge"><title>2015/12&#45;&#45;Bélgica</title>
<path fill="none" stroke="grey" stroke-width="0.2" d="M404.85,-297.291C397.5,-292.039 389.591,-286.656 382,-282 346.202,-260.044 303.042,-238.508 273.772,-224.585"/>
</g>
<!-- 2015/12&#45;&#45;Alemanha -->
<g id="edge34" class="edge"><title>2015/12&#45;&#45;Alemanha</title>
<path fill="none" stroke="grey" stroke-width="0.2" d="M415.004,-288.463C387.614,-246.017 339.731,-171.814 310.348,-126.282"/>
</g>
<!-- Bélgica&#45;&#45;Alemanha -->
<g id="edge36" class="edge"><title>Bélgica&#45;&#45;Alemanha</title>
<path fill="none" stroke="grey" stroke-width="2.5" d="M252.895,-172.613C257.778,-159.592 263.403,-144.591 268.568,-130.819"/>
</g>
<!-- Atenas -->
<g id="node4" class="node"><title>Atenas</title>
<ellipse fill="blue" stroke="blue" cx="405" cy="-633" rx="35.1455" ry="35.194"/>
<text text-anchor="middle" x="405" y="-629.3" font-family="Times,serif" font-size="14.00">Atenas</text>
</g>
<!-- Atenas&#45;&#45;Bach -->
<g id="edge23" class="edge"><title>Atenas&#45;&#45;Bach</title>
<path fill="none" stroke="grey" stroke-width="0.3" d="M391.755,-600.334C386.772,-588.343 381.085,-574.559 376,-562 360.837,-524.55 343.713,-481.021 333.136,-453.988"/>
</g>
<!-- Atenas&#45;&#45;2015/12 -->
<g id="edge22" class="edge"><title>Atenas&#45;&#45;2015/12</title>
<path fill="none" stroke="grey" stroke-width="0.1" d="M408.406,-598.048C414.21,-540.197 425.981,-422.869 432.103,-361.844"/>
</g>
<!-- Atenas&#45;&#45;Bélgica -->
<g id="edge24" class="edge"><title>Atenas&#45;&#45;Bélgica</title>
<path fill="none" stroke="grey" d="M401.685,-597.835C396.463,-551.496 384.31,-466.632 360,-398 340.482,-342.897 330.091,-330.862 298,-282 287.781,-266.441 275.039,-250.129 264.103,-236.881"/>
</g>
<!-- Grécia -->
<g id="node5" class="node"><title>Grécia</title>
<ellipse fill="brown" stroke="brown" cx="214" cy="-527" rx="34.1708" ry="34.394"/>
<text text-anchor="middle" x="214" y="-523.3" font-family="Times,serif" font-size="14.00">Grécia</text>
</g>
<!-- Atenas&#45;&#45;Grécia -->
<g id="edge25" class="edge"><title>Atenas&#45;&#45;Grécia</title>
<path fill="none" stroke="grey" stroke-width="14.5" d="M374.313,-615.291C338.459,-595.768 279.529,-563.681 243.982,-544.325"/>
</g>
<!-- Atenas&#45;&#45;Alemanha -->
<g id="edge26" class="edge"><title>Atenas&#45;&#45;Alemanha</title>
<path fill="none" stroke="grey" stroke-width="1.3" d="M427.465,-605.616C456.674,-568.526 504,-497.679 504,-428 504,-428 504,-428 504,-321 504,-218.62 390.864,-142.526 327.225,-107.822"/>
</g>
<!-- Grécia&#45;&#45;Bach -->
<g id="edge29" class="edge"><title>Grécia&#45;&#45;Bach</title>
<path fill="none" stroke="grey" stroke-width="0.5" d="M239.281,-503.271C258.399,-486.081 284.329,-462.769 302.241,-446.664"/>
</g>
<!-- Grécia&#45;&#45;2015/12 -->
<g id="edge30" class="edge"><title>Grécia&#45;&#45;2015/12</title>
<path fill="none" stroke="grey" stroke-width="0.2" d="M225.246,-494.383C236.631,-466.13 256.614,-425.124 285,-398 317.484,-366.959 365.302,-346.178 398.386,-334.513"/>
</g>
<!-- Grécia&#45;&#45;Bélgica -->
<g id="edge28" class="edge"><title>Grécia&#45;&#45;Bélgica</title>
<path fill="none" stroke="grey" stroke-width="2" d="M216.758,-492.376C221.672,-432.462 231.903,-307.72 236.992,-245.678"/>
</g>
<!-- Grécia&#45;&#45;Alemanha -->
<g id="edge27" class="edge"><title>Grécia&#45;&#45;Alemanha</title>
<path fill="none" stroke="grey" stroke-width="6.2" d="M202.796,-494.28C182.003,-429.893 143.823,-280.599 193,-170 203.75,-145.823 225.408,-125.718 245.011,-111.353"/>
</g>
<!-- 08/5 -->
<g id="node7" class="node"><title>08/5</title>
<ellipse fill="red" stroke="red" cx="284" cy="-887" rx="26.4705" ry="26.7961"/>
<text text-anchor="middle" x="284" y="-883.3" font-family="Times,serif" font-size="14.00">08/5</text>
</g>
<!-- 08/5&#45;&#45;Bach -->
<g id="edge9" class="edge"><title>08/5&#45;&#45;Bach</title>
<path fill="none" stroke="grey" stroke-width="0.2" d="M282.868,-860.341C281.571,-825.065 280.089,-759.632 284,-704 290.448,-612.28 308.808,-504.675 317.846,-455.287"/>
</g>
<!-- 08/5&#45;&#45;2015/12 -->
<g id="edge11" class="edge"><title>08/5&#45;&#45;2015/12</title>
<path fill="none" stroke="grey" stroke-width="0.1" d="M310.341,-885.239C349.999,-882.529 424.203,-871.054 460,-824 574.666,-673.273 517.82,-581.249 470,-398 466.39,-384.167 460.413,-369.697 454.468,-357.198"/>
</g>
<!-- 08/5&#45;&#45;Bélgica -->
<g id="edge15" class="edge"><title>08/5&#45;&#45;Bélgica</title>
<path fill="none" stroke="grey" stroke-width="0.1" d="M263.365,-869.907C250.012,-858.455 233.264,-841.961 223,-824 163.198,-719.353 168.689,-681.503 153,-562 136.771,-438.387 115.214,-393.991 170,-282 179.491,-262.6 196.021,-244.99 210.635,-231.928"/>
</g>
<!-- 08/5&#45;&#45;Atenas -->
<g id="edge10" class="edge"><title>08/5&#45;&#45;Atenas</title>
<path fill="none" stroke="grey" stroke-width="0.1" d="M284.409,-860.303C286.073,-823.255 293.295,-753.821 323,-704 335.749,-682.617 357.384,-664.559 375.23,-652.142"/>
</g>
<!-- 08/5&#45;&#45;Grécia -->
<g id="edge12" class="edge"><title>08/5&#45;&#45;Grécia</title>
<path fill="none" stroke="grey" stroke-width="0.3" d="M270.327,-864.134C263.748,-852.609 256.36,-837.993 252,-824 223.331,-731.996 216.261,-617.429 214.539,-561.654"/>
</g>
<!-- 08/5&#45;&#45;Alemanha -->
<g id="edge13" class="edge"><title>08/5&#45;&#45;Alemanha</title>
<path fill="none" stroke="grey" stroke-width="0.1" d="M259.197,-877.902C233.844,-868.511 194.773,-850.802 170,-824 72.2282,-718.22 38,-672.044 38,-528 38,-528 38,-528 38,-321 38,-210.244 170.501,-136.201 241.41,-104.506"/>
</g>
<!-- Thomas Bach -->
<g id="node9" class="node"><title>Thomas Bach</title>
<ellipse fill="green" stroke="green" cx="392" cy="-764" rx="59.1941" ry="59.5901"/>
<text text-anchor="middle" x="392" y="-760.3" font-family="Times,serif" font-size="14.00">Thomas Bach</text>
</g>
<!-- 08/5&#45;&#45;Thomas Bach -->
<g id="edge14" class="edge"><title>08/5&#45;&#45;Thomas Bach</title>
<path fill="none" stroke="grey" stroke-width="0.2" d="M301.352,-866.559C315.186,-851.061 335.094,-828.755 352.733,-808.994"/>
</g>
<!-- Brasil -->
<g id="node8" class="node"><title>Brasil</title>
<ellipse fill="brown" stroke="brown" cx="329" cy="-982" rx="31.2735" ry="31.6951"/>
<text text-anchor="middle" x="329" y="-978.3" font-family="Times,serif" font-size="14.00">Brasil</text>
</g>
<!-- Brasil&#45;&#45;Bach -->
<g id="edge7" class="edge"><title>Brasil&#45;&#45;Bach</title>
<path fill="none" stroke="grey" stroke-width="0.2" d="M357.943,-968.338C381.395,-956.903 414.04,-938.171 436,-914 500.186,-843.351 494.943,-798.428 481,-704 465.67,-600.177 440.41,-575.627 377,-492 365.757,-477.172 352.257,-461.172 341.568,-448.879"/>
</g>
<!-- Brasil&#45;&#45;2015/12 -->
<g id="edge5" class="edge"><title>Brasil&#45;&#45;2015/12</title>
<path fill="none" stroke="grey" stroke-width="0.2" d="M360.058,-975.825C441.683,-960.272 656,-906.009 656,-765 656,-765 656,-765 656,-526 656,-427.517 535.452,-363.602 472.823,-337.041"/>
</g>
<!-- Brasil&#45;&#45;Bélgica -->
<g id="edge2" class="edge"><title>Brasil&#45;&#45;Bélgica</title>
<path fill="none" stroke="grey" stroke-width="0.3" d="M298.984,-971.449C231.967,-948.038 76,-881.086 76,-765 76,-765 76,-765 76,-526 76,-414.218 73.9197,-374.283 137,-282 154.316,-256.668 183.497,-237.211 206.387,-224.779"/>
</g>
<!-- Brasil&#45;&#45;Atenas -->
<g id="edge6" class="edge"><title>Brasil&#45;&#45;Atenas</title>
<path fill="none" stroke="grey" stroke-width="0.3" d="M353.417,-961.566C385.083,-934.623 438.773,-882.573 460,-824 478.172,-773.858 477.433,-754.404 460,-704 453.988,-686.618 441.681,-670.271 430.231,-657.751"/>
</g>
<!-- Brasil&#45;&#45;Grécia -->
<g id="edge3" class="edge"><title>Brasil&#45;&#45;Grécia</title>
<path fill="none" stroke="grey" stroke-width="1.3" d="M301.971,-964.886C284.17,-952.949 261.703,-935.13 248,-914 175.432,-802.101 194.869,-632.024 207.331,-560.984"/>
</g>
<!-- Brasil&#45;&#45;Alemanha -->
<g id="edge4" class="edge"><title>Brasil&#45;&#45;Alemanha</title>
<path fill="none" stroke="grey" stroke-width="2.1" d="M298.048,-975.946C216.148,-960.631 0,-906.781 0,-765 0,-765 0,-765 0,-321 0,-248.785 8.30654,-220.426 60,-170 109.027,-122.175 187.951,-101.541 238.106,-92.901"/>
</g>
<!-- Brasil&#45;&#45;08/5 -->
<g id="edge8" class="edge"><title>Brasil&#45;&#45;08/5</title>
<path fill="none" stroke="grey" stroke-width="0.1" d="M315.499,-953.097C309.026,-939.721 301.365,-923.887 295.218,-911.185"/>
</g>
<!-- Brasil&#45;&#45;Thomas Bach -->
<g id="edge1" class="edge"><title>Brasil&#45;&#45;Thomas Bach</title>
<path fill="none" stroke="grey" stroke-width="0.1" d="M337.76,-950.966C347.497,-917.581 363.442,-862.914 375.53,-821.469"/>
</g>
<!-- Thomas Bach&#45;&#45;Bach -->
<g id="edge21" class="edge"><title>Thomas Bach&#45;&#45;Bach</title>
<path fill="none" stroke="grey" stroke-width="0.2" d="M372.232,-707.411C368.124,-694.578 364.106,-680.903 361,-668 342.735,-592.124 331.024,-500.577 325.933,-455.633"/>
</g>
<!-- Thomas Bach&#45;&#45;2015/12 -->
<g id="edge20" class="edge"><title>Thomas Bach&#45;&#45;2015/12</title>
<path fill="none" stroke="grey" stroke-width="0.1" d="M427.289,-715.524C436.149,-701.006 444.431,-684.497 449,-668 478.959,-559.838 458.136,-425.326 444.791,-360.879"/>
</g>
<!-- Thomas Bach&#45;&#45;Bélgica -->
<g id="edge16" class="edge"><title>Thomas Bach&#45;&#45;Bélgica</title>
<path fill="none" stroke="grey" stroke-width="0.1" d="M339.825,-735.1C284.839,-702.209 201.989,-641.767 171,-562 127.131,-449.08 189.376,-304.583 222.099,-241.216"/>
</g>
<!-- Thomas Bach&#45;&#45;Atenas -->
<g id="edge19" class="edge"><title>Thomas Bach&#45;&#45;Atenas</title>
<path fill="none" stroke="grey" stroke-width="0.1" d="M397.929,-704.162C399.175,-691.803 400.449,-679.164 401.566,-668.079"/>
</g>
<!-- Thomas Bach&#45;&#45;Grécia -->
<g id="edge17" class="edge"><title>Thomas Bach&#45;&#45;Grécia</title>
<path fill="none" stroke="grey" stroke-width="0.2" d="M356.407,-716.009C319.782,-667.656 264.008,-594.022 234.296,-554.796"/>
</g>
<!-- Thomas Bach&#45;&#45;Alemanha -->
<g id="edge18" class="edge"><title>Thomas Bach&#45;&#45;Alemanha</title>
<path fill="none" stroke="grey" stroke-width="0.1" d="M434.274,-721.385C447.733,-705.852 461.356,-687.277 470,-668 540.732,-510.255 555.895,-450.672 518,-282 505.929,-228.269 504.133,-208.746 465,-170 427.586,-132.956 370.599,-110.544 330.798,-98.5061"/>
</g>
</g>
</svg>
