<?xml version="1.0" encoding="UTF-8" standalone="no"?>
<!DOCTYPE svg PUBLIC "-//W3C//DTD SVG 1.1//EN"
 "http://www.w3.org/Graphics/SVG/1.1/DTD/svg11.dtd">
<!-- Generated by graphviz version 2.36.0 (20140111.2315)
 -->
<!-- Title: Perl Pages: 1 -->
<svg width="695pt" height="1078pt"
 viewBox="0.00 0.00 695.21 1078.00" xmlns="http://www.w3.org/2000/svg" xmlns:xlink="http://www.w3.org/1999/xlink">
<g id="graph0" class="graph" transform="scale(1 1) rotate(0) translate(4 1074)">
<title>Perl</title>
<polygon fill="white" stroke="none" points="-4,4 -4,-1074 691.214,-1074 691.214,4 -4,4"/>
<text text-anchor="middle" x="343.607" y="-22.8" font-family="Times,serif" font-size="14.00">fuzzy named entity ontology</text>
<text text-anchor="middle" x="343.607" y="-7.8" font-family="Times,serif" font-size="14.00">Legenda: Verde &#45; Pessoas, Azul &#45; Cidades, Vermelho &#45; Datas, Castanho &#45; Paises, Amarelo &#45; Entidade Principal</text>
<!-- Luanda -->
<g id="node1" class="node"><title>Luanda</title>
<ellipse fill="yellow" stroke="yellow" cx="290" cy="-793" rx="37.0701" ry="37.0935"/>
<text text-anchor="middle" x="290" y="-789.3" font-family="Times,serif" font-size="14.00">Luanda</text>
</g>
<!-- Portugal -->
<g id="node3" class="node"><title>Portugal</title>
<ellipse fill="brown" stroke="brown" cx="646" cy="-405" rx="39.9464" ry="40.0939"/>
<text text-anchor="middle" x="646" y="-401.3" font-family="Times,serif" font-size="14.00">Portugal</text>
</g>
<!-- Luanda&#45;&#45;Portugal -->
<g id="edge8" class="edge"><title>Luanda&#45;&#45;Portugal</title>
<path fill="none" stroke="grey" stroke-width="2.42813" d="M326.115,-784.586C397.622,-768.617 555.393,-723.172 622,-614 653.396,-562.54 650.298,-490.033 646.77,-445.624"/>
</g>
<!-- Luanda&#45;&#45;Portugal -->
<g id="edge39" class="edge"><title>Luanda&#45;&#45;Portugal</title>
<path fill="none" stroke="grey" stroke-width="2.42813" d="M326.536,-786.542C401.436,-772.525 570.437,-728.018 640,-614 671.962,-561.613 668.175,-487.413 659.354,-443.251"/>
</g>
<!-- Espanha -->
<g id="node4" class="node"><title>Espanha</title>
<ellipse fill="brown" stroke="brown" cx="401" cy="-287" rx="39.9464" ry="40.0939"/>
<text text-anchor="middle" x="401" y="-283.3" font-family="Times,serif" font-size="14.00">Espanha</text>
</g>
<!-- Luanda&#45;&#45;Espanha -->
<g id="edge9" class="edge"><title>Luanda&#45;&#45;Espanha</title>
<path fill="none" stroke="grey" stroke-width="1.51851" d="M292.621,-755.876C304.206,-682.127 341.086,-508.968 374,-364 377.002,-350.777 380.406,-336.288 383.975,-323.539"/>
</g>
<!-- Luanda&#45;&#45;Espanha -->
<g id="edge38" class="edge"><title>Luanda&#45;&#45;Espanha</title>
<path fill="none" stroke="grey" stroke-width="1.51851" d="M302.082,-757.832C321.545,-685.23 358.791,-510.265 392,-364 394.702,-352.099 397.729,-339.173 400.127,-327.413"/>
</g>
<!-- 04/25 -->
<g id="node5" class="node"><title>04/25</title>
<ellipse fill="red" stroke="red" cx="362" cy="-69" rx="30.3206" ry="30.5947"/>
<text text-anchor="middle" x="362" y="-65.3" font-family="Times,serif" font-size="14.00">04/25</text>
</g>
<!-- Luanda&#45;&#45;04/25 -->
<g id="edge10" class="edge"><title>Luanda&#45;&#45;04/25</title>
<path fill="none" stroke="grey" stroke-width="0.954243" d="M264.569,-765.672C215.149,-705.607 112,-552.311 112,-406 112,-406 112,-406 112,-286 112,-170.819 266.541,-101.597 332.738,-78.5883"/>
</g>
<!-- Luanda&#45;&#45;04/25 -->
<g id="edge36" class="edge"><title>Luanda&#45;&#45;04/25</title>
<path fill="none" stroke="grey" stroke-width="0.954243" d="M270.809,-760.994C228.056,-697.946 130,-548.653 130,-406 130,-406 130,-406 130,-286 130,-175.595 271.991,-107.417 333.925,-81.6887"/>
</g>
<!-- Estados Unidos -->
<g id="node6" class="node"><title>Estados Unidos</title>
<ellipse fill="brown" stroke="brown" cx="504" cy="-548" rx="65.4659" ry="65.7887"/>
<text text-anchor="middle" x="504" y="-544.3" font-family="Times,serif" font-size="14.00">Estados Unidos</text>
</g>
<!-- Luanda&#45;&#45;Estados Unidos -->
<g id="edge11" class="edge"><title>Luanda&#45;&#45;Estados Unidos</title>
<path fill="none" stroke="grey" stroke-width="1.90309" d="M322.199,-774.161C345.627,-761.651 376.761,-743.062 399,-720 430.668,-687.16 455.487,-641.848 473.24,-606.118"/>
</g>
<!-- Luanda&#45;&#45;Estados Unidos -->
<g id="edge37" class="edge"><title>Luanda&#45;&#45;Estados Unidos</title>
<path fill="none" stroke="grey" stroke-width="1.90309" d="M324.749,-780.077C352.635,-767.924 390.929,-747.035 417,-720 447.132,-688.753 471.063,-646.215 486.383,-611.383"/>
</g>
<!-- Angola -->
<g id="node7" class="node"><title>Angola</title>
<ellipse fill="blue" stroke="blue" cx="362" cy="-173" rx="36.096" ry="36.2938"/>
<text text-anchor="middle" x="362" y="-169.3" font-family="Times,serif" font-size="14.00">Angola</text>
</g>
<!-- Luanda&#45;&#45;Angola -->
<g id="edge12" class="edge"><title>Luanda&#45;&#45;Angola</title>
<path fill="none" stroke="grey" stroke-width="3.42716" d="M271.709,-760.324C251.868,-714.465 224,-626.565 224,-549 224,-549 224,-549 224,-404 224,-318.158 293.201,-234.68 333.77,-196.152"/>
</g>
<!-- Luanda&#45;&#45;Angola -->
<g id="edge34" class="edge"><title>Luanda&#45;&#45;Angola</title>
<path fill="none" stroke="grey" stroke-width="3.42716" d="M282.376,-756.384C268.333,-709.562 242,-624.399 242,-549 242,-549 242,-549 242,-404 242,-322.279 304.717,-242.699 339.639,-202.006"/>
</g>
<!-- Lisboa -->
<g id="node8" class="node"><title>Lisboa</title>
<ellipse fill="yellow" stroke="yellow" cx="365" cy="-685" rx="34.1708" ry="34.394"/>
<text text-anchor="middle" x="365" y="-681.3" font-family="Times,serif" font-size="14.00">Lisboa</text>
</g>
<!-- Luanda&#45;&#45;Lisboa -->
<g id="edge13" class="edge"><title>Luanda&#45;&#45;Lisboa</title>
<path fill="none" stroke="grey" stroke-width="1.90849" d="M306.636,-759.621C317.068,-743.791 330.487,-725.053 341.915,-710.443"/>
</g>
<!-- Luanda&#45;&#45;Lisboa -->
<g id="edge35" class="edge"><title>Luanda&#45;&#45;Lisboa</title>
<path fill="none" stroke="grey" stroke-width="1.90849" d="M314.878,-765.252C326.457,-750.287 339.756,-731.586 349.852,-716.11"/>
</g>
<!-- Marcelo Rebelo de Sousa -->
<g id="node2" class="node"><title>Marcelo Rebelo de Sousa</title>
<ellipse fill="green" stroke="green" cx="290" cy="-968" rx="102.061" ry="102.082"/>
<text text-anchor="middle" x="290" y="-964.3" font-family="Times,serif" font-size="14.00">Marcelo Rebelo de Sousa</text>
</g>
<!-- Marcelo Rebelo de Sousa&#45;&#45;Luanda -->
<g id="edge1" class="edge"><title>Marcelo Rebelo de Sousa&#45;&#45;Luanda</title>
<path fill="none" stroke="grey" stroke-width="0" d="M283.334,-866.115C283.485,-853.215 283.841,-840.754 284.403,-829.924"/>
</g>
<!-- Marcelo Rebelo de Sousa&#45;&#45;Luanda -->
<g id="edge33" class="edge"><title>Marcelo Rebelo de Sousa&#45;&#45;Luanda</title>
<path fill="none" stroke="grey" stroke-width="0" d="M296.666,-866.115C296.515,-853.215 296.159,-840.754 295.597,-829.924"/>
</g>
<!-- Marcelo Rebelo de Sousa&#45;&#45;Portugal -->
<g id="edge6" class="edge"><title>Marcelo Rebelo de Sousa&#45;&#45;Portugal</title>
<path fill="none" stroke="grey" stroke-width="1.8451" d="M377.795,-915.433C470.64,-857.01 610.155,-751.73 659,-614 679.026,-557.53 664.098,-487.446 653.365,-444.756"/>
</g>
<!-- Marcelo Rebelo de Sousa&#45;&#45;Portugal -->
<g id="edge27" class="edge"><title>Marcelo Rebelo de Sousa&#45;&#45;Portugal</title>
<path fill="none" stroke="grey" stroke-width="1.8451" d="M381.002,-921.45C478.669,-864.409 626.43,-756.596 677,-614 697.694,-555.648 681.064,-482.759 664.989,-440.58"/>
</g>
<!-- Marcelo Rebelo de Sousa&#45;&#45;Espanha -->
<g id="edge5" class="edge"><title>Marcelo Rebelo de Sousa&#45;&#45;Espanha</title>
<path fill="none" stroke="grey" stroke-width="0.69897" d="M246.133,-875.508C241.516,-860.497 237.584,-844.958 235,-830 221.381,-751.163 217.212,-728.432 233,-650 259.142,-520.125 336.239,-380.326 376.458,-319.384"/>
</g>
<!-- Marcelo Rebelo de Sousa&#45;&#45;Espanha -->
<g id="edge28" class="edge"><title>Marcelo Rebelo de Sousa&#45;&#45;Espanha</title>
<path fill="none" stroke="grey" stroke-width="0.69897" d="M262.183,-869.528C258.499,-856.398 255.242,-842.98 253,-830 239.381,-751.163 235.212,-728.432 251,-650 276.533,-523.154 350.671,-386.839 384.399,-323.774"/>
</g>
<!-- Marcelo Rebelo de Sousa&#45;&#45;04/25 -->
<g id="edge2" class="edge"><title>Marcelo Rebelo de Sousa&#45;&#45;04/25</title>
<path fill="none" stroke="grey" stroke-width="0.954243" d="M196.658,-925.947C111.833,-880.094 0,-797.422 0,-686 0,-686 0,-686 0,-286 0,-132.785 244.947,-84.9458 331.958,-73.2408"/>
</g>
<!-- Marcelo Rebelo de Sousa&#45;&#45;04/25 -->
<g id="edge30" class="edge"><title>Marcelo Rebelo de Sousa&#45;&#45;04/25</title>
<path fill="none" stroke="grey" stroke-width="0.954243" d="M199.914,-920.005C120.68,-873.133 18,-792.765 18,-686 18,-686 18,-686 18,-286 18,-137.455 248.243,-87.96 332.091,-74.4138"/>
</g>
<!-- Marcelo Rebelo de Sousa&#45;&#45;Estados Unidos -->
<g id="edge7" class="edge"><title>Marcelo Rebelo de Sousa&#45;&#45;Estados Unidos</title>
<path fill="none" stroke="grey" stroke-width="0" d="M348.23,-883.939C381.304,-837.839 421.217,-778.189 448,-720 463.963,-685.32 475.489,-644.116 484.154,-610.845"/>
</g>
<!-- Marcelo Rebelo de Sousa&#45;&#45;Estados Unidos -->
<g id="edge29" class="edge"><title>Marcelo Rebelo de Sousa&#45;&#45;Estados Unidos</title>
<path fill="none" stroke="grey" stroke-width="0" d="M358.08,-891.9C394.582,-844.833 437.647,-781.598 466,-720 481.512,-686.299 492.835,-646.437 499.536,-613.681"/>
</g>
<!-- Marcelo Rebelo de Sousa&#45;&#45;Angola -->
<g id="edge3" class="edge"><title>Marcelo Rebelo de Sousa&#45;&#45;Angola</title>
<path fill="none" stroke="grey" stroke-width="0.778151" d="M203.288,-913.822C136.631,-863.582 56,-781.776 56,-686 56,-686 56,-686 56,-547 56,-390.438 129.242,-357.646 239,-246 264.601,-219.959 301.333,-198.919 328.16,-186.455"/>
</g>
<!-- Marcelo Rebelo de Sousa&#45;&#45;Angola -->
<g id="edge32" class="edge"><title>Marcelo Rebelo de Sousa&#45;&#45;Angola</title>
<path fill="none" stroke="grey" stroke-width="0.778151" d="M208.405,-906.481C147.183,-855.811 74,-777.245 74,-686 74,-686 74,-686 74,-547 74,-390.438 147.242,-357.646 257,-246 278.826,-223.798 308.744,-205.232 331.192,-192.516"/>
</g>
<!-- Marcelo Rebelo de Sousa&#45;&#45;Lisboa -->
<g id="edge4" class="edge"><title>Marcelo Rebelo de Sousa&#45;&#45;Lisboa</title>
<path fill="none" stroke="grey" d="M315.616,-869.045C319.655,-855.992 323.597,-842.725 327,-830 337.246,-791.691 345.744,-746.791 352.855,-717.442"/>
</g>
<!-- Marcelo Rebelo de Sousa&#45;&#45;Lisboa -->
<g id="edge31" class="edge"><title>Marcelo Rebelo de Sousa&#45;&#45;Lisboa</title>
<path fill="none" stroke="grey" d="M331.648,-874.623C336.517,-859.794 341.111,-844.543 345,-830 355.015,-792.553 363.361,-748.809 366.605,-719.447"/>
</g>
<!-- Portugal&#45;&#45;Espanha -->
<g id="edge22" class="edge"><title>Portugal&#45;&#45;Espanha</title>
<path fill="none" stroke="grey" stroke-width="1.92942" d="M608.973,-388.716C562.004,-367.675 481.887,-329.806 435.934,-306.978"/>
</g>
<!-- Portugal&#45;&#45;Espanha -->
<g id="edge48" class="edge"><title>Portugal&#45;&#45;Espanha</title>
<path fill="none" stroke="grey" stroke-width="1.92942" d="M610.971,-384.975C565.034,-362.157 485.071,-324.361 438.121,-303.327"/>
</g>
<!-- Portugal&#45;&#45;04/25 -->
<g id="edge23" class="edge"><title>Portugal&#45;&#45;04/25</title>
<path fill="none" stroke="grey" stroke-width="2.04139" d="M647.764,-364.446C653.244,-306.818 659.674,-199.722 604,-136 575.762,-103.681 450.56,-82.9143 392.049,-74.4036"/>
</g>
<!-- Portugal&#45;&#45;04/25 -->
<g id="edge49" class="edge"><title>Portugal&#45;&#45;04/25</title>
<path fill="none" stroke="grey" stroke-width="2.04139" d="M658.962,-366.812C671.054,-309.793 678.445,-200.604 622,-136 592.206,-101.899 454.464,-80.6602 392.297,-73.1082"/>
</g>
<!-- Portugal&#45;&#45;Angola -->
<g id="edge24" class="edge"><title>Portugal&#45;&#45;Angola</title>
<path fill="none" stroke="grey" stroke-width="3.47567" d="M618.557,-375.508C589.715,-341.515 542.267,-284.46 492,-246 461.243,-222.467 421.658,-202.824 394.155,-190.032"/>
</g>
<!-- Portugal&#45;&#45;Angola -->
<g id="edge50" class="edge"><title>Portugal&#45;&#45;Angola</title>
<path fill="none" stroke="grey" stroke-width="3.47567" d="M626.883,-369.279C602.123,-334.867 557.31,-282.198 510,-246 474.818,-219.082 428.086,-197.253 396.452,-184.945"/>
</g>
<!-- Espanha&#45;&#45;Angola -->
<g id="edge25" class="edge"><title>Espanha&#45;&#45;Angola</title>
<path fill="none" stroke="grey" stroke-width="2.5172" d="M382.573,-251.176C377.329,-237.82 372.016,-222.578 367.936,-209.188"/>
</g>
<!-- Espanha&#45;&#45;Angola -->
<g id="edge51" class="edge"><title>Espanha&#45;&#45;Angola</title>
<path fill="none" stroke="grey" stroke-width="2.5172" d="M393.93,-247.142C389.652,-233.495 384.268,-218.345 379.064,-205.389"/>
</g>
<!-- Estados Unidos&#45;&#45;Portugal -->
<g id="edge21" class="edge"><title>Estados Unidos&#45;&#45;Portugal</title>
<path fill="none" stroke="grey" stroke-width="2" d="M546.806,-498.081C568.775,-475.651 594.988,-449.995 615.012,-431.472"/>
</g>
<!-- Estados Unidos&#45;&#45;Portugal -->
<g id="edge44" class="edge"><title>Estados Unidos&#45;&#45;Portugal</title>
<path fill="none" stroke="grey" stroke-width="2" d="M553.25,-504.313C575.932,-482.59 601.847,-456.672 620.576,-436.902"/>
</g>
<!-- Estados Unidos&#45;&#45;Espanha -->
<g id="edge20" class="edge"><title>Estados Unidos&#45;&#45;Espanha</title>
<path fill="none" stroke="grey" stroke-width="1.07918" d="M475.144,-488.875C453.824,-439.21 426.233,-369.177 411.264,-326.278"/>
</g>
<!-- Estados Unidos&#45;&#45;Espanha -->
<g id="edge45" class="edge"><title>Estados Unidos&#45;&#45;Espanha</title>
<path fill="none" stroke="grey" stroke-width="1.07918" d="M485.188,-484.963C466.488,-434.23 438.333,-364.332 419.661,-322.889"/>
</g>
<!-- Estados Unidos&#45;&#45;04/25 -->
<g id="edge19" class="edge"><title>Estados Unidos&#45;&#45;04/25</title>
<path fill="none" stroke="grey" stroke-width="0.69897" d="M509.613,-482.51C514.166,-447.401 518.226,-403.239 513,-364 505.826,-310.137 504.479,-295.004 481,-246 452.758,-187.054 404.231,-127.401 378.512,-94.9168"/>
</g>
<!-- Estados Unidos&#45;&#45;04/25 -->
<g id="edge46" class="edge"><title>Estados Unidos&#45;&#45;04/25</title>
<path fill="none" stroke="grey" stroke-width="0.69897" d="M525.003,-485.461C531.93,-449.898 536.374,-404.347 531,-364 523.826,-310.137 522.479,-295.004 499,-246 468.962,-183.306 415.979,-119.813 385.21,-89.057"/>
</g>
<!-- Estados Unidos&#45;&#45;Angola -->
<g id="edge18" class="edge"><title>Estados Unidos&#45;&#45;Angola</title>
<path fill="none" stroke="grey" stroke-width="2.5563" d="M498.249,-482.357C494.34,-418.195 483.97,-319.122 441,-246 428.799,-225.237 408.241,-207.912 391.037,-195.463"/>
</g>
<!-- Estados Unidos&#45;&#45;Angola -->
<g id="edge47" class="edge"><title>Estados Unidos&#45;&#45;Angola</title>
<path fill="none" stroke="grey" stroke-width="2.5563" d="M511.873,-482.658C512.372,-418.506 502.038,-319.237 459,-246 444.198,-220.812 417.099,-200.683 395.129,-188.183"/>
</g>
<!-- Angola&#45;&#45;04/25 -->
<g id="edge26" class="edge"><title>Angola&#45;&#45;04/25</title>
<path fill="none" stroke="grey" stroke-width="1.98677" d="M355.562,-137.183C355.071,-124.832 355.16,-111.069 355.829,-99.2323"/>
</g>
<!-- Angola&#45;&#45;04/25 -->
<g id="edge52" class="edge"><title>Angola&#45;&#45;04/25</title>
<path fill="none" stroke="grey" stroke-width="1.98677" d="M368.438,-137.183C368.929,-124.832 368.84,-111.069 368.171,-99.2323"/>
</g>
<!-- Lisboa&#45;&#45;Portugal -->
<g id="edge16" class="edge"><title>Lisboa&#45;&#45;Portugal</title>
<path fill="none" stroke="grey" stroke-width="1.97313" d="M399.166,-681.417C444.12,-676.239 522.383,-660.689 569,-614 614.902,-568.026 629.822,-490.665 637.352,-444.36"/>
</g>
<!-- Lisboa&#45;&#45;Portugal -->
<g id="edge41" class="edge"><title>Lisboa&#45;&#45;Portugal</title>
<path fill="none" stroke="grey" stroke-width="1.97313" d="M399.321,-682.562C448.021,-678.747 536.257,-664.821 587,-614 632.634,-568.295 647.647,-491.569 649.948,-445.176"/>
</g>
<!-- Lisboa&#45;&#45;Espanha -->
<g id="edge17" class="edge"><title>Lisboa&#45;&#45;Espanha</title>
<path fill="none" stroke="grey" stroke-width="0.60206" d="M364.09,-650.237C367.13,-577.012 382.785,-403.974 393.286,-326.581"/>
</g>
<!-- Lisboa&#45;&#45;Espanha -->
<g id="edge40" class="edge"><title>Lisboa&#45;&#45;Espanha</title>
<path fill="none" stroke="grey" stroke-width="0.60206" d="M371.906,-651.257C382.137,-578.895 397.996,-405.605 401.659,-327.435"/>
</g>
<!-- Lisboa&#45;&#45;Estados Unidos -->
<g id="edge14" class="edge"><title>Lisboa&#45;&#45;Estados Unidos</title>
<path fill="none" stroke="grey" stroke-width="0" d="M386.343,-657.971C404.463,-639.046 430.977,-613.019 454.295,-591.148"/>
</g>
<!-- Lisboa&#45;&#45;Estados Unidos -->
<g id="edge43" class="edge"><title>Lisboa&#45;&#45;Estados Unidos</title>
<path fill="none" stroke="grey" stroke-width="0" d="M391.781,-662.906C411.357,-645.405 438.163,-619.837 460.713,-597.357"/>
</g>
<!-- Lisboa&#45;&#45;Angola -->
<g id="edge15" class="edge"><title>Lisboa&#45;&#45;Angola</title>
<path fill="none" stroke="grey" stroke-width="2.17609" d="M357.069,-651.264C346.242,-578.377 332.549,-397.219 343,-246 343.888,-233.158 345.655,-219.12 348.03,-206.876"/>
</g>
<!-- Lisboa&#45;&#45;Angola -->
<g id="edge42" class="edge"><title>Lisboa&#45;&#45;Angola</title>
<path fill="none" stroke="grey" stroke-width="2.17609" d="M366.556,-650.436C364.139,-577.014 350.588,-396.65 361,-246 361.827,-234.04 363.417,-221.041 364.63,-209.422"/>
</g>
</g>
</svg>
