<?xml version="1.0" encoding="UTF-8" standalone="no"?>
<!DOCTYPE svg PUBLIC "-//W3C//DTD SVG 1.1//EN"
 "http://www.w3.org/Graphics/SVG/1.1/DTD/svg11.dtd">
<!-- Generated by graphviz version 2.36.0 (20140111.2315)
 -->
<!-- Title: Perl Pages: 1 -->
<svg width="3807pt" height="3232pt"
 viewBox="0.00 0.00 3806.96 3232.00" xmlns="http://www.w3.org/2000/svg" xmlns:xlink="http://www.w3.org/1999/xlink">
<g id="graph0" class="graph" transform="scale(1 1) rotate(0) translate(4 3228)">
<title>Perl</title>
<polygon fill="white" stroke="none" points="-4,4 -4,-3228 3802.96,-3228 3802.96,4 -4,4"/>
<text text-anchor="middle" x="1899.48" y="-22.8" font-family="Times,serif" font-size="14.00">fuzzy named entity ontology</text>
<text text-anchor="middle" x="1899.48" y="-7.8" font-family="Times,serif" font-size="14.00">Legenda: Verde &#45; Pessoas, Azul &#45; Cidades, Vermelho &#45; Datas, Castanho &#45; Paises, Amarelo &#45; Entidade Principal</text>
<!-- Marcelo Rebelo de Sousa -->
<g id="node1" class="node"><title>Marcelo Rebelo de Sousa</title>
<ellipse fill="yellow" stroke="yellow" cx="2805.96" cy="-516" rx="102.061" ry="102.082"/>
<text text-anchor="middle" x="2805.96" y="-512.3" font-family="Times,serif" font-size="14.00">Marcelo Rebelo de Sousa</text>
</g>
<!-- Jorge Sequeira -->
<g id="node5" class="node"><title>Jorge Sequeira</title>
<ellipse fill="green" stroke="green" cx="1860.96" cy="-101" rx="63.0666" ry="63.0888"/>
<text text-anchor="middle" x="1860.96" y="-97.3" font-family="Times,serif" font-size="14.00">Jorge Sequeira</text>
</g>
<!-- Marcelo Rebelo de Sousa&#45;&#45;Jorge Sequeira -->
<g id="edge201" class="edge"><title>Marcelo Rebelo de Sousa&#45;&#45;Jorge Sequeira</title>
<path fill="none" stroke="grey" stroke-width="0.477121" d="M2750.15,-430.056C2696.91,-356.468 2609.73,-253.637 2506.96,-200 2405.95,-147.287 2065.71,-116.959 1923.87,-106.343"/>
</g>
<!-- Francisco Sá Carneiro -->
<g id="node18" class="node"><title>Francisco Sá Carneiro</title>
<ellipse fill="green" stroke="green" cx="1310.96" cy="-289" rx="89.0632" ry="89.0842"/>
<text text-anchor="middle" x="1310.96" y="-285.3" font-family="Times,serif" font-size="14.00">Francisco Sá Carneiro</text>
</g>
<!-- Marcelo Rebelo de Sousa&#45;&#45;Francisco Sá Carneiro -->
<g id="edge200" class="edge"><title>Marcelo Rebelo de Sousa&#45;&#45;Francisco Sá Carneiro</title>
<path fill="none" stroke="grey" stroke-width="0.30103" d="M2720.72,-459.066C2690.4,-441.758 2655.25,-424.497 2620.96,-414 2391.46,-343.748 1656.14,-305.281 1399.97,-293.751"/>
</g>
<!-- Vitorino Silva -->
<g id="node2" class="node"><title>Vitorino Silva</title>
<ellipse fill="green" stroke="green" cx="1200.96" cy="-2152" rx="61.1419" ry="61.1893"/>
<text text-anchor="middle" x="1200.96" y="-2148.3" font-family="Times,serif" font-size="14.00">Vitorino Silva</text>
</g>
<!-- Vitorino Silva&#45;&#45;Marcelo Rebelo de Sousa -->
<g id="edge115" class="edge"><title>Vitorino Silva&#45;&#45;Marcelo Rebelo de Sousa</title>
<path fill="none" stroke="grey" stroke-width="0.477121" d="M1261.46,-2143.27C1328.21,-2132.2 1436.08,-2106.53 1510.96,-2050 1599.89,-1982.86 1574.61,-1923.17 1650.96,-1842 1668.99,-1822.83 1677.13,-1822.08 1697.96,-1806 1754.12,-1762.65 1768.6,-1752.37 1823.96,-1708 2079.89,-1502.85 2179.86,-1487.35 2392.96,-1238 2564.58,-1037.18 2702,-754.728 2766.33,-610.194"/>
</g>
<!-- Vitorino Silva&#45;&#45;Jorge Sequeira -->
<g id="edge117" class="edge"><title>Vitorino Silva&#45;&#45;Jorge Sequeira</title>
<path fill="none" stroke="grey" stroke-width="0" d="M1140.38,-2142.47C1079.5,-2131.05 986.284,-2105.37 925.958,-2050 787.594,-1922.99 339.958,-871.086 339.958,-718 339.958,-718 339.958,-718 339.958,-515 339.958,-432.252 440.199,-201.324 441.958,-200 551.406,-117.638 1537.04,-104.428 1797.87,-102.369"/>
</g>
<!-- Edgar Silva -->
<g id="node6" class="node"><title>Edgar Silva</title>
<ellipse fill="green" stroke="green" cx="1602.96" cy="-1502" rx="51.4931" ry="51.9908"/>
<text text-anchor="middle" x="1602.96" y="-1498.3" font-family="Times,serif" font-size="14.00">Edgar Silva</text>
</g>
<!-- Vitorino Silva&#45;&#45;Edgar Silva -->
<g id="edge112" class="edge"><title>Vitorino Silva&#45;&#45;Edgar Silva</title>
<path fill="none" stroke="grey" stroke-width="0" d="M1221.86,-2094.41C1246.11,-2026.7 1285.74,-1909.5 1308.96,-1806 1330.18,-1711.43 1276.87,-1664.43 1338.96,-1590 1366.55,-1556.93 1484.01,-1527.68 1552.61,-1513"/>
</g>
<!-- Francisco Pinto Balsemão -->
<g id="node9" class="node"><title>Francisco Pinto Balsemão</title>
<ellipse fill="green" stroke="green" cx="2185.96" cy="-1946" rx="103.012" ry="103.182"/>
<text text-anchor="middle" x="2185.96" y="-1942.3" font-family="Times,serif" font-size="14.00">Francisco Pinto Balsemão</text>
</g>
<!-- Vitorino Silva&#45;&#45;Francisco Pinto Balsemão -->
<g id="edge111" class="edge"><title>Vitorino Silva&#45;&#45;Francisco Pinto Balsemão</title>
<path fill="none" stroke="grey" stroke-width="0" d="M1261.92,-2144.13C1376.32,-2130.64 1630.62,-2097.77 1840.96,-2050 1925.53,-2030.79 2019.78,-2002.15 2088.36,-1979.94"/>
</g>
<!-- Paulo de Morais -->
<g id="node13" class="node"><title>Paulo de Morais</title>
<ellipse fill="green" stroke="green" cx="1249.96" cy="-1344" rx="69.3156" ry="69.5877"/>
<text text-anchor="middle" x="1249.96" y="-1340.3" font-family="Times,serif" font-size="14.00">Paulo de Morais</text>
</g>
<!-- Vitorino Silva&#45;&#45;Paulo de Morais -->
<g id="edge110" class="edge"><title>Vitorino Silva&#45;&#45;Paulo de Morais</title>
<path fill="none" stroke="grey" stroke-width="0" d="M1197.21,-2090.69C1191.58,-2013.29 1179.16,-1883.97 1156.96,-1842 1146.62,-1822.46 1018.89,-1728.22 1009.96,-1708 988.774,-1660.02 990.139,-1638.56 1009.96,-1590 1012.51,-1583.76 1131.75,-1463.54 1201.17,-1393.87"/>
</g>
<!-- Marcelo -->
<g id="node16" class="node"><title>Marcelo</title>
<ellipse fill="green" stroke="green" cx="1474.96" cy="-857" rx="39.9464" ry="40.0939"/>
<text text-anchor="middle" x="1474.96" y="-853.3" font-family="Times,serif" font-size="14.00">Marcelo</text>
</g>
<!-- Vitorino Silva&#45;&#45;Marcelo -->
<g id="edge113" class="edge"><title>Vitorino Silva&#45;&#45;Marcelo</title>
<path fill="none" stroke="grey" stroke-width="0.477121" d="M1160.78,-2105.84C1146.69,-2088.94 1131.32,-2069.17 1118.96,-2050 1053.25,-1948.11 1040.38,-1919.2 996.958,-1806 883.718,-1510.75 886.114,-1405.5 950.958,-1096 967.079,-1019.06 959.952,-982.321 1021.96,-934 1086.2,-883.941 1336.29,-865.382 1434.78,-859.925"/>
</g>
<!-- Vitorino Silva&#45;&#45;Francisco Sá Carneiro -->
<g id="edge116" class="edge"><title>Vitorino Silva&#45;&#45;Francisco Sá Carneiro</title>
<path fill="none" stroke="grey" stroke-width="0" d="M1151.97,-2114.97C1136.99,-2104.85 1120.19,-2094.34 1103.96,-2086 1063.43,-2065.18 1038.23,-2084.06 1007.96,-2050 892.375,-1919.92 894.193,-1447.8 902.958,-1274 922.529,-885.954 822.814,-721.775 1059.96,-414 1100.53,-361.35 1169.37,-329.566 1224.72,-311.379"/>
</g>
<!-- 04/25 -->
<g id="node20" class="node"><title>04/25</title>
<ellipse fill="red" stroke="red" cx="2075.96" cy="-1775" rx="30.3206" ry="30.5947"/>
<text text-anchor="middle" x="2075.96" y="-1771.3" font-family="Times,serif" font-size="14.00">04/25</text>
</g>
<!-- Vitorino Silva&#45;&#45;04/25 -->
<g id="edge109" class="edge"><title>Vitorino Silva&#45;&#45;04/25</title>
<path fill="none" stroke="grey" stroke-width="0.30103" d="M1261.81,-2145.58C1350.82,-2135.86 1520.15,-2110.51 1650.96,-2050 1790.36,-1985.51 1791.4,-1914.22 1926.96,-1842 1970.13,-1819 1987.14,-1827.74 2030.96,-1806 2038.02,-1802.49 2045.3,-1798.06 2051.88,-1793.68"/>
</g>
<!-- Marisa Matias -->
<g id="node21" class="node"><title>Marisa Matias</title>
<ellipse fill="green" stroke="green" cx="1092.96" cy="-997" rx="62.0922" ry="62.2891"/>
<text text-anchor="middle" x="1092.96" y="-993.3" font-family="Times,serif" font-size="14.00">Marisa Matias</text>
</g>
<!-- Vitorino Silva&#45;&#45;Marisa Matias -->
<g id="edge120" class="edge"><title>Vitorino Silva&#45;&#45;Marisa Matias</title>
<path fill="none" stroke="grey" stroke-width="0.30103" d="M1174.63,-2096.83C1168.14,-2081.91 1161.7,-2065.55 1156.96,-2050 1129.57,-1960.11 1176.17,-1916.55 1118.96,-1842 1096.2,-1812.35 1069.98,-1831.82 1042.96,-1806 1007.31,-1771.94 1002.87,-1755.85 990.958,-1708 931.636,-1469.64 1024.29,-1177.08 1069.94,-1055.36"/>
</g>
<!-- Cândido Ferreira -->
<g id="node22" class="node"><title>Cândido Ferreira</title>
<ellipse fill="green" stroke="green" cx="2048.96" cy="-1167" rx="70.2668" ry="70.6878"/>
<text text-anchor="middle" x="2048.96" y="-1163.3" font-family="Times,serif" font-size="14.00">Cândido Ferreira</text>
</g>
<!-- Vitorino Silva&#45;&#45;Cândido Ferreira -->
<g id="edge119" class="edge"><title>Vitorino Silva&#45;&#45;Cândido Ferreira</title>
<path fill="none" stroke="grey" stroke-width="0.30103" d="M1239.48,-2104.31C1253.52,-2087.25 1269.49,-2067.78 1283.96,-2050 1353.83,-1964.12 1829.51,-1351.1 1908.96,-1274 1934.01,-1249.69 1964.66,-1225.92 1990.88,-1207.07"/>
</g>
<!-- Henrique Neto -->
<g id="node24" class="node"><title>Henrique Neto</title>
<ellipse fill="green" stroke="green" cx="2176.96" cy="-717" rx="63.0666" ry="63.0888"/>
<text text-anchor="middle" x="2176.96" y="-713.3" font-family="Times,serif" font-size="14.00">Henrique Neto</text>
</g>
<!-- Vitorino Silva&#45;&#45;Henrique Neto -->
<g id="edge118" class="edge"><title>Vitorino Silva&#45;&#45;Henrique Neto</title>
<path fill="none" stroke="grey" stroke-width="0.477121" d="M1256.2,-2125.5C1293.07,-2107.15 1341.64,-2080.36 1379.96,-2050 1572.25,-1897.64 2028.1,-1462.1 2127.96,-1238 2163.8,-1157.55 2173.46,-899.795 2176.04,-780.128"/>
</g>
<!-- Paulo Morais -->
<g id="node25" class="node"><title>Paulo Morais</title>
<ellipse fill="green" stroke="green" cx="1076.96" cy="-1649" rx="58.2422" ry="58.4896"/>
<text text-anchor="middle" x="1076.96" y="-1645.3" font-family="Times,serif" font-size="14.00">Paulo Morais</text>
</g>
<!-- Vitorino Silva&#45;&#45;Paulo Morais -->
<g id="edge114" class="edge"><title>Vitorino Silva&#45;&#45;Paulo Morais</title>
<path fill="none" stroke="grey" stroke-width="0" d="M1210.64,-2091.52C1218.56,-2027.8 1224.23,-1924.7 1194.96,-1842 1188.19,-1822.89 1178.27,-1822.82 1166.96,-1806 1144.1,-1772.01 1121.07,-1731.96 1104.02,-1700.95"/>
</g>
<!-- Maria de Belém -->
<g id="node3" class="node"><title>Maria de Belém</title>
<ellipse fill="green" stroke="green" cx="2037.96" cy="-3155" rx="68.3417" ry="68.7879"/>
<text text-anchor="middle" x="2037.96" y="-3151.3" font-family="Times,serif" font-size="14.00">Maria de Belém</text>
</g>
<!-- Maria de Belém&#45;&#45;Marcelo Rebelo de Sousa -->
<g id="edge1" class="edge"><title>Maria de Belém&#45;&#45;Marcelo Rebelo de Sousa</title>
<path fill="none" stroke="grey" stroke-width="1.07918" d="M2106.3,-3150.14C2426.28,-3131.16 3760.96,-3041.75 3760.96,-2871 3760.96,-2871 3760.96,-2871 3760.96,-1501 3760.96,-1309.2 3739.3,-780.308 3594.96,-654 3494.12,-565.764 3097.85,-532.733 2908.18,-521.798"/>
</g>
<!-- Maria de Belém&#45;&#45;Vitorino Silva -->
<g id="edge8" class="edge"><title>Maria de Belém&#45;&#45;Vitorino Silva</title>
<path fill="none" stroke="grey" stroke-width="0.30103" d="M1969.35,-3150.76C1768.4,-3140.63 1191.42,-3106.82 1129.96,-3050 888.209,-2826.51 1092.62,-2363.07 1172.43,-2206.22"/>
</g>
<!-- Madeira -->
<g id="node4" class="node"><title>Madeira</title>
<ellipse fill="blue" stroke="blue" cx="1230.96" cy="-3009" rx="39.9464" ry="40.0939"/>
<text text-anchor="middle" x="1230.96" y="-3005.3" font-family="Times,serif" font-size="14.00">Madeira</text>
</g>
<!-- Maria de Belém&#45;&#45;Madeira -->
<g id="edge9" class="edge"><title>Maria de Belém&#45;&#45;Madeira</title>
<path fill="none" stroke="grey" stroke-width="0.60206" d="M1970.3,-3142.57C1859.55,-3123.78 1632.69,-3084.96 1440.96,-3050 1381.44,-3039.15 1312.58,-3025.9 1270.4,-3017.71"/>
</g>
<!-- Maria de Belém&#45;&#45;Jorge Sequeira -->
<g id="edge2" class="edge"><title>Maria de Belém&#45;&#45;Jorge Sequeira</title>
<path fill="none" stroke="grey" stroke-width="0.60206" d="M2106.38,-3151.12C2347.06,-3140.61 3153.83,-3102.26 3406.96,-3050 3594.53,-3011.28 3798.96,-3062.53 3798.96,-2871 3798.96,-2871 3798.96,-2871 3798.96,-515 3798.96,-351.962 3755.09,-276.215 3610.96,-200 3459.48,-119.896 2219.73,-104.885 1924.08,-102.435"/>
</g>
<!-- Maria de Belém&#45;&#45;Edgar Silva -->
<g id="edge3" class="edge"><title>Maria de Belém&#45;&#45;Edgar Silva</title>
<path fill="none" stroke="grey" stroke-width="0.60206" d="M2061.18,-3089.67C2103.03,-2964.3 2181.48,-2679.31 2121.96,-2448 2045.32,-2150.17 1981.34,-2081.12 1787.96,-1842 1746.15,-1790.31 1725.31,-1787.41 1674.96,-1744 1656.34,-1727.95 1644.83,-1729.53 1632.96,-1708 1618.81,-1682.33 1610.51,-1606.24 1606.36,-1554.34"/>
</g>
<!-- Marcelo Caetano -->
<g id="node8" class="node"><title>Marcelo Caetano</title>
<ellipse fill="green" stroke="green" cx="2041.96" cy="-2520" rx="71.2405" ry="71.4873"/>
<text text-anchor="middle" x="2041.96" y="-2516.3" font-family="Times,serif" font-size="14.00">Marcelo Caetano</text>
</g>
<!-- Maria de Belém&#45;&#45;Marcelo Caetano -->
<g id="edge17" class="edge"><title>Maria de Belém&#45;&#45;Marcelo Caetano</title>
<path fill="none" stroke="grey" stroke-width="0.60206" d="M2038.39,-3085.96C2039.15,-2965.1 2040.74,-2714.18 2041.51,-2591.55"/>
</g>
<!-- Maria de Belém&#45;&#45;Francisco Pinto Balsemão -->
<g id="edge6" class="edge"><title>Maria de Belém&#45;&#45;Francisco Pinto Balsemão</title>
<path fill="none" stroke="grey" stroke-width="0.60206" d="M2106.57,-3153.41C2260.79,-3150.55 2627.84,-3134.8 2710.96,-3050 2767.14,-2992.68 2734.96,-2951.27 2734.96,-2871 2734.96,-2871 2734.96,-2871 2734.96,-2699 2734.96,-2387.83 2424.54,-2119.43 2270.54,-2005.42"/>
</g>
<!-- António Costa -->
<g id="node10" class="node"><title>António Costa</title>
<ellipse fill="green" stroke="green" cx="1420.96" cy="-2870" rx="61.6163" ry="61.99"/>
<text text-anchor="middle" x="1420.96" y="-2866.3" font-family="Times,serif" font-size="14.00">António Costa</text>
</g>
<!-- Maria de Belém&#45;&#45;António Costa -->
<g id="edge10" class="edge"><title>Maria de Belém&#45;&#45;António Costa</title>
<path fill="none" stroke="grey" stroke-width="0.90309" d="M1975.97,-3125.57C1855.57,-3070.34 1591.81,-2949.36 1476.62,-2896.53"/>
</g>
<!-- Sampaio da Nóvoa -->
<g id="node12" class="node"><title>Sampaio da Nóvoa</title>
<ellipse fill="green" stroke="green" cx="1301.96" cy="-2333" rx="78.4642" ry="78.7863"/>
<text text-anchor="middle" x="1301.96" y="-2329.3" font-family="Times,serif" font-size="14.00">Sampaio da Nóvoa</text>
</g>
<!-- Maria de Belém&#45;&#45;Sampaio da Nóvoa -->
<g id="edge18" class="edge"><title>Maria de Belém&#45;&#45;Sampaio da Nóvoa</title>
<path fill="none" stroke="grey" stroke-width="0.477121" d="M1969.33,-3150.8C1775.41,-3141.05 1234.01,-3108.76 1181.96,-3050 1016.79,-2863.55 1178.15,-2538.27 1260.32,-2399.63"/>
</g>
<!-- Maria de Belém&#45;&#45;Paulo de Morais -->
<g id="edge14" class="edge"><title>Maria de Belém&#45;&#45;Paulo de Morais</title>
<path fill="none" stroke="grey" stroke-width="0.60206" d="M1969.57,-3152.1C1756.64,-3145.5 1108.03,-3120.01 910.958,-3050 563.055,-2926.42 488.122,-2764.69 378.958,-2412 238.661,-1958.72 431.576,-1688.19 841.958,-1450 950.288,-1387.12 1096.26,-1361.38 1181.04,-1351.23"/>
</g>
<!-- António Guterres -->
<g id="node15" class="node"><title>António Guterres</title>
<ellipse fill="green" stroke="green" cx="1661.96" cy="-2700" rx="72.2155" ry="72.2875"/>
<text text-anchor="middle" x="1661.96" y="-2696.3" font-family="Times,serif" font-size="14.00">António Guterres</text>
</g>
<!-- Maria de Belém&#45;&#45;António Guterres -->
<g id="edge16" class="edge"><title>Maria de Belém&#45;&#45;António Guterres</title>
<path fill="none" stroke="grey" stroke-width="0.778151" d="M1994.46,-3101.59C1922.84,-3015.3 1780.76,-2844.13 1707.7,-2756.11"/>
</g>
<!-- Maria de Belém&#45;&#45;Marcelo -->
<g id="edge12" class="edge"><title>Maria de Belém&#45;&#45;Marcelo</title>
<path fill="none" stroke="grey" stroke-width="1.07918" d="M1969.35,-3153.96C1655.64,-3153.28 366.58,-3144.71 215.958,-3050 138.996,-3001.61 116.958,-2961.91 116.958,-2871 116.958,-2871 116.958,-2871 116.958,-2519 116.958,-2326.45 88.0995,-2277.97 102.958,-2086 138.718,-1624 93.9504,-1415.09 429.958,-1096 540.973,-990.574 587.515,-978.645 733.958,-934 867.091,-893.413 1300.21,-867.348 1434.73,-860.079"/>
</g>
<!-- Maria de Belém&#45;&#45;Francisco Sá Carneiro -->
<g id="edge11" class="edge"><title>Maria de Belém&#45;&#45;Francisco Sá Carneiro</title>
<path fill="none" stroke="grey" stroke-width="0.60206" d="M1969.32,-3154.28C1646.38,-3155.09 287.256,-3152.33 130.958,-3050 56.4606,-3001.22 40.9585,-2960.05 40.9585,-2871 40.9585,-2871 40.9585,-2871 40.9585,-1343 40.9585,-1124.81 116.958,-1076.19 116.958,-858 116.958,-858 116.958,-858 116.958,-716 116.958,-544.278 208.369,-498.329 357.958,-414 504.936,-331.144 1014.5,-301.811 1222,-293.146"/>
</g>
<!-- Maria de Belém&#45;&#45;04/25 -->
<g id="edge7" class="edge"><title>Maria de Belém&#45;&#45;04/25</title>
<path fill="none" stroke="grey" stroke-width="0.90309" d="M2106.59,-3152.45C2263.94,-3147.57 2644.7,-3127.81 2741.96,-3050 2808.53,-2996.74 2810.96,-2956.26 2810.96,-2871 2810.96,-2871 2810.96,-2871 2810.96,-2151 2810.96,-1829.4 2245.71,-1783.46 2106.6,-1777.03"/>
</g>
<!-- Maria de Belém&#45;&#45;Marisa Matias -->
<g id="edge5" class="edge"><title>Maria de Belém&#45;&#45;Marisa Matias</title>
<path fill="none" stroke="grey" d="M1969.19,-3154.44C1772.92,-3154.43 1194.12,-3145.66 725.958,-3050 481.126,-2999.97 192.958,-3120.89 192.958,-2871 192.958,-2871 192.958,-2871 192.958,-2519 192.958,-2183.01 442.627,-1307.18 703.958,-1096 754.065,-1055.51 934.9,-1022.36 1031.35,-1007.09"/>
</g>
<!-- Maria de Belém&#45;&#45;Cândido Ferreira -->
<g id="edge4" class="edge"><title>Maria de Belém&#45;&#45;Cândido Ferreira</title>
<path fill="none" stroke="grey" stroke-width="0.60206" d="M2106.26,-3150.13C2267.68,-3140.11 2668.06,-3109.79 2786.96,-3050 2886.64,-2999.88 2962.96,-2982.57 2962.96,-2871 2962.96,-2871 2962.96,-2871 2962.96,-2699 2962.96,-2020.13 2935.53,-1707.34 2412.96,-1274 2328.22,-1203.73 2198.84,-1180.04 2119.32,-1172.05"/>
</g>
<!-- Maria de Belém&#45;&#45;Henrique Neto -->
<g id="edge13" class="edge"><title>Maria de Belém&#45;&#45;Henrique Neto</title>
<path fill="none" stroke="grey" stroke-width="1.07918" d="M2106.36,-3151.72C2280.98,-3144.94 2738.75,-3120.71 2870.96,-3050 2957.66,-3003.63 3000.96,-2969.32 3000.96,-2871 3000.96,-2871 3000.96,-2871 3000.96,-2151 3000.96,-1673.76 3030.57,-1514.37 2800.96,-1096 2713.52,-936.681 2660.39,-906.796 2502.96,-816 2418.49,-767.282 2307.48,-740.653 2239.23,-727.878"/>
</g>
<!-- Maria de Belém&#45;&#45;Paulo Morais -->
<g id="edge15" class="edge"><title>Maria de Belém&#45;&#45;Paulo Morais</title>
<path fill="none" stroke="grey" stroke-width="0.60206" d="M1969.46,-3152.74C1775.24,-3148.24 1224.69,-3128.68 1064.96,-3050 812.565,-2925.68 732.57,-2853.18 627.958,-2592 501.877,-2277.22 556.542,-2107.11 767.958,-1842 836.279,-1756.33 953.925,-1698.59 1022.65,-1670.28"/>
</g>
<!-- Madeira&#45;&#45;Marcelo Rebelo de Sousa -->
<g id="edge27" class="edge"><title>Madeira&#45;&#45;Marcelo Rebelo de Sousa</title>
<path fill="none" stroke="grey" stroke-width="0.778151" d="M1271.2,-3006.87C1472.17,-3001.04 2362,-2973.09 2477.96,-2932 2593.28,-2891.14 2613.7,-2856.73 2701.96,-2772 3226.55,-2268.39 3024.96,-1895.2 3024.96,-1168 3024.96,-1168 3024.96,-1168 3024.96,-856 3024.96,-761.824 3015.45,-730.808 2960.96,-654 2945.53,-632.251 2933.35,-635.18 2912.96,-618 2901.63,-608.455 2889.94,-598.05 2878.63,-587.666"/>
</g>
<!-- Madeira&#45;&#45;Vitorino Silva -->
<g id="edge20" class="edge"><title>Madeira&#45;&#45;Vitorino Silva</title>
<path fill="none" stroke="grey" stroke-width="0" d="M1225.49,-2969.06C1212.47,-2874.09 1179.9,-2622.9 1168.96,-2412 1165.32,-2341.87 1158.23,-2323.4 1168.96,-2254 1171.24,-2239.28 1175.27,-2223.76 1179.73,-2209.42"/>
</g>
<!-- Madeira&#45;&#45;Jorge Sequeira -->
<g id="edge26" class="edge"><title>Madeira&#45;&#45;Jorge Sequeira</title>
<path fill="none" stroke="grey" stroke-width="0.30103" d="M1190.77,-3006.53C1031.65,-3000.43 451.122,-2975.35 381.958,-2932 165.647,-2796.44 2.95846,-2040.83 2.95846,-1947 2.95846,-1947 2.95846,-1947 2.95846,-515 2.95846,-369.876 -23.9076,-291.226 88.9585,-200 156.746,-145.21 1489.52,-110.704 1797.73,-103.438"/>
</g>
<!-- Madeira&#45;&#45;Edgar Silva -->
<g id="edge25" class="edge"><title>Madeira&#45;&#45;Edgar Silva</title>
<path fill="none" stroke="grey" stroke-width="0.60206" d="M1196.22,-2988.46C1138.42,-2953.69 1024.47,-2874.94 979.958,-2772 954.559,-2713.26 971.291,-2691.41 979.958,-2628 1045.41,-2149.17 946.832,-1915.62 1303.96,-1590 1353.03,-1545.26 1385.17,-1572.45 1448.96,-1554 1484.54,-1543.71 1524.2,-1530.53 1554.36,-1520.15"/>
</g>
<!-- Madeira&#45;&#45;Marcelo Caetano -->
<g id="edge29" class="edge"><title>Madeira&#45;&#45;Marcelo Caetano</title>
<path fill="none" stroke="grey" stroke-width="0.30103" d="M1270.72,-3002.39C1333.61,-2992.73 1459.25,-2970.22 1559.96,-2932 1699.04,-2879.22 1741.45,-2869.33 1853.96,-2772 1917.47,-2717.06 1972.7,-2637.2 2006.57,-2582.4"/>
</g>
<!-- Madeira&#45;&#45;Francisco Pinto Balsemão -->
<g id="edge22" class="edge"><title>Madeira&#45;&#45;Francisco Pinto Balsemão</title>
<path fill="none" stroke="grey" stroke-width="0.30103" d="M1271.02,-3005.07C1452.06,-2991.06 2192.02,-2925.08 2354.96,-2772 2522.83,-2614.29 2447.39,-2471.28 2370.96,-2254 2342.1,-2171.96 2289.62,-2088.01 2247.91,-2028.67"/>
</g>
<!-- Madeira&#45;&#45;António Costa -->
<g id="edge19" class="edge"><title>Madeira&#45;&#45;António Costa</title>
<path fill="none" stroke="grey" stroke-width="0.60206" d="M1263.19,-2984.76C1292.83,-2963.38 1337.24,-2931.37 1371.39,-2906.74"/>
</g>
<!-- Madeira&#45;&#45;Sampaio da Nóvoa -->
<g id="edge28" class="edge"><title>Madeira&#45;&#45;Sampaio da Nóvoa</title>
<path fill="none" stroke="grey" stroke-width="0" d="M1235.08,-2968.85C1246.49,-2860.54 1278.63,-2555.43 1293.82,-2411.28"/>
</g>
<!-- Madeira&#45;&#45;Paulo de Morais -->
<g id="edge32" class="edge"><title>Madeira&#45;&#45;Paulo de Morais</title>
<path fill="none" stroke="grey" stroke-width="0.30103" d="M1194.22,-2992.71C1171.51,-2983.95 1141.52,-2973.61 1113.96,-2968 1059.49,-2956.92 652.825,-2972.7 614.958,-2932 561.063,-2874.08 516.533,-2129.38 624.958,-1842 665.51,-1734.52 867.482,-1515.35 961.958,-1450 1029.69,-1403.15 1120.77,-1374.57 1182.23,-1359.3"/>
</g>
<!-- Madeira&#45;&#45;António Guterres -->
<g id="edge30" class="edge"><title>Madeira&#45;&#45;António Guterres</title>
<path fill="none" stroke="grey" stroke-width="0.30103" d="M1270.91,-3004.3C1325.08,-2997.62 1422.88,-2979.48 1490.96,-2932 1552.45,-2889.12 1600.67,-2817 1630.01,-2764.73"/>
</g>
<!-- Madeira&#45;&#45;Marcelo -->
<g id="edge33" class="edge"><title>Madeira&#45;&#45;Marcelo</title>
<path fill="none" stroke="grey" stroke-width="0.778151" d="M1190.81,-3003.82C1045.64,-2988.65 556.201,-2937.17 549.958,-2932 486.015,-2879.06 349.649,-2298.64 329.958,-2218 285.811,-2037.19 271.693,-1991.37 254.958,-1806 246.319,-1710.31 238.145,-1682.55 263.958,-1590 268.819,-1572.57 275.545,-1570.5 282.958,-1554 337.419,-1432.76 311.597,-1382.78 387.958,-1274 388.506,-1273.22 596.113,-1096.44 596.958,-1096 652.765,-1066.86 688.649,-1103.71 733.958,-1060 776.055,-1019.39 726.951,-971.357 771.958,-934 823.203,-891.465 1292.69,-866.433 1434.55,-859.793"/>
</g>
<!-- Madeira&#45;&#45;Francisco Sá Carneiro -->
<g id="edge35" class="edge"><title>Madeira&#45;&#45;Francisco Sá Carneiro</title>
<path fill="none" stroke="grey" stroke-width="0.30103" d="M1191.01,-3003.95C1036.67,-2988.31 487.857,-2932.66 486.958,-2932 335.447,-2820.4 154.958,-2341.18 154.958,-2153 154.958,-2153 154.958,-2153 154.958,-1343 154.958,-1122.78 329.202,-553.066 499.958,-414 609.296,-324.954 1034.65,-299.473 1221.77,-292.498"/>
</g>
<!-- Madeira&#45;&#45;04/25 -->
<g id="edge21" class="edge"><title>Madeira&#45;&#45;04/25</title>
<path fill="none" stroke="grey" stroke-width="0.60206" d="M1271.13,-3006.56C1420.6,-3000.86 1944.15,-2978.01 2103.96,-2932 2253.71,-2888.88 2319.07,-2894.06 2415.96,-2772 2675,-2445.67 2590.09,-2139.08 2297.96,-1842 2246.08,-1789.25 2154.09,-1778.23 2106.45,-1776.21"/>
</g>
<!-- Madeira&#45;&#45;Marisa Matias -->
<g id="edge23" class="edge"><title>Madeira&#45;&#45;Marisa Matias</title>
<path fill="none" stroke="grey" stroke-width="0.778151" d="M1191.75,-2999.99C1146.64,-2991.03 1070.23,-2976.63 1003.96,-2968 957.074,-2961.89 613.845,-2964.97 579.958,-2932 528.671,-2882.1 567.352,-2843.36 561.958,-2772 511.552,-2105.18 566.386,-1928.63 702.958,-1274 719.58,-1194.33 689.52,-1154.64 745.958,-1096 785.299,-1055.13 942.875,-1023.01 1031.54,-1007.73"/>
</g>
<!-- Madeira&#45;&#45;Cândido Ferreira -->
<g id="edge24" class="edge"><title>Madeira&#45;&#45;Cândido Ferreira</title>
<path fill="none" stroke="grey" stroke-width="0.30103" d="M1271.24,-3007.97C1437.82,-3007.4 2072.8,-3000.68 2258.96,-2932 2527.75,-2832.82 2557.11,-2686.27 2639.96,-2412 2765.83,-1995.29 2634.55,-1846.98 2455.96,-1450 2419.05,-1367.95 2425.16,-1331.49 2355.96,-1274 2287.22,-1216.89 2185.91,-1189.86 2118.72,-1177.56"/>
</g>
<!-- Madeira&#45;&#45;Henrique Neto -->
<g id="edge34" class="edge"><title>Madeira&#45;&#45;Henrique Neto</title>
<path fill="none" stroke="grey" stroke-width="0.778151" d="M1271.1,-3006.85C1461.9,-3001.19 2272.06,-2974.81 2375.96,-2932 2440.33,-2905.48 2848.96,-2590.62 2848.96,-2521 2848.96,-2521 2848.96,-2521 2848.96,-2151 2848.96,-1592.29 2778.24,-1436.48 2533.96,-934 2506.89,-878.327 2508.4,-854.539 2459.96,-816 2394.96,-764.289 2300.88,-738.954 2239.33,-727.213"/>
</g>
<!-- Madeira&#45;&#45;Paulo Morais -->
<g id="edge31" class="edge"><title>Madeira&#45;&#45;Paulo Morais</title>
<path fill="none" stroke="grey" stroke-width="0.30103" d="M1194.22,-2992.74C1171.5,-2983.99 1141.51,-2973.65 1113.96,-2968 1061.67,-2957.28 671.257,-2971.13 634.958,-2932 581.806,-2874.7 671.554,-2257.9 672.958,-2254 757.635,-2018.67 953.448,-1785.59 1037.48,-1692.42"/>
</g>
<!-- Edgar Silva&#45;&#45;Marcelo Rebelo de Sousa -->
<g id="edge162" class="edge"><title>Edgar Silva&#45;&#45;Marcelo Rebelo de Sousa</title>
<path fill="none" stroke="grey" stroke-width="0.778151" d="M1620.71,-1453.13C1682.19,-1289.88 1890.17,-759.24 2033.96,-654 2139.2,-576.972 2519.44,-538.499 2704.02,-524.02"/>
</g>
<!-- Edgar Silva&#45;&#45;Jorge Sequeira -->
<g id="edge163" class="edge"><title>Edgar Silva&#45;&#45;Jorge Sequeira</title>
<path fill="none" stroke="grey" stroke-width="0.30103" d="M1649.51,-1479.19C1686.39,-1461.8 1739.14,-1436.7 1784.96,-1414 1938.49,-1337.93 1999.42,-1351.29 2127.96,-1238 2250.78,-1129.75 2241.6,-1067.78 2335.96,-934 2404.36,-837.016 2492.96,-836.68 2492.96,-718 2492.96,-718 2492.96,-718 2492.96,-515 2492.96,-244.663 2082.73,-141.851 1923.29,-112.101"/>
</g>
<!-- Edgar Silva&#45;&#45;Paulo de Morais -->
<g id="edge168" class="edge"><title>Edgar Silva&#45;&#45;Paulo de Morais</title>
<path fill="none" stroke="grey" stroke-width="0.30103" d="M1556.08,-1480.28C1493.63,-1452.69 1382.92,-1403.76 1313.15,-1372.92"/>
</g>
<!-- Edgar Silva&#45;&#45;Marcelo -->
<g id="edge161" class="edge"><title>Edgar Silva&#45;&#45;Marcelo</title>
<path fill="none" stroke="grey" stroke-width="0.778151" d="M1564.96,-1466.33C1551.26,-1451.59 1537.16,-1433.35 1528.96,-1414 1452.43,-1233.4 1463.12,-991.128 1470.98,-897.355"/>
</g>
<!-- Edgar Silva&#45;&#45;Francisco Sá Carneiro -->
<g id="edge164" class="edge"><title>Edgar Silva&#45;&#45;Francisco Sá Carneiro</title>
<path fill="none" stroke="grey" stroke-width="0.30103" d="M1601.97,-1450C1597.03,-1289.42 1567.5,-783 1390.96,-414 1382.67,-396.667 1372.37,-378.847 1361.95,-362.313"/>
</g>
<!-- Edgar Silva&#45;&#45;Marisa Matias -->
<g id="edge166" class="edge"><title>Edgar Silva&#45;&#45;Marisa Matias</title>
<path fill="none" stroke="grey" stroke-width="0.778151" d="M1562.38,-1469.58C1530.46,-1444.86 1491.3,-1414.47 1490.96,-1414 1452.72,-1360.48 1481,-1327.66 1442.96,-1274 1362.96,-1161.16 1224.04,-1071.33 1147.48,-1027.4"/>
</g>
<!-- Edgar Silva&#45;&#45;Cândido Ferreira -->
<g id="edge167" class="edge"><title>Edgar Silva&#45;&#45;Cândido Ferreira</title>
<path fill="none" stroke="grey" stroke-width="0.30103" d="M1643.75,-1470.01C1664.01,-1454 1688.47,-1433.74 1708.96,-1414 1768.83,-1356.34 1766.84,-1324.37 1832.96,-1274 1878.81,-1239.06 1938,-1210.99 1982.82,-1192.53"/>
</g>
<!-- Edgar Silva&#45;&#45;Henrique Neto -->
<g id="edge165" class="edge"><title>Edgar Silva&#45;&#45;Henrique Neto</title>
<path fill="none" stroke="grey" stroke-width="0.778151" d="M1620.17,-1452.5C1638.01,-1405.13 1668.4,-1331.91 1704.96,-1274 1836.93,-1064.94 2042.16,-851.353 2132.13,-761.753"/>
</g>
<!-- Estados Unidos -->
<g id="node7" class="node"><title>Estados Unidos</title>
<ellipse fill="brown" stroke="brown" cx="3286.96" cy="-2152" rx="65.4659" ry="65.7887"/>
<text text-anchor="middle" x="3286.96" y="-2148.3" font-family="Times,serif" font-size="14.00">Estados Unidos</text>
</g>
<!-- Estados Unidos&#45;&#45;Marcelo Rebelo de Sousa -->
<g id="edge124" class="edge"><title>Estados Unidos&#45;&#45;Marcelo Rebelo de Sousa</title>
<path fill="none" stroke="grey" stroke-width="0.30103" d="M3326.22,-2099.44C3336.25,-2084.19 3346.12,-2067.01 3352.96,-2050 3471.25,-1755.61 3464.96,-1662.26 3464.96,-1345 3464.96,-1345 3464.96,-1345 3464.96,-856 3464.96,-608.49 3092.82,-541.537 2907.84,-523.545"/>
</g>
<!-- Estados Unidos&#45;&#45;Francisco Pinto Balsemão -->
<g id="edge122" class="edge"><title>Estados Unidos&#45;&#45;Francisco Pinto Balsemão</title>
<path fill="none" stroke="grey" stroke-width="0.30103" d="M3222.6,-2139.08C3038.85,-2105.03 2510.72,-2007.17 2287.5,-1965.81"/>
</g>
<!-- Angola -->
<g id="node17" class="node"><title>Angola</title>
<ellipse fill="blue" stroke="blue" cx="3233.96" cy="-1344" rx="36.096" ry="36.2938"/>
<text text-anchor="middle" x="3233.96" y="-1340.3" font-family="Times,serif" font-size="14.00">Angola</text>
</g>
<!-- Estados Unidos&#45;&#45;Angola -->
<g id="edge125" class="edge"><title>Estados Unidos&#45;&#45;Angola</title>
<path fill="none" stroke="grey" stroke-width="2.5563" d="M3291.02,-2086.15C3297.52,-1961.76 3305.86,-1681.43 3266.96,-1450 3262.81,-1425.31 3254.27,-1398.4 3246.91,-1378"/>
</g>
<!-- Portugal -->
<g id="node19" class="node"><title>Portugal</title>
<ellipse fill="brown" stroke="brown" cx="3168.96" cy="-1649" rx="39.9464" ry="40.0939"/>
<text text-anchor="middle" x="3168.96" y="-1645.3" font-family="Times,serif" font-size="14.00">Portugal</text>
</g>
<!-- Estados Unidos&#45;&#45;Portugal -->
<g id="edge123" class="edge"><title>Estados Unidos&#45;&#45;Portugal</title>
<path fill="none" stroke="grey" stroke-width="2" d="M3265.12,-2089.93C3260.8,-2076.84 3256.51,-2063.03 3252.96,-2050 3217.35,-1919.23 3188.12,-1760.93 3175.57,-1688.98"/>
</g>
<!-- Estados Unidos&#45;&#45;04/25 -->
<g id="edge121" class="edge"><title>Estados Unidos&#45;&#45;04/25</title>
<path fill="none" stroke="grey" stroke-width="0.69897" d="M3238.44,-2107.64C3219.06,-2090.02 3196.71,-2069.3 3176.96,-2050 3085.24,-1960.37 3093.04,-1896.52 2976.96,-1842 2896.66,-1804.29 2254.54,-1781.68 2106.38,-1776.94"/>
</g>
<!-- Espanha -->
<g id="node23" class="node"><title>Espanha</title>
<ellipse fill="brown" stroke="brown" cx="3396.96" cy="-1502" rx="39.9464" ry="40.0939"/>
<text text-anchor="middle" x="3396.96" y="-1498.3" font-family="Times,serif" font-size="14.00">Espanha</text>
</g>
<!-- Estados Unidos&#45;&#45;Espanha -->
<g id="edge126" class="edge"><title>Estados Unidos&#45;&#45;Espanha</title>
<path fill="none" stroke="grey" stroke-width="1.07918" d="M3308.14,-2089.75C3312.14,-2076.74 3315.99,-2063 3318.96,-2050 3361.78,-1862.25 3385.41,-1632.59 3393.61,-1542.2"/>
</g>
<!-- Marcelo Caetano&#45;&#45;Marcelo Rebelo de Sousa -->
<g id="edge82" class="edge"><title>Marcelo Caetano&#45;&#45;Marcelo Rebelo de Sousa</title>
<path fill="none" stroke="grey" stroke-width="0.778151" d="M2102.59,-2482.29C2132.55,-2462.97 2168.5,-2437.93 2197.96,-2412 2278.89,-2340.77 2456.24,-2136.23 2520.96,-2050 2778.24,-1707.19 2910.96,-1596.61 2910.96,-1168 2910.96,-1168 2910.96,-1168 2910.96,-856 2910.96,-769.126 2879.11,-675.11 2850.49,-608.174"/>
</g>
<!-- Marcelo Caetano&#45;&#45;Vitorino Silva -->
<g id="edge92" class="edge"><title>Marcelo Caetano&#45;&#45;Vitorino Silva</title>
<path fill="none" stroke="grey" stroke-width="0" d="M1971.25,-2510.65C1881.84,-2498.13 1724.75,-2469.56 1601.96,-2412 1495.24,-2361.97 1488.47,-2317.17 1388.96,-2254 1345.48,-2226.4 1293.79,-2199 1255.63,-2179.71"/>
</g>
<!-- Marcelo Caetano&#45;&#45;Jorge Sequeira -->
<g id="edge86" class="edge"><title>Marcelo Caetano&#45;&#45;Jorge Sequeira</title>
<path fill="none" stroke="grey" stroke-width="0.30103" d="M2113.28,-2515.61C2389.18,-2502.22 3373.92,-2451.82 3426.96,-2412 3497.05,-2359.38 3646.96,-1997.7 3646.96,-1776 3646.96,-1776 3646.96,-1776 3646.96,-1343 3646.96,-1124.81 3722.96,-1076.19 3722.96,-858 3722.96,-858 3722.96,-858 3722.96,-515 3722.96,-249.339 3467.66,-281.966 3214.96,-200 2970.18,-120.602 2157.76,-105.351 1924.24,-102.583"/>
</g>
<!-- Marcelo Caetano&#45;&#45;Edgar Silva -->
<g id="edge95" class="edge"><title>Marcelo Caetano&#45;&#45;Edgar Silva</title>
<path fill="none" stroke="grey" stroke-width="0.30103" d="M1993.02,-2467.69C1978.56,-2450.81 1963.52,-2431.39 1951.96,-2412 1812.48,-2178.07 1871,-2073.15 1726.96,-1842 1684.36,-1773.64 1634.4,-1782.97 1604.96,-1708 1585.38,-1658.14 1588.13,-1596.05 1593.72,-1553.35"/>
</g>
<!-- Marcelo Caetano&#45;&#45;Francisco Pinto Balsemão -->
<g id="edge94" class="edge"><title>Marcelo Caetano&#45;&#45;Francisco Pinto Balsemão</title>
<path fill="none" stroke="grey" stroke-width="0.30103" d="M2051.6,-2449.03C2061.33,-2393.6 2079.8,-2315.53 2112.96,-2254 2123.11,-2235.15 2135.87,-2237.38 2144.96,-2218 2169.5,-2165.65 2179.98,-2101.95 2184.22,-2049.46"/>
</g>
<!-- Marcelo Caetano&#45;&#45;Sampaio da Nóvoa -->
<g id="edge88" class="edge"><title>Marcelo Caetano&#45;&#45;Sampaio da Nóvoa</title>
<path fill="none" stroke="grey" stroke-width="0" d="M1970.42,-2519.29C1847.21,-2517.2 1589.43,-2501.4 1394.96,-2412 1381.84,-2405.97 1369.09,-2397.58 1357.44,-2388.53"/>
</g>
<!-- Marcelo Caetano&#45;&#45;Paulo de Morais -->
<g id="edge93" class="edge"><title>Marcelo Caetano&#45;&#45;Paulo de Morais</title>
<path fill="none" stroke="grey" stroke-width="0.30103" d="M1978.04,-2487.97C1944.22,-2469.31 1903.67,-2443.15 1873.96,-2412 1625.11,-2151.12 1638.71,-2027.12 1470.96,-1708 1411.76,-1595.39 1418.47,-1555.22 1346.96,-1450 1333.29,-1429.88 1315.87,-1409.78 1299.57,-1392.63"/>
</g>
<!-- Marcelo Caetano&#45;&#45;Marcelo -->
<g id="edge84" class="edge"><title>Marcelo Caetano&#45;&#45;Marcelo</title>
<path fill="none" stroke="grey" stroke-width="0.90309" d="M2019.12,-2452.09C1923.95,-2173.31 1560.55,-1108.73 1487.71,-895.362"/>
</g>
<!-- Marcelo Caetano&#45;&#45;Francisco Sá Carneiro -->
<g id="edge85" class="edge"><title>Marcelo Caetano&#45;&#45;Francisco Sá Carneiro</title>
<path fill="none" stroke="grey" stroke-width="0.30103" d="M2093.98,-2470.76C2110.4,-2453.47 2127.49,-2433.02 2139.96,-2412 2177.82,-2348.18 2149.48,-2313.4 2193.96,-2254 2210.59,-2231.79 2223.64,-2235.75 2244.96,-2218 2309.44,-2164.3 2312.99,-2136.56 2379.96,-2086 2405.7,-2066.57 2425.6,-2077.18 2442.96,-2050 2590.54,-1818.85 2573.46,-1047.83 2426.96,-816 2390.21,-757.854 2009.61,-432.623 1970.96,-414 1781.5,-322.729 1531.37,-298.516 1400.12,-292.175"/>
</g>
<!-- Marcelo Caetano&#45;&#45;04/25 -->
<g id="edge91" class="edge"><title>Marcelo Caetano&#45;&#45;04/25</title>
<path fill="none" stroke="grey" stroke-width="0.60206" d="M2030.84,-2448.95C2013.5,-2324.55 1987.27,-2057.86 2040.96,-1842 2044.59,-1827.4 2052.12,-1812.48 2059.26,-1800.53"/>
</g>
<!-- Marcelo Caetano&#45;&#45;Marisa Matias -->
<g id="edge89" class="edge"><title>Marcelo Caetano&#45;&#45;Marisa Matias</title>
<path fill="none" stroke="grey" stroke-width="0.60206" d="M1970.69,-2514.3C1796.14,-2502.08 1351.52,-2466.41 1213.96,-2412 1076.89,-2357.78 1013.59,-2348.45 944.958,-2218 749.591,-1846.63 901.016,-1692.76 927.958,-1274 933.08,-1194.4 909.427,-1164.1 950.958,-1096 970.765,-1063.52 1005.87,-1039.15 1036.21,-1022.83"/>
</g>
<!-- Marcelo Caetano&#45;&#45;Cândido Ferreira -->
<g id="edge90" class="edge"><title>Marcelo Caetano&#45;&#45;Cândido Ferreira</title>
<path fill="none" stroke="grey" stroke-width="0.30103" d="M2078.1,-2458.37C2086.2,-2443.49 2094.35,-2427.4 2100.96,-2412 2129.99,-2344.31 2117.87,-2319.8 2150.96,-2254 2159.83,-2236.37 2165.41,-2234.01 2176.96,-2218 2230.78,-2143.37 2269.7,-2137.57 2297.96,-2050 2352.73,-1880.24 2264.96,-1828.38 2264.96,-1650 2264.96,-1650 2264.96,-1650 2264.96,-1501 2264.96,-1395.02 2253.71,-1360.13 2191.96,-1274 2170.8,-1244.49 2138.94,-1219.74 2110.66,-1201.59"/>
</g>
<!-- Marcelo Caetano&#45;&#45;Henrique Neto -->
<g id="edge87" class="edge"><title>Marcelo Caetano&#45;&#45;Henrique Neto</title>
<path fill="none" stroke="grey" stroke-width="0.778151" d="M2092.18,-2469.15C2108.37,-2451.81 2125.79,-2431.75 2139.96,-2412 2186.69,-2346.87 2184.44,-2321.96 2226.96,-2254 2285.81,-2159.91 2324.13,-2150.62 2370.96,-2050 2418.26,-1948.36 2420.62,-1917.19 2434.96,-1806 2484.59,-1421.18 2487.99,-1310.19 2392.96,-934 2378.74,-877.718 2375.76,-859.174 2336.96,-816 2308.65,-784.506 2267.83,-759.726 2234.51,-742.963"/>
</g>
<!-- Marcelo Caetano&#45;&#45;Paulo Morais -->
<g id="edge83" class="edge"><title>Marcelo Caetano&#45;&#45;Paulo Morais</title>
<path fill="none" stroke="grey" stroke-width="0.30103" d="M1972.5,-2502.97C1912.78,-2486.85 1826.33,-2457.74 1761.96,-2412 1445.45,-2187.11 1479.46,-2012.47 1198.96,-1744 1175.97,-1722 1147.99,-1700.14 1124.63,-1683.05"/>
</g>
<!-- Francisco Pinto Balsemão&#45;&#45;Marcelo Rebelo de Sousa -->
<g id="edge133" class="edge"><title>Francisco Pinto Balsemão&#45;&#45;Marcelo Rebelo de Sousa</title>
<path fill="none" stroke="grey" stroke-width="0.90309" d="M2247.92,-1862.98C2341.37,-1735.63 2518.35,-1479.78 2620.96,-1238 2711.08,-1025.66 2765.47,-758.899 2790.14,-616.845"/>
</g>
<!-- Francisco Pinto Balsemão&#45;&#45;Jorge Sequeira -->
<g id="edge135" class="edge"><title>Francisco Pinto Balsemão&#45;&#45;Jorge Sequeira</title>
<path fill="none" stroke="grey" stroke-width="0.30103" d="M2281.57,-1906.34C2423.88,-1845.73 2695.2,-1718.12 2886.96,-1554 3066.16,-1400.63 3540.96,-953.871 3540.96,-718 3540.96,-718 3540.96,-718 3540.96,-515 3540.96,-175.322 2229.46,-113.476 1924,-103.679"/>
</g>
<!-- Francisco Pinto Balsemão&#45;&#45;Edgar Silva -->
<g id="edge130" class="edge"><title>Francisco Pinto Balsemão&#45;&#45;Edgar Silva</title>
<path fill="none" stroke="grey" stroke-width="0.30103" d="M2099.02,-1890.07C2014.91,-1837.71 1892.78,-1763.99 1840.96,-1744 1768.9,-1716.21 1728.3,-1759.73 1670.96,-1708 1630.05,-1671.1 1650.38,-1642.27 1632.96,-1590 1628.76,-1577.42 1624.14,-1563.85 1619.8,-1551.26"/>
</g>
<!-- Francisco Pinto Balsemão&#45;&#45;Paulo de Morais -->
<g id="edge129" class="edge"><title>Francisco Pinto Balsemão&#45;&#45;Paulo de Morais</title>
<path fill="none" stroke="grey" stroke-width="0.30103" d="M2083.18,-1934.72C1940.45,-1915.16 1682.5,-1859.91 1528.96,-1708 1440.83,-1620.81 1503.53,-1544.21 1422.96,-1450 1393.5,-1415.56 1349.8,-1389.16 1313.69,-1371.45"/>
</g>
<!-- Francisco Pinto Balsemão&#45;&#45;Marcelo -->
<g id="edge132" class="edge"><title>Francisco Pinto Balsemão&#45;&#45;Marcelo</title>
<path fill="none" stroke="grey" stroke-width="0.778151" d="M2111.02,-1874.89C2066.91,-1834.89 2009.28,-1784.76 1954.96,-1744 1931.29,-1726.24 1916.99,-1731.46 1898.96,-1708 1865.37,-1664.32 1879.3,-1641.95 1860.96,-1590 1782.65,-1368.18 1781.71,-1303.53 1670.96,-1096 1629.51,-1018.33 1614.9,-1000.29 1556.96,-934 1541.25,-916.024 1521.7,-897.777 1505.64,-883.669"/>
</g>
<!-- Francisco Pinto Balsemão&#45;&#45;Angola -->
<g id="edge136" class="edge"><title>Francisco Pinto Balsemão&#45;&#45;Angola</title>
<path fill="none" stroke="grey" stroke-width="1.60206" d="M2282.75,-1909.45C2440.52,-1849.17 2759.6,-1717.38 2999.96,-1554 3083.52,-1497.2 3168.85,-1412.98 3209.51,-1370.9"/>
</g>
<!-- Francisco Pinto Balsemão&#45;&#45;Francisco Sá Carneiro -->
<g id="edge134" class="edge"><title>Francisco Pinto Balsemão&#45;&#45;Francisco Sá Carneiro</title>
<path fill="none" stroke="grey" stroke-width="0.60206" d="M2153.9,-1847.72C2053.14,-1546.58 1736.96,-636.532 1523.96,-414 1487.2,-375.593 1435.94,-345.258 1392.93,-324.206"/>
</g>
<!-- Francisco Pinto Balsemão&#45;&#45;Portugal -->
<g id="edge128" class="edge"><title>Francisco Pinto Balsemão&#45;&#45;Portugal</title>
<path fill="none" stroke="grey" stroke-width="1.73239" d="M2284.71,-1915.36C2496.99,-1851.66 2988.95,-1704.02 3130.32,-1661.59"/>
</g>
<!-- Francisco Pinto Balsemão&#45;&#45;04/25 -->
<g id="edge127" class="edge"><title>Francisco Pinto Balsemão&#45;&#45;04/25</title>
<path fill="none" stroke="grey" d="M2129.99,-1859.01C2116.19,-1837.81 2102.47,-1816.74 2092.31,-1801.13"/>
</g>
<!-- Francisco Pinto Balsemão&#45;&#45;Marisa Matias -->
<g id="edge139" class="edge"><title>Francisco Pinto Balsemão&#45;&#45;Marisa Matias</title>
<path fill="none" stroke="grey" stroke-width="0.60206" d="M2085.47,-1922.54C1965.36,-1891.48 1763.73,-1825.48 1628.96,-1708 1525.81,-1618.09 1539.59,-1561.99 1460.96,-1450 1404.62,-1369.76 1403.69,-1336.27 1327.96,-1274 1299.71,-1250.77 1281.54,-1262.02 1253.96,-1238 1221.75,-1209.95 1161.17,-1113.07 1124.21,-1051.3"/>
</g>
<!-- Francisco Pinto Balsemão&#45;&#45;Cândido Ferreira -->
<g id="edge138" class="edge"><title>Francisco Pinto Balsemão&#45;&#45;Cândido Ferreira</title>
<path fill="none" stroke="grey" stroke-width="0.30103" d="M2206.88,-1844.78C2216.99,-1787.92 2226.96,-1715.28 2226.96,-1650 2226.96,-1650 2226.96,-1650 2226.96,-1501 2226.96,-1390.38 2149.61,-1280.9 2096.89,-1219.13"/>
</g>
<!-- Francisco Pinto Balsemão&#45;&#45;Henrique Neto -->
<g id="edge137" class="edge"><title>Francisco Pinto Balsemão&#45;&#45;Henrique Neto</title>
<path fill="none" stroke="grey" stroke-width="0.778151" d="M2219.45,-1848.19C2223.9,-1834.11 2228.21,-1819.73 2231.96,-1806 2278.92,-1634.03 2297.96,-1591.26 2316.96,-1414 2342.67,-1174.1 2247.2,-894.138 2200.84,-775.645"/>
</g>
<!-- Francisco Pinto Balsemão&#45;&#45;Paulo Morais -->
<g id="edge131" class="edge"><title>Francisco Pinto Balsemão&#45;&#45;Paulo Morais</title>
<path fill="none" stroke="grey" stroke-width="0.30103" d="M2086.08,-1918.43C1859.13,-1858.06 1310.65,-1712.16 1133.3,-1664.99"/>
</g>
<!-- António Costa&#45;&#45;Marcelo Rebelo de Sousa -->
<g id="edge58" class="edge"><title>António Costa&#45;&#45;Marcelo Rebelo de Sousa</title>
<path fill="none" stroke="grey" stroke-width="1.14613" d="M1482.62,-2868.05C1745.72,-2863.59 2775.34,-2841.93 3090.96,-2772 3386.03,-2706.62 3722.96,-2823.23 3722.96,-2521 3722.96,-2521 3722.96,-2521 3722.96,-1501 3722.96,-1424.08 3645.09,-889.666 3622.96,-816 3600.08,-739.833 3609.91,-702.603 3546.96,-654 3448.39,-577.896 3086.64,-539.218 2907.64,-524.39"/>
</g>
<!-- António Costa&#45;&#45;Vitorino Silva -->
<g id="edge48" class="edge"><title>António Costa&#45;&#45;Vitorino Silva</title>
<path fill="none" stroke="grey" stroke-width="0.30103" d="M1372.32,-2831.87C1353.06,-2815.23 1331.97,-2794.33 1316.96,-2772 1221.44,-2629.93 1210.91,-2580.37 1179.96,-2412 1167.26,-2342.94 1172.77,-2323.85 1179.96,-2254 1181.39,-2240.1 1183.9,-2225.3 1186.69,-2211.43"/>
</g>
<!-- António Costa&#45;&#45;Jorge Sequeira -->
<g id="edge59" class="edge"><title>António Costa&#45;&#45;Jorge Sequeira</title>
<path fill="none" stroke="grey" stroke-width="0.60206" d="M1359.34,-2869.51C1187.24,-2869.76 705.952,-2862.18 581.958,-2772 91.3137,-2415.15 78.9585,-2109.69 78.9585,-1503 78.9585,-1503 78.9585,-1503 78.9585,-515 78.9585,-358.376 102.285,-279.963 236.958,-200 372.967,-119.245 1514.34,-104.78 1797.55,-102.426"/>
</g>
<!-- António Costa&#45;&#45;Edgar Silva -->
<g id="edge54" class="edge"><title>António Costa&#45;&#45;Edgar Silva</title>
<path fill="none" stroke="grey" stroke-width="0.60206" d="M1428.01,-2808.33C1437.55,-2726.49 1455.2,-2576.21 1470.96,-2448 1517.85,-2066.47 1506.45,-1967.3 1579.96,-1590 1582.35,-1577.73 1585.49,-1564.64 1588.68,-1552.43"/>
</g>
<!-- António Costa&#45;&#45;Marcelo Caetano -->
<g id="edge55" class="edge"><title>António Costa&#45;&#45;Marcelo Caetano</title>
<path fill="none" stroke="grey" stroke-width="0.60206" d="M1481.36,-2858.43C1548.28,-2845.02 1657.95,-2817.94 1742.96,-2772 1841.79,-2718.59 1937.98,-2629.12 1993.53,-2572.68"/>
</g>
<!-- António Costa&#45;&#45;Francisco Pinto Balsemão -->
<g id="edge51" class="edge"><title>António Costa&#45;&#45;Francisco Pinto Balsemão</title>
<path fill="none" stroke="grey" stroke-width="0.60206" d="M1482.32,-2866.55C1671.41,-2858.4 2235.83,-2829.45 2292.96,-2772 2455.73,-2608.31 2405.87,-2472.35 2330.96,-2254 2324.38,-2234.83 2313.28,-2235.44 2302.96,-2218 2270.27,-2162.76 2241.56,-2096.7 2220.76,-2043.64"/>
</g>
<!-- António Costa&#45;&#45;Sampaio da Nóvoa -->
<g id="edge61" class="edge"><title>António Costa&#45;&#45;Sampaio da Nóvoa</title>
<path fill="none" stroke="grey" stroke-width="0.30103" d="M1383.07,-2821.02C1373.03,-2806.08 1363.25,-2789.03 1356.96,-2772 1312.45,-2651.59 1302.64,-2501.24 1301.18,-2411.68"/>
</g>
<!-- António Costa&#45;&#45;Paulo de Morais -->
<g id="edge52" class="edge"><title>António Costa&#45;&#45;Paulo de Morais</title>
<path fill="none" stroke="grey" stroke-width="0.60206" d="M1360.15,-2859.8C1299.55,-2848.08 1206.49,-2822.89 1141.96,-2772 912.334,-2590.92 869.162,-2498.65 786.958,-2218 701.884,-1927.55 964.335,-1535.76 1042.96,-1450 1080.81,-1408.71 1138.58,-1381.31 1183.49,-1364.88"/>
</g>
<!-- António Costa&#45;&#45;António Guterres -->
<g id="edge53" class="edge"><title>António Costa&#45;&#45;António Guterres</title>
<path fill="none" stroke="grey" stroke-width="0.60206" d="M1471.19,-2833.99C1509.54,-2807.25 1562.48,-2770.34 1602.87,-2742.19"/>
</g>
<!-- António Costa&#45;&#45;Marcelo -->
<g id="edge57" class="edge"><title>António Costa&#45;&#45;Marcelo</title>
<path fill="none" stroke="grey" stroke-width="1.07918" d="M1359.6,-2866.55C1224.89,-2860 908.798,-2837.83 827.958,-2772 306.173,-2347.08 566.609,-1945.65 607.958,-1274 612.857,-1194.44 577.233,-1155.78 629.958,-1096 673.023,-1047.17 724.905,-1105 771.958,-1060 814.23,-1019.57 765.065,-971.495 809.958,-934 858.12,-893.776 1298.43,-867.324 1434.85,-860.04"/>
</g>
<!-- António Costa&#45;&#45;Francisco Sá Carneiro -->
<g id="edge60" class="edge"><title>António Costa&#45;&#45;Francisco Sá Carneiro</title>
<path fill="none" stroke="grey" stroke-width="0.60206" d="M1359.55,-2867.6C1202.38,-2863 789.959,-2844.18 676.958,-2772 613.156,-2731.25 626.561,-2691.9 585.958,-2628 575.776,-2611.97 570.785,-2609.3 562.958,-2592 528.633,-2516.13 529.806,-2493.11 510.958,-2412 494.817,-2342.53 500.931,-2323.01 482.958,-2254 399.964,-1935.31 294.721,-1878.74 239.958,-1554 232.272,-1508.42 232.148,-1495.56 239.958,-1450 260.588,-1329.67 512.793,-492.896 605.958,-414 697.714,-336.298 1053.54,-305.216 1221.82,-294.67"/>
</g>
<!-- António Costa&#45;&#45;Portugal -->
<g id="edge50" class="edge"><title>António Costa&#45;&#45;Portugal</title>
<path fill="none" stroke="grey" stroke-width="1.47712" d="M1482.5,-2867.4C1711.22,-2860.99 2503.92,-2834.41 2596.96,-2772 2648.74,-2737.27 3062.45,-1873.48 3151.93,-1685.78"/>
</g>
<!-- António Costa&#45;&#45;04/25 -->
<g id="edge49" class="edge"><title>António Costa&#45;&#45;04/25</title>
<path fill="none" stroke="grey" stroke-width="0.90309" d="M1482.32,-2868.45C1628.98,-2863.29 1996.94,-2826.57 2121.96,-2592 2153.56,-2532.72 2090.26,-2321.28 2073.96,-2050 2068.62,-1961.2 2072.15,-1855.93 2074.44,-1805.63"/>
</g>
<!-- António Costa&#45;&#45;Marisa Matias -->
<g id="edge64" class="edge"><title>António Costa&#45;&#45;Marisa Matias</title>
<path fill="none" stroke="grey" stroke-width="0.90309" d="M1359.94,-2861.35C1253.94,-2847.14 1041.19,-2814.21 979.958,-2772 699.884,-2578.94 773.215,-2386.87 725.958,-2050 678.037,-1708.39 648.365,-1606.29 740.958,-1274 763.777,-1192.11 749.652,-1154.89 810.958,-1096 819.322,-1087.97 953.861,-1043.25 1034.04,-1017.08"/>
</g>
<!-- António Costa&#45;&#45;Cândido Ferreira -->
<g id="edge65" class="edge"><title>António Costa&#45;&#45;Cândido Ferreira</title>
<path fill="none" stroke="grey" stroke-width="0.60206" d="M1481.77,-2859.67C1568.75,-2846.6 1733.77,-2822.77 1874.96,-2808 1928.15,-2802.44 2313.1,-2805.3 2354.96,-2772 2535.68,-2628.23 2558.08,-1969.2 2506.96,-1744 2455.69,-1518.16 2447.31,-1436.15 2281.96,-1274 2236.19,-1229.12 2168.02,-1201.16 2117.23,-1185.3"/>
</g>
<!-- António Costa&#45;&#45;Espanha -->
<g id="edge63" class="edge"><title>António Costa&#45;&#45;Espanha</title>
<path fill="none" stroke="grey" stroke-width="0" d="M1482.6,-2868.58C1782.01,-2865.33 3082.47,-2837.11 3384.96,-2592 3649.91,-2377.3 3590.52,-2180.23 3546.96,-1842 3532.17,-1727.17 3537.68,-1690.93 3480.96,-1590 3467.48,-1566.02 3445.8,-1543.8 3427.84,-1527.82"/>
</g>
<!-- António Costa&#45;&#45;Henrique Neto -->
<g id="edge62" class="edge"><title>António Costa&#45;&#45;Henrique Neto</title>
<path fill="none" stroke="grey" stroke-width="1.07918" d="M1482.11,-2863.45C1697.05,-2843.89 2405.48,-2778.97 2414.96,-2772 2484.91,-2720.54 2464.58,-2674.73 2490.96,-2592 2669.23,-2032.96 2714.45,-1842.2 2567.96,-1274 2514.13,-1065.21 2571.48,-956.548 2407.96,-816 2355.97,-771.31 2319.86,-809.477 2257.96,-780 2246.29,-774.442 2234.68,-767.012 2224.06,-759.23"/>
</g>
<!-- António Costa&#45;&#45;Paulo Morais -->
<g id="edge56" class="edge"><title>António Costa&#45;&#45;Paulo Morais</title>
<path fill="none" stroke="grey" stroke-width="0.60206" d="M1362.29,-2851.79C1320.57,-2836.82 1265.93,-2811.28 1230.96,-2772 1117.42,-2644.5 1143.3,-2576.32 1096.96,-2412 1027.95,-2167.31 1042.48,-2096.15 1048.96,-1842 1050.07,-1798.4 1047.64,-1787.15 1053.96,-1744 1055.79,-1731.53 1058.52,-1718.3 1061.46,-1705.83"/>
</g>
<!-- Lisboa -->
<g id="node11" class="node"><title>Lisboa</title>
<ellipse fill="blue" stroke="blue" cx="3341.96" cy="-2520" rx="34.1708" ry="34.394"/>
<text text-anchor="middle" x="3341.96" y="-2516.3" font-family="Times,serif" font-size="14.00">Lisboa</text>
</g>
<!-- Lisboa&#45;&#45;Marcelo Rebelo de Sousa -->
<g id="edge37" class="edge"><title>Lisboa&#45;&#45;Marcelo Rebelo de Sousa</title>
<path fill="none" stroke="grey" stroke-width="0.69897" d="M3371.7,-2502.67C3401.81,-2484.55 3447.32,-2452.44 3471.96,-2412 3622.39,-2165.06 3608.96,-2065.15 3608.96,-1776 3608.96,-1776 3608.96,-1776 3608.96,-856 3608.96,-746.514 3559.37,-714.251 3467.96,-654 3376.88,-593.974 3069.07,-548.89 2907.26,-528.695"/>
</g>
<!-- Lisboa&#45;&#45;Estados Unidos -->
<g id="edge36" class="edge"><title>Lisboa&#45;&#45;Estados Unidos</title>
<path fill="none" stroke="grey" stroke-width="0" d="M3336.98,-2485.87C3327.87,-2425.25 3308.37,-2295.51 3296.59,-2217.1"/>
</g>
<!-- Luanda -->
<g id="node14" class="node"><title>Luanda</title>
<ellipse fill="blue" stroke="blue" cx="3380.96" cy="-2333" rx="37.0701" ry="37.0935"/>
<text text-anchor="middle" x="3380.96" y="-2329.3" font-family="Times,serif" font-size="14.00">Luanda</text>
</g>
<!-- Lisboa&#45;&#45;Luanda -->
<g id="edge41" class="edge"><title>Lisboa&#45;&#45;Luanda</title>
<path fill="none" stroke="grey" stroke-width="1.90849" d="M3348.93,-2485.93C3355.85,-2453.08 3366.43,-2402.91 3373.52,-2369.31"/>
</g>
<!-- Lisboa&#45;&#45;Angola -->
<g id="edge39" class="edge"><title>Lisboa&#45;&#45;Angola</title>
<path fill="none" stroke="grey" stroke-width="2.17609" d="M3324.62,-2490C3294.54,-2437.81 3233.8,-2323.63 3211.96,-2218 3203.36,-2176.43 3226.65,-1539.22 3232.61,-1380.56"/>
</g>
<!-- Lisboa&#45;&#45;Portugal -->
<g id="edge40" class="edge"><title>Lisboa&#45;&#45;Portugal</title>
<path fill="none" stroke="grey" stroke-width="1.97313" d="M3309.53,-2508.36C3270.54,-2493.63 3206.87,-2462.91 3178.96,-2412 3044.12,-2166.06 3125.75,-1804.88 3157.79,-1688"/>
</g>
<!-- Lisboa&#45;&#45;Espanha -->
<g id="edge38" class="edge"><title>Lisboa&#45;&#45;Espanha</title>
<path fill="none" stroke="grey" stroke-width="0.60206" d="M3365.8,-2495.12C3384.94,-2474.67 3411.14,-2443.61 3426.96,-2412 3480.22,-2305.57 3494.96,-2272.01 3494.96,-2153 3494.96,-2153 3494.96,-2153 3494.96,-1774 3494.96,-1683.95 3446.51,-1586.55 3417.74,-1536.66"/>
</g>
<!-- Sampaio da Nóvoa&#45;&#45;Marcelo Rebelo de Sousa -->
<g id="edge104" class="edge"><title>Sampaio da Nóvoa&#45;&#45;Marcelo Rebelo de Sousa</title>
<path fill="none" stroke="grey" stroke-width="0.477121" d="M1379.8,-2323.5C1502.49,-2308.95 1747.62,-2275.16 1948.96,-2218 2143.15,-2162.86 2222.56,-2186.86 2370.96,-2050 2407.96,-2015.87 2760.37,-1286.74 2772.96,-1238 2828.61,-1022.5 2822.92,-758.94 2814.22,-617.761"/>
</g>
<!-- Sampaio da Nóvoa&#45;&#45;Vitorino Silva -->
<g id="edge98" class="edge"><title>Sampaio da Nóvoa&#45;&#45;Vitorino Silva</title>
<path fill="none" stroke="grey" stroke-width="0" d="M1263.77,-2264.33C1252.83,-2244.92 1241.05,-2224.06 1230.69,-2205.7"/>
</g>
<!-- Sampaio da Nóvoa&#45;&#45;Jorge Sequeira -->
<g id="edge107" class="edge"><title>Sampaio da Nóvoa&#45;&#45;Jorge Sequeira</title>
<path fill="none" stroke="grey" stroke-width="0" d="M1223.85,-2323.57C1126.04,-2310.78 955.147,-2280.96 821.958,-2218 710.413,-2165.27 675.035,-2148.67 600.958,-2050 541.492,-1970.79 563.834,-1931.29 520.958,-1842 410.252,-1611.46 230.958,-1600.74 230.958,-1345 230.958,-1345 230.958,-1345 230.958,-515 230.958,-362.154 243.831,-287.778 368.958,-200 487.234,-117.029 1528.13,-104.253 1797.52,-102.332"/>
</g>
<!-- Sampaio da Nóvoa&#45;&#45;Edgar Silva -->
<g id="edge96" class="edge"><title>Sampaio da Nóvoa&#45;&#45;Edgar Silva</title>
<path fill="none" stroke="grey" stroke-width="0" d="M1333.4,-2260.89C1338.62,-2246.89 1343.47,-2232.15 1346.96,-2218 1380.59,-2081.72 1331.48,-1702.85 1414.96,-1590 1439.11,-1557.35 1462.05,-1570.95 1498.96,-1554 1518.15,-1545.19 1539.09,-1535.03 1557.12,-1526.1"/>
</g>
<!-- Sampaio da Nóvoa&#45;&#45;Francisco Pinto Balsemão -->
<g id="edge100" class="edge"><title>Sampaio da Nóvoa&#45;&#45;Francisco Pinto Balsemão</title>
<path fill="none" stroke="grey" stroke-width="0" d="M1379.82,-2323.25C1466.57,-2310.71 1608.5,-2281.69 1713.96,-2218 1782.86,-2176.39 1769.66,-2128.59 1837.96,-2086 1884.12,-2057.21 1904.02,-2069.11 1954.96,-2050 2001.21,-2032.65 2051.42,-2010.65 2093.18,-1991.45"/>
</g>
<!-- Sampaio da Nóvoa&#45;&#45;Paulo de Morais -->
<g id="edge99" class="edge"><title>Sampaio da Nóvoa&#45;&#45;Paulo de Morais</title>
<path fill="none" stroke="grey" stroke-width="0" d="M1305.73,-2254.31C1307.23,-2205.83 1307.65,-2142.18 1302.96,-2086 1293.82,-1976.42 1298.46,-1945.73 1261.96,-1842 1239.3,-1777.62 1204.18,-1774.04 1186.96,-1708 1173.72,-1657.25 1180.38,-1642.03 1186.96,-1590 1188.1,-1580.97 1214.17,-1480.93 1232.42,-1411.51"/>
</g>
<!-- Sampaio da Nóvoa&#45;&#45;Marcelo -->
<g id="edge106" class="edge"><title>Sampaio da Nóvoa&#45;&#45;Marcelo</title>
<path fill="none" stroke="grey" stroke-width="0.477121" d="M1226.08,-2313.44C1170.05,-2296.48 1094.98,-2266.5 1043.96,-2218 902.527,-2083.57 721.624,-1606.7 690.958,-1414 681.18,-1352.55 681.986,-1335.57 690.958,-1274 702.861,-1192.32 692.029,-1160.16 743.958,-1096 764.979,-1070.03 782.554,-1079.12 809.958,-1060 879.707,-1011.35 876.724,-969.593 953.958,-934 1039.98,-894.355 1328.19,-869.09 1434.83,-860.905"/>
</g>
<!-- Sampaio da Nóvoa&#45;&#45;Francisco Sá Carneiro -->
<g id="edge108" class="edge"><title>Sampaio da Nóvoa&#45;&#45;Francisco Sá Carneiro</title>
<path fill="none" stroke="grey" stroke-width="0" d="M1230.41,-2300.56C1193.44,-2285.11 1147.32,-2267.06 1104.96,-2254 1035.31,-2232.52 1007.92,-2254.72 944.958,-2218 943.926,-2217.4 483.388,-1709.11 482.958,-1708 464.09,-1659.07 475.401,-1641.9 482.958,-1590 563.721,-1035.43 521.759,-789.303 937.958,-414 1017.53,-342.251 1139.79,-311.869 1222.45,-299.1"/>
</g>
<!-- Sampaio da Nóvoa&#45;&#45;04/25 -->
<g id="edge97" class="edge"><title>Sampaio da Nóvoa&#45;&#45;04/25</title>
<path fill="none" stroke="grey" stroke-width="0.30103" d="M1377.65,-2312.47C1438.97,-2294.33 1525.75,-2263.26 1591.96,-2218 1657.91,-2172.92 1648.23,-2131.41 1713.96,-2086 1749.06,-2061.75 1768.91,-2075.71 1802.96,-2050 1896.47,-1979.39 1875.66,-1917.86 1964.96,-1842 1990.42,-1820.37 2002.36,-1823.28 2030.96,-1806 2037.55,-1802.02 2044.53,-1797.51 2050.98,-1793.22"/>
</g>
<!-- Sampaio da Nóvoa&#45;&#45;Marisa Matias -->
<g id="edge103" class="edge"><title>Sampaio da Nóvoa&#45;&#45;Marisa Matias</title>
<path fill="none" stroke="grey" stroke-width="0.30103" d="M1231.21,-2299.03C1196.67,-2279.75 1157.04,-2252.41 1130.96,-2218 987.371,-2028.58 1003.34,-1943.34 969.958,-1708 931.675,-1438.12 892.446,-1341.95 1009.96,-1096 1019.47,-1076.08 1034.04,-1056.92 1048.33,-1040.89"/>
</g>
<!-- Sampaio da Nóvoa&#45;&#45;Cândido Ferreira -->
<g id="edge102" class="edge"><title>Sampaio da Nóvoa&#45;&#45;Cândido Ferreira</title>
<path fill="none" stroke="grey" stroke-width="0" d="M1365.06,-2286.35C1432.9,-2234.84 1540.72,-2145.69 1612.96,-2050 1820.09,-1775.65 1971.01,-1387.57 2026.08,-1234.12"/>
</g>
<!-- Sampaio da Nóvoa&#45;&#45;Henrique Neto -->
<g id="edge101" class="edge"><title>Sampaio da Nóvoa&#45;&#45;Henrique Neto</title>
<path fill="none" stroke="grey" stroke-width="0.477121" d="M1379.36,-2318.85C1476.73,-2301.19 1648.34,-2266.35 1789.96,-2218 1923.59,-2172.38 1943.88,-2127.15 2078.96,-2086 2173.32,-2057.26 2229.92,-2121.42 2297.96,-2050 2515.5,-1821.64 2378.96,-1660.39 2378.96,-1345 2378.96,-1345 2378.96,-1345 2378.96,-996 2378.96,-893.236 2287.51,-802.903 2227.67,-754.797"/>
</g>
<!-- Sampaio da Nóvoa&#45;&#45;Paulo Morais -->
<g id="edge105" class="edge"><title>Sampaio da Nóvoa&#45;&#45;Paulo Morais</title>
<path fill="none" stroke="grey" stroke-width="0" d="M1298.84,-2254.33C1292.72,-2155.51 1274.58,-1980.97 1220.96,-1842 1198.31,-1783.3 1152.28,-1727.05 1118.33,-1690.78"/>
</g>
<!-- Paulo de Morais&#45;&#45;Marcelo Rebelo de Sousa -->
<g id="edge176" class="edge"><title>Paulo de Morais&#45;&#45;Marcelo Rebelo de Sousa</title>
<path fill="none" stroke="grey" stroke-width="0.778151" d="M1290.29,-1286.99C1366.19,-1181.93 1525.47,-963.208 1556.96,-934 1578.13,-914.359 1968.01,-664.392 1994.96,-654 2238.1,-560.233 2546.74,-530.532 2703.92,-521.206"/>
</g>
<!-- Paulo de Morais&#45;&#45;Jorge Sequeira -->
<g id="edge178" class="edge"><title>Paulo de Morais&#45;&#45;Jorge Sequeira</title>
<path fill="none" stroke="grey" stroke-width="0.30103" d="M1184.87,-1319.73C1014.41,-1254.15 567.958,-1050.65 567.958,-718 567.958,-718 567.958,-718 567.958,-515 567.958,-357.162 600.689,-287.642 731.958,-200 820.879,-140.632 1572.81,-111.427 1797.68,-103.965"/>
</g>
<!-- Paulo de Morais&#45;&#45;Marcelo -->
<g id="edge175" class="edge"><title>Paulo de Morais&#45;&#45;Marcelo</title>
<path fill="none" stroke="grey" stroke-width="0.778151" d="M1269.38,-1276.93C1295.5,-1193.46 1346.68,-1047.06 1414.96,-934 1424.69,-917.883 1437.39,-901.321 1448.6,-887.789"/>
</g>
<!-- Paulo de Morais&#45;&#45;Francisco Sá Carneiro -->
<g id="edge177" class="edge"><title>Paulo de Morais&#45;&#45;Francisco Sá Carneiro</title>
<path fill="none" stroke="grey" stroke-width="0.30103" d="M1248.34,-1274.33C1246.28,-1180.36 1242.96,-1006.42 1242.96,-858 1242.96,-858 1242.96,-858 1242.96,-716 1242.96,-596.73 1269.27,-460.999 1289.16,-375.441"/>
</g>
<!-- Paulo de Morais&#45;&#45;Marisa Matias -->
<g id="edge174" class="edge"><title>Paulo de Morais&#45;&#45;Marisa Matias</title>
<path fill="none" stroke="grey" stroke-width="0.60206" d="M1199.47,-1296.25C1183.59,-1279.25 1167.26,-1259.01 1155.96,-1238 1125.56,-1181.47 1109.2,-1109.44 1100.84,-1059.11"/>
</g>
<!-- Paulo de Morais&#45;&#45;Cândido Ferreira -->
<g id="edge173" class="edge"><title>Paulo de Morais&#45;&#45;Cândido Ferreira</title>
<path fill="none" stroke="grey" stroke-width="0.30103" d="M1317.74,-1328.16C1468.18,-1295.21 1828.62,-1216.26 1980.08,-1183.09"/>
</g>
<!-- Paulo de Morais&#45;&#45;Henrique Neto -->
<g id="edge172" class="edge"><title>Paulo de Morais&#45;&#45;Henrique Neto</title>
<path fill="none" stroke="grey" stroke-width="0.778151" d="M1302.1,-1297.82C1323.46,-1279.29 1348.41,-1257.63 1370.96,-1238 1595.18,-1042.78 1624.44,-949.722 1889.96,-816 1964.37,-778.523 2056.46,-749.931 2115.93,-733.561"/>
</g>
<!-- Luanda&#45;&#45;Marcelo Rebelo de Sousa -->
<g id="edge42" class="edge"><title>Luanda&#45;&#45;Marcelo Rebelo de Sousa</title>
<path fill="none" stroke="grey" stroke-width="0.845098" d="M3403.66,-2303.5C3420.4,-2281.3 3442.66,-2249.12 3456.96,-2218 3509.19,-2104.33 3532.96,-2072.09 3532.96,-1947 3532.96,-1947 3532.96,-1947 3532.96,-1774 3532.96,-1523.73 3605.09,-816.736 3414.96,-654 3339.52,-589.433 3060.03,-547.104 2907.27,-528.26"/>
</g>
<!-- Luanda&#45;&#45;Estados Unidos -->
<g id="edge47" class="edge"><title>Luanda&#45;&#45;Estados Unidos</title>
<path fill="none" stroke="grey" stroke-width="1.90309" d="M3363.94,-2299.58C3350.92,-2274.8 3332.64,-2239.99 3317.16,-2210.52"/>
</g>
<!-- Luanda&#45;&#45;Angola -->
<g id="edge44" class="edge"><title>Luanda&#45;&#45;Angola</title>
<path fill="none" stroke="grey" stroke-width="3.42716" d="M3383.61,-2295.68C3386.65,-2247.63 3390.54,-2160.33 3384.96,-2086 3363.57,-1800.93 3377.84,-1721.7 3288.96,-1450 3280.26,-1423.4 3265.28,-1395.43 3253.15,-1375.05"/>
</g>
<!-- Luanda&#45;&#45;Portugal -->
<g id="edge45" class="edge"><title>Luanda&#45;&#45;Portugal</title>
<path fill="none" stroke="grey" stroke-width="2.42813" d="M3381.74,-2295.95C3381.97,-2247.46 3379.42,-2158.9 3360.96,-2086 3321.07,-1928.45 3229.29,-1755.88 3188.79,-1684.18"/>
</g>
<!-- Luanda&#45;&#45;04/25 -->
<g id="edge46" class="edge"><title>Luanda&#45;&#45;04/25</title>
<path fill="none" stroke="grey" stroke-width="0.954243" d="M3350.26,-2311.65C3316.26,-2289.04 3259.92,-2251.31 3211.96,-2218 3106.51,-2144.76 3068.22,-2140.31 2976.96,-2050 2895.58,-1969.46 2924.67,-1898.27 2824.96,-1842 2761.51,-1806.19 2239.1,-1782.64 2106.48,-1777.21"/>
</g>
<!-- Luanda&#45;&#45;Espanha -->
<g id="edge43" class="edge"><title>Luanda&#45;&#45;Espanha</title>
<path fill="none" stroke="grey" stroke-width="1.51851" d="M3399.59,-2300.85C3411.76,-2278.62 3426.54,-2247.55 3432.96,-2218 3487.99,-1964.77 3429.5,-1649.74 3405.9,-1541.56"/>
</g>
<!-- António Guterres&#45;&#45;Marcelo Rebelo de Sousa -->
<g id="edge73" class="edge"><title>António Guterres&#45;&#45;Marcelo Rebelo de Sousa</title>
<path fill="none" stroke="grey" stroke-width="0.778151" d="M1733.74,-2692.48C1875.56,-2678.65 2186,-2643.37 2278.96,-2592 2460.47,-2491.7 2456.97,-2399.13 2557.96,-2218 2837.86,-1715.99 2986.96,-1572.77 2986.96,-998 2986.96,-998 2986.96,-998 2986.96,-856 2986.96,-756.257 2925.23,-657.399 2873.87,-592.408"/>
</g>
<!-- António Guterres&#45;&#45;Vitorino Silva -->
<g id="edge77" class="edge"><title>António Guterres&#45;&#45;Vitorino Silva</title>
<path fill="none" stroke="grey" stroke-width="0" d="M1593.91,-2676.07C1544.14,-2657.56 1476.28,-2628.59 1422.96,-2592 1348.07,-2540.61 1350.42,-2502.76 1277.96,-2448 1251.92,-2428.32 1231.14,-2439.75 1213.96,-2412 1176.7,-2351.8 1180.31,-2267.83 1188.64,-2212.01"/>
</g>
<!-- António Guterres&#45;&#45;Jorge Sequeira -->
<g id="edge74" class="edge"><title>António Guterres&#45;&#45;Jorge Sequeira</title>
<path fill="none" stroke="grey" stroke-width="0.30103" d="M1734.1,-2696.16C2051.43,-2683.48 3310.74,-2630.87 3384.96,-2592 3594.3,-2482.36 3684.96,-2389.32 3684.96,-2153 3684.96,-2153 3684.96,-2153 3684.96,-1501 3684.96,-1274.91 3760.96,-1224.09 3760.96,-998 3760.96,-998 3760.96,-998 3760.96,-515 3760.96,-322.279 3643.18,-268.266 3462.96,-200 3317.28,-144.82 2203.68,-111.263 1924.35,-103.658"/>
</g>
<!-- António Guterres&#45;&#45;Edgar Silva -->
<g id="edge76" class="edge"><title>António Guterres&#45;&#45;Edgar Silva</title>
<path fill="none" stroke="grey" stroke-width="0.30103" d="M1654.66,-2628.21C1638.32,-2465.79 1599.2,-2053.72 1585.96,-1708 1583.95,-1655.59 1580.91,-1642.2 1585.96,-1590 1587.13,-1577.9 1589.2,-1564.98 1591.5,-1552.9"/>
</g>
<!-- António Guterres&#45;&#45;Marcelo Caetano -->
<g id="edge70" class="edge"><title>António Guterres&#45;&#45;Marcelo Caetano</title>
<path fill="none" stroke="grey" stroke-width="0.30103" d="M1725.09,-2664.88C1750.62,-2652.06 1780.68,-2638.14 1808.96,-2628 1872.68,-2605.15 1896.52,-2622.49 1956.96,-2592 1968.63,-2586.11 1980.1,-2578.34 1990.65,-2570.1"/>
</g>
<!-- António Guterres&#45;&#45;Francisco Pinto Balsemão -->
<g id="edge80" class="edge"><title>António Guterres&#45;&#45;Francisco Pinto Balsemão</title>
<path fill="none" stroke="grey" stroke-width="0.30103" d="M1709.13,-2645.21C1723.28,-2628.47 1738.59,-2609.74 1751.96,-2592 1897.56,-2398.79 2052.04,-2159.92 2131.58,-2034.06"/>
</g>
<!-- António Guterres&#45;&#45;Sampaio da Nóvoa -->
<g id="edge66" class="edge"><title>António Guterres&#45;&#45;Sampaio da Nóvoa</title>
<path fill="none" stroke="grey" stroke-width="0.30103" d="M1593.9,-2675.42C1553.09,-2658.11 1503.05,-2630.81 1470.96,-2592 1427.97,-2540.01 1459.28,-2504.85 1422.96,-2448 1407.19,-2423.31 1384.9,-2400.28 1363.75,-2381.47"/>
</g>
<!-- António Guterres&#45;&#45;Paulo de Morais -->
<g id="edge81" class="edge"><title>António Guterres&#45;&#45;Paulo de Morais</title>
<path fill="none" stroke="grey" stroke-width="0.30103" d="M1597.16,-2667.97C1566.06,-2649.93 1530.88,-2624.33 1508.96,-2592 1480.65,-2550.24 1310.26,-1757.59 1300.96,-1708 1281.81,-1605.89 1266.35,-1486.39 1257.65,-1413.21"/>
</g>
<!-- António Guterres&#45;&#45;Marcelo -->
<g id="edge72" class="edge"><title>António Guterres&#45;&#45;Marcelo</title>
<path fill="none" stroke="grey" stroke-width="0.778151" d="M1640.1,-2631.01C1622.37,-2573.31 1598.08,-2488.02 1583.96,-2412 1488.19,-1896.32 1493.6,-1761.66 1463.96,-1238 1456.32,-1103.1 1450.53,-1068.63 1461.96,-934 1462.99,-921.862 1464.93,-908.751 1467,-896.891"/>
</g>
<!-- António Guterres&#45;&#45;Francisco Sá Carneiro -->
<g id="edge75" class="edge"><title>António Guterres&#45;&#45;Francisco Sá Carneiro</title>
<path fill="none" stroke="grey" stroke-width="0.30103" d="M1589.7,-2696.99C1476.91,-2691.4 1254.38,-2670.43 1084.96,-2592 768.305,-2445.42 646.213,-2374.11 516.958,-2050 433.907,-1841.75 445.489,-1777.26 424.958,-1554 400.869,-1292.04 541.426,-581.879 743.958,-414 815.961,-354.318 1081.66,-315.991 1222.29,-299.43"/>
</g>
<!-- António Guterres&#45;&#45;Portugal -->
<g id="edge79" class="edge"><title>António Guterres&#45;&#45;Portugal</title>
<path fill="none" stroke="grey" stroke-width="0.30103" d="M1734.08,-2695.87C1903.9,-2687.43 2323.78,-2660.11 2444.96,-2592 2848.33,-2365.29 2738.57,-2087.17 3048.96,-1744 3074.79,-1715.44 3110.02,-1688.98 3135.62,-1671.46"/>
</g>
<!-- António Guterres&#45;&#45;04/25 -->
<g id="edge78" class="edge"><title>António Guterres&#45;&#45;04/25</title>
<path fill="none" stroke="grey" stroke-width="0.60206" d="M1685.02,-2631.51C1702.63,-2580.76 1727.9,-2509.67 1751.96,-2448 1805.09,-2311.81 1925.41,-1962.65 2007.96,-1842 2020.31,-1823.94 2038.19,-1806.83 2052.51,-1794.56"/>
</g>
<!-- António Guterres&#45;&#45;Marisa Matias -->
<g id="edge69" class="edge"><title>António Guterres&#45;&#45;Marisa Matias</title>
<path fill="none" stroke="grey" stroke-width="0.60206" d="M1590.2,-2693C1502.37,-2683.02 1351.57,-2657.17 1239.96,-2592 1190.35,-2563.03 912.893,-2267.03 882.958,-2218 757.939,-2013.22 745.847,-1944.59 705.958,-1708 697.24,-1656.29 695.226,-1641.33 705.958,-1590 754.996,-1355.45 761.928,-1274.36 921.958,-1096 952.694,-1061.75 998.335,-1036.43 1034.74,-1020.12"/>
</g>
<!-- António Guterres&#45;&#45;Cândido Ferreira -->
<g id="edge68" class="edge"><title>António Guterres&#45;&#45;Cândido Ferreira</title>
<path fill="none" stroke="grey" stroke-width="0.30103" d="M1733.7,-2689.69C1847.26,-2673.76 2061.73,-2638.44 2121.96,-2592 2325.17,-2435.3 2285.18,-2304.11 2320.96,-2050 2345.13,-1878.31 2343.65,-1412.95 2239.96,-1274 2209.34,-1232.97 2157.9,-1205.73 2116.11,-1189.16"/>
</g>
<!-- António Guterres&#45;&#45;Henrique Neto -->
<g id="edge67" class="edge"><title>António Guterres&#45;&#45;Henrique Neto</title>
<path fill="none" stroke="grey" stroke-width="0.778151" d="M1734.36,-2699.31C1843.05,-2696.69 2051.52,-2679.46 2200.96,-2592 2212.76,-2585.09 2516.13,-2230.79 2520.96,-2218 2723.2,-1682.56 2590.48,-1480.99 2421.96,-934 2405.34,-880.051 2413.24,-857.492 2374.96,-816 2337.9,-775.828 2280.75,-750.013 2237.35,-735.02"/>
</g>
<!-- António Guterres&#45;&#45;Paulo Morais -->
<g id="edge71" class="edge"><title>António Guterres&#45;&#45;Paulo Morais</title>
<path fill="none" stroke="grey" stroke-width="0.30103" d="M1590.85,-2687.82C1492.34,-2670.94 1321.52,-2636.16 1277.96,-2592 1231.48,-2544.88 1279.71,-2500.93 1239.96,-2448 1221.28,-2423.13 1198.5,-2436.96 1179.96,-2412 1018.46,-2194.59 1048.24,-1843.21 1067.56,-1706.74"/>
</g>
<!-- Marcelo&#45;&#45;Marcelo Rebelo de Sousa -->
<g id="edge194" class="edge"><title>Marcelo&#45;&#45;Marcelo Rebelo de Sousa</title>
<path fill="none" stroke="grey" stroke-width="1.25527" d="M1505.26,-830.157C1512.65,-824.842 1520.79,-819.735 1528.96,-816 1595.64,-785.516 1623.64,-811.265 1689.96,-780 1772.46,-741.106 1768.01,-689.675 1851.96,-654 2004.32,-589.253 2491.11,-542.748 2704.31,-524.967"/>
</g>
<!-- Marcelo&#45;&#45;Jorge Sequeira -->
<g id="edge195" class="edge"><title>Marcelo&#45;&#45;Jorge Sequeira</title>
<path fill="none" stroke="grey" stroke-width="0.778151" d="M1492.93,-820.895C1554.51,-700.601 1757.36,-304.364 1832.57,-157.451"/>
</g>
<!-- Marcelo&#45;&#45;Francisco Sá Carneiro -->
<g id="edge196" class="edge"><title>Marcelo&#45;&#45;Francisco Sá Carneiro</title>
<path fill="none" stroke="grey" stroke-width="0.778151" d="M1463.94,-817.984C1437.84,-727.887 1371.69,-499.593 1335.51,-374.744"/>
</g>
<!-- Marcelo&#45;&#45;Henrique Neto -->
<g id="edge193" class="edge"><title>Marcelo&#45;&#45;Henrique Neto</title>
<path fill="none" stroke="grey" stroke-width="1.25527" d="M1514.21,-848.285C1630.5,-825.424 1973.93,-757.912 2115.19,-730.142"/>
</g>
<!-- Angola&#45;&#45;Marcelo Rebelo de Sousa -->
<g id="edge192" class="edge"><title>Angola&#45;&#45;Marcelo Rebelo de Sousa</title>
<path fill="none" stroke="grey" stroke-width="1.90309" d="M3235.82,-1307.49C3239.69,-1197.75 3237.31,-859.17 3076.96,-654 3033.94,-598.962 2962.86,-564.197 2904.28,-543.462"/>
</g>
<!-- Francisco Sá Carneiro&#45;&#45;Jorge Sequeira -->
<g id="edge202" class="edge"><title>Francisco Sá Carneiro&#45;&#45;Jorge Sequeira</title>
<path fill="none" stroke="grey" stroke-width="0.30103" d="M1395.09,-259.548C1507.33,-221.589 1703.29,-155.321 1801.41,-122.138"/>
</g>
<!-- Portugal&#45;&#45;Marcelo Rebelo de Sousa -->
<g id="edge169" class="edge"><title>Portugal&#45;&#45;Marcelo Rebelo de Sousa</title>
<path fill="none" stroke="grey" stroke-width="1.98227" d="M3158.31,-1609.89C3131.43,-1510.22 3062.96,-1233.25 3062.96,-998 3062.96,-998 3062.96,-998 3062.96,-856 3062.96,-765.591 3088.41,-729.685 3038.96,-654 3007.13,-605.288 2951.47,-571.623 2902.53,-549.857"/>
</g>
<!-- Portugal&#45;&#45;Angola -->
<g id="edge171" class="edge"><title>Portugal&#45;&#45;Angola</title>
<path fill="none" stroke="grey" stroke-width="3.47567" d="M3178.18,-1609.64C3182.21,-1592.62 3186.93,-1572.33 3190.96,-1554 3204.4,-1492.85 3218.84,-1421.36 3227.09,-1379.82"/>
</g>
<!-- Portugal&#45;&#45;Espanha -->
<g id="edge170" class="edge"><title>Portugal&#45;&#45;Espanha</title>
<path fill="none" stroke="grey" stroke-width="1.92942" d="M3202.6,-1626.6C3245.71,-1599.19 3320,-1551.94 3363.18,-1524.48"/>
</g>
<!-- 04/25&#45;&#45;Marcelo Rebelo de Sousa -->
<g id="edge142" class="edge"><title>04/25&#45;&#45;Marcelo Rebelo de Sousa</title>
<path fill="none" stroke="grey" stroke-width="1.20412" d="M2094.97,-1751.08C2104.94,-1738.65 2117.1,-1722.84 2126.96,-1708 2384.62,-1320.21 2417.6,-1202.61 2612.96,-780 2638.67,-724.374 2634.26,-704.515 2668.96,-654 2686.1,-629.046 2708.12,-604.705 2729.47,-583.63"/>
</g>
<!-- 04/25&#45;&#45;Jorge Sequeira -->
<g id="edge143" class="edge"><title>04/25&#45;&#45;Jorge Sequeira</title>
<path fill="none" stroke="grey" stroke-width="0.60206" d="M2102.87,-1760.94C2184.83,-1720.05 2434.96,-1586.82 2585.96,-1414 2893.99,-1061.46 3136.57,-827.453 2916.96,-414 2840.98,-270.951 2772.51,-259.754 2621.96,-200 2494.89,-149.569 2082.4,-117.009 1923.84,-106.081"/>
</g>
<!-- 04/25&#45;&#45;Edgar Silva -->
<g id="edge151" class="edge"><title>04/25&#45;&#45;Edgar Silva</title>
<path fill="none" stroke="grey" stroke-width="0.60206" d="M2046.17,-1769.29C1962.69,-1755.99 1731.76,-1718.43 1718.96,-1708 1675.06,-1672.24 1699.33,-1639 1670.96,-1590 1661.26,-1573.24 1648.62,-1556.17 1636.89,-1541.63"/>
</g>
<!-- 04/25&#45;&#45;Paulo de Morais -->
<g id="edge150" class="edge"><title>04/25&#45;&#45;Paulo de Morais</title>
<path fill="none" stroke="grey" stroke-width="0.60206" d="M2046.65,-1766.6C2011.79,-1756.88 1952.78,-1737.52 1908.96,-1708 1777.55,-1619.49 1799.73,-1529.97 1662.96,-1450 1553.27,-1385.87 1404.87,-1360.53 1319.07,-1350.79"/>
</g>
<!-- 04/25&#45;&#45;Marcelo -->
<g id="edge140" class="edge"><title>04/25&#45;&#45;Marcelo</title>
<path fill="none" stroke="grey" stroke-width="1.07918" d="M2055.49,-1752.04C2044.79,-1739.76 2032.07,-1723.78 2022.96,-1708 1877,-1455.28 1922.84,-1353.22 1784.96,-1096 1743.37,-1018.4 1740.31,-988.239 1670.96,-934 1623.81,-897.126 1556.63,-876.306 1514.44,-866.104"/>
</g>
<!-- 04/25&#45;&#45;Angola -->
<g id="edge145" class="edge"><title>04/25&#45;&#45;Angola</title>
<path fill="none" stroke="grey" stroke-width="1.98677" d="M2106.39,-1773.32C2182.29,-1770.85 2385.33,-1759.55 2544.96,-1708 2818.04,-1619.81 3111.92,-1428.33 3204.39,-1365.46"/>
</g>
<!-- 04/25&#45;&#45;Francisco Sá Carneiro -->
<g id="edge144" class="edge"><title>04/25&#45;&#45;Francisco Sá Carneiro</title>
<path fill="none" stroke="grey" stroke-width="0.778151" d="M2066.2,-1746.02C2039.63,-1670 1963.62,-1453.32 1897.96,-1274 1868.89,-1194.62 1866.82,-1172.55 1830.96,-1096 1757.04,-938.199 1551.93,-550.772 1443.96,-414 1424.98,-389.965 1401.29,-366.341 1379.19,-346.268"/>
</g>
<!-- 04/25&#45;&#45;Portugal -->
<g id="edge149" class="edge"><title>04/25&#45;&#45;Portugal</title>
<path fill="none" stroke="grey" stroke-width="2.04139" d="M2106.05,-1770.59C2259.49,-1753.18 2954.41,-1674.34 3129.05,-1654.53"/>
</g>
<!-- 04/25&#45;&#45;Marisa Matias -->
<g id="edge147" class="edge"><title>04/25&#45;&#45;Marisa Matias</title>
<path fill="none" stroke="grey" stroke-width="0.90309" d="M2050.37,-1758.55C2031.16,-1746.25 2004.85,-1727.85 1984.96,-1708 1939.02,-1662.17 1942.45,-1638.17 1898.96,-1590 1678.77,-1346.12 1629.29,-1267.38 1348.96,-1096 1286.53,-1057.84 1206.75,-1030.16 1152.98,-1014.15"/>
</g>
<!-- 04/25&#45;&#45;Cândido Ferreira -->
<g id="edge148" class="edge"><title>04/25&#45;&#45;Cândido Ferreira</title>
<path fill="none" stroke="grey" stroke-width="0.60206" d="M2074.64,-1744.36C2070.54,-1652.4 2057.97,-1370.17 2052.07,-1237.84"/>
</g>
<!-- 04/25&#45;&#45;Henrique Neto -->
<g id="edge146" class="edge"><title>04/25&#45;&#45;Henrique Neto</title>
<path fill="none" stroke="grey" stroke-width="1.07918" d="M2085.11,-1745.65C2112.01,-1659.69 2188.96,-1394.08 2188.96,-1168 2188.96,-1168 2188.96,-1168 2188.96,-996 2188.96,-921.725 2184.63,-836.392 2181.17,-780.074"/>
</g>
<!-- 04/25&#45;&#45;Paulo Morais -->
<g id="edge141" class="edge"><title>04/25&#45;&#45;Paulo Morais</title>
<path fill="none" stroke="grey" stroke-width="0.60206" d="M2045.79,-1770.26C1906.17,-1752.93 1321.66,-1680.37 1134.72,-1657.17"/>
</g>
<!-- Marisa Matias&#45;&#45;Marcelo Rebelo de Sousa -->
<g id="edge190" class="edge"><title>Marisa Matias&#45;&#45;Marcelo Rebelo de Sousa</title>
<path fill="none" stroke="grey" stroke-width="1.07918" d="M1141.76,-958.021C1239.42,-884.401 1468.56,-723.422 1689.96,-654 2050.61,-540.914 2504.13,-520.52 2703.72,-517.296"/>
</g>
<!-- Marisa Matias&#45;&#45;Jorge Sequeira -->
<g id="edge188" class="edge"><title>Marisa Matias&#45;&#45;Jorge Sequeira</title>
<path fill="none" stroke="grey" stroke-width="0.60206" d="M1040.59,-963.201C905.837,-874.652 567.114,-623.311 705.958,-414 841.159,-210.182 977.548,-266.357 1212.96,-200 1422.4,-140.963 1680.56,-115.44 1797.76,-106.306"/>
</g>
<!-- Marisa Matias&#45;&#45;Marcelo -->
<g id="edge189" class="edge"><title>Marisa Matias&#45;&#45;Marcelo</title>
<path fill="none" stroke="grey" stroke-width="1.07918" d="M1150.82,-973.536C1184.42,-960.958 1227.73,-945.534 1266.96,-934 1334.39,-914.172 1357.17,-927.531 1420.96,-898 1429.11,-894.226 1437.24,-889.103 1444.63,-883.785"/>
</g>
<!-- Marisa Matias&#45;&#45;Francisco Sá Carneiro -->
<g id="edge187" class="edge"><title>Marisa Matias&#45;&#45;Francisco Sá Carneiro</title>
<path fill="none" stroke="grey" stroke-width="0.60206" d="M1100.02,-934.711C1114.1,-826.108 1151.24,-594.338 1228.96,-414 1236.77,-395.868 1247.24,-377.5 1258.07,-360.656"/>
</g>
<!-- Marisa Matias&#45;&#45;Henrique Neto -->
<g id="edge191" class="edge"><title>Marisa Matias&#45;&#45;Henrique Neto</title>
<path fill="none" stroke="grey" stroke-width="1.07918" d="M1151.15,-974.587C1184.85,-962.354 1228.17,-946.924 1266.96,-934 1318.17,-916.937 1341.48,-932.543 1382.96,-898 1414.58,-871.667 1392.2,-839.534 1425.96,-816 1429.51,-813.527 1934.99,-748.861 2114.56,-725.952"/>
</g>
<!-- Cândido Ferreira&#45;&#45;Marcelo Rebelo de Sousa -->
<g id="edge184" class="edge"><title>Cândido Ferreira&#45;&#45;Marcelo Rebelo de Sousa</title>
<path fill="none" stroke="grey" stroke-width="0.778151" d="M2033.66,-1097.8C2013.61,-988.935 1993,-775.785 2104.96,-654 2184.37,-567.616 2529.47,-534.081 2704.03,-522.466"/>
</g>
<!-- Cândido Ferreira&#45;&#45;Jorge Sequeira -->
<g id="edge182" class="edge"><title>Cândido Ferreira&#45;&#45;Jorge Sequeira</title>
<path fill="none" stroke="grey" stroke-width="0.30103" d="M2025.02,-1100.12C2020.86,-1086.96 2016.92,-1073.14 2013.96,-1060 1980.23,-910.563 1970.96,-871.197 1970.96,-718 1970.96,-718 1970.96,-718 1970.96,-515 1970.96,-384.035 1918.67,-237.341 1886.19,-158.86"/>
</g>
<!-- Cândido Ferreira&#45;&#45;Marcelo -->
<g id="edge183" class="edge"><title>Cândido Ferreira&#45;&#45;Marcelo</title>
<path fill="none" stroke="grey" stroke-width="0.778151" d="M1999,-1116.87C1936.47,-1056.34 1831.89,-958.475 1784.96,-934 1695.41,-887.302 1576.25,-868.576 1515.02,-861.662"/>
</g>
<!-- Cândido Ferreira&#45;&#45;Francisco Sá Carneiro -->
<g id="edge181" class="edge"><title>Cândido Ferreira&#45;&#45;Francisco Sá Carneiro</title>
<path fill="none" stroke="grey" stroke-width="0.30103" d="M2010.82,-1107.06C2001.8,-1092.01 1992.59,-1075.65 1984.96,-1060 1958.7,-1006.13 1958.8,-989.804 1936.96,-934 1891.57,-818.027 1820.03,-497.868 1727.96,-414 1636.95,-331.093 1492.78,-303.492 1400.04,-294.38"/>
</g>
<!-- Cândido Ferreira&#45;&#45;Marisa Matias -->
<g id="edge185" class="edge"><title>Cândido Ferreira&#45;&#45;Marisa Matias</title>
<path fill="none" stroke="grey" stroke-width="0.60206" d="M1979.44,-1153.78C1800.05,-1122.26 1323.77,-1038.56 1154.07,-1008.74"/>
</g>
<!-- Cândido Ferreira&#45;&#45;Henrique Neto -->
<g id="edge186" class="edge"><title>Cândido Ferreira&#45;&#45;Henrique Neto</title>
<path fill="none" stroke="grey" stroke-width="0.778151" d="M2075.34,-1101.26C2080.28,-1087.76 2085.11,-1073.53 2088.96,-1060 2119.24,-953.707 2105.26,-921.88 2136.96,-816 2141.02,-802.444 2146.25,-788.177 2151.59,-774.853"/>
</g>
<!-- Espanha&#45;&#45;Marcelo Rebelo de Sousa -->
<g id="edge179" class="edge"><title>Espanha&#45;&#45;Marcelo Rebelo de Sousa</title>
<path fill="none" stroke="grey" stroke-width="0.778151" d="M3387.51,-1462.31C3373.27,-1400.51 3347.96,-1275.52 3347.96,-1168 3347.96,-1168 3347.96,-1168 3347.96,-856 3347.96,-650.119 3063.38,-564.61 2906.63,-533.127"/>
</g>
<!-- Espanha&#45;&#45;Angola -->
<g id="edge180" class="edge"><title>Espanha&#45;&#45;Angola</title>
<path fill="none" stroke="grey" stroke-width="2.5172" d="M3368.19,-1473.47C3337.48,-1444.08 3289.27,-1397.94 3259.75,-1369.69"/>
</g>
<!-- Henrique Neto&#45;&#45;Marcelo Rebelo de Sousa -->
<g id="edge197" class="edge"><title>Henrique Neto&#45;&#45;Marcelo Rebelo de Sousa</title>
<path fill="none" stroke="grey" stroke-width="1.25527" d="M2236.98,-697.009C2345.92,-662.545 2577.05,-589.422 2708.74,-547.757"/>
</g>
<!-- Henrique Neto&#45;&#45;Jorge Sequeira -->
<g id="edge199" class="edge"><title>Henrique Neto&#45;&#45;Jorge Sequeira</title>
<path fill="none" stroke="grey" stroke-width="0.778151" d="M2165.47,-654.837C2143.96,-552.679 2089.99,-344.33 1984.96,-200 1966.15,-174.153 1938.78,-151.535 1914.54,-134.561"/>
</g>
<!-- Henrique Neto&#45;&#45;Francisco Sá Carneiro -->
<g id="edge198" class="edge"><title>Henrique Neto&#45;&#45;Francisco Sá Carneiro</title>
<path fill="none" stroke="grey" stroke-width="0.778151" d="M2131.51,-672.696C2047.95,-593.419 1875.36,-431.453 1841.96,-414 1698.27,-338.918 1509.21,-308.799 1399.77,-297.086"/>
</g>
<!-- Paulo Morais&#45;&#45;Marcelo Rebelo de Sousa -->
<g id="edge155" class="edge"><title>Paulo Morais&#45;&#45;Marcelo Rebelo de Sousa</title>
<path fill="none" stroke="grey" stroke-width="0.778151" d="M1130.9,-1626.3C1158.87,-1615.19 1193.65,-1601.6 1224.96,-1590 1270.43,-1573.15 1283.19,-1572.63 1327.96,-1554 1425.59,-1513.38 1444.55,-1491.16 1541.96,-1450 1797.09,-1342.21 1888.64,-1377.41 2127.96,-1238 2233.09,-1176.75 2245.54,-1141.42 2335.96,-1060 2413.75,-989.943 2444.33,-981.89 2506.96,-898 2579.73,-800.524 2553.68,-747.943 2630.96,-654 2656.33,-623.159 2689.79,-594.863 2720.65,-572.094"/>
</g>
<!-- Paulo Morais&#45;&#45;Jorge Sequeira -->
<g id="edge152" class="edge"><title>Paulo Morais&#45;&#45;Jorge Sequeira</title>
<path fill="none" stroke="grey" stroke-width="0.30103" d="M1029.66,-1614.38C943.977,-1550.92 763.164,-1404.77 667.958,-1238 438.423,-835.916 245.366,-520.009 579.958,-200 668.664,-115.161 1551.95,-103.764 1797.77,-102.236"/>
</g>
<!-- Paulo Morais&#45;&#45;Edgar Silva -->
<g id="edge160" class="edge"><title>Paulo Morais&#45;&#45;Edgar Silva</title>
<path fill="none" stroke="grey" stroke-width="0.30103" d="M1130.39,-1624.79C1158.22,-1613.28 1193.03,-1599.79 1224.96,-1590 1294.65,-1568.64 1313.92,-1570.3 1384.96,-1554 1442.54,-1540.79 1508.6,-1525.28 1552.77,-1514.87"/>
</g>
<!-- Paulo Morais&#45;&#45;Paulo de Morais -->
<g id="edge159" class="edge"><title>Paulo Morais&#45;&#45;Paulo de Morais</title>
<path fill="none" stroke="grey" stroke-width="0.30103" d="M1117.16,-1606.03C1130.84,-1590.44 1145.54,-1572.13 1156.96,-1554 1165.29,-1540.77 1198.57,-1464.71 1222.95,-1408.14"/>
</g>
<!-- Paulo Morais&#45;&#45;Marcelo -->
<g id="edge154" class="edge"><title>Paulo Morais&#45;&#45;Marcelo</title>
<path fill="none" stroke="grey" stroke-width="0.778151" d="M1089.4,-1591.74C1109.46,-1502.34 1148.9,-1332.05 1170.96,-1274 1231.47,-1114.75 1226.85,-1053.82 1347.96,-934 1373.11,-909.117 1388.7,-916.334 1418.96,-898 1427.03,-893.109 1435.45,-887.427 1443.24,-881.909"/>
</g>
<!-- Paulo Morais&#45;&#45;Francisco Sá Carneiro -->
<g id="edge153" class="edge"><title>Paulo Morais&#45;&#45;Francisco Sá Carneiro</title>
<path fill="none" stroke="grey" stroke-width="0.30103" d="M1064.71,-1591.33C1040.28,-1470.26 990.419,-1177.51 1021.96,-934 1052.66,-696.982 1029.57,-614.947 1158.96,-414 1178.5,-383.648 1207.92,-357.172 1235.69,-336.565"/>
</g>
<!-- Paulo Morais&#45;&#45;Marisa Matias -->
<g id="edge156" class="edge"><title>Paulo Morais&#45;&#45;Marisa Matias</title>
<path fill="none" stroke="grey" stroke-width="0.60206" d="M1078.38,-1590.32C1081.38,-1468.37 1088.35,-1185.3 1091.44,-1059.81"/>
</g>
<!-- Paulo Morais&#45;&#45;Cândido Ferreira -->
<g id="edge157" class="edge"><title>Paulo Morais&#45;&#45;Cândido Ferreira</title>
<path fill="none" stroke="grey" stroke-width="0.30103" d="M1131.95,-1628.71C1172.87,-1612.68 1228.71,-1587.16 1270.96,-1554 1318.14,-1516.96 1310.1,-1487.44 1356.96,-1450 1492.38,-1341.82 1544.23,-1338.86 1704.96,-1274 1798.41,-1236.29 1910.61,-1204.03 1980.87,-1185.32"/>
</g>
<!-- Paulo Morais&#45;&#45;Henrique Neto -->
<g id="edge158" class="edge"><title>Paulo Morais&#45;&#45;Henrique Neto</title>
<path fill="none" stroke="grey" stroke-width="0.90309" d="M1124.49,-1614.73C1147.05,-1597.83 1173.65,-1576.21 1194.96,-1554 1234.59,-1512.69 1229.13,-1489.09 1270.96,-1450 1292.85,-1429.54 1307.6,-1435.99 1327.96,-1414 1375.77,-1362.35 1354.35,-1325.84 1401.96,-1274 1421.97,-1252.21 1433.8,-1255.08 1457.96,-1238 1707.79,-1061.31 1746.87,-985.004 2001.96,-816 2040.42,-790.517 2085.95,-765.16 2120.93,-746.625"/>
</g>
</g>
</svg>
